<svg width="696" height="436" viewBox="0 0 696 436" fill="none" xmlns="http://www.w3.org/2000/svg">
<g clip-path="url(#clip0_2590_31771)">
<path d="M183.317 -16.4792C195.984 10.9479 166.454 16.06 153.941 24.8969C153.753 25.0294 153.49 24.9414 153.398 24.7306C141.484 -2.68991 170.284 -7.79879 182.777 -16.6377C182.962 -16.7684 183.222 -16.6849 183.317 -16.4792Z" fill="#121212"/>
<path d="M126.515 41.9765C135.549 61.6372 114.342 65.3689 105.342 71.7385C105.207 71.834 105.018 71.7714 104.952 71.6202C96.4577 51.9626 117.142 48.2348 126.128 41.8639C126.261 41.7697 126.447 41.829 126.515 41.9765Z" fill="#121212"/>
<path d="M78.8508 89.6391C87.8853 109.3 66.6779 113.032 57.6774 119.401C57.5425 119.497 57.3537 119.434 57.2883 119.283C48.7936 99.6252 69.4777 95.8974 78.4636 89.5265C78.5965 89.4322 78.783 89.4916 78.8508 89.6391Z" fill="#121212"/>
<path d="M30.8391 137.651C39.8736 157.312 18.6662 161.043 9.66573 167.413C9.53082 167.508 9.34195 167.446 9.27663 167.295C0.78187 147.637 21.466 143.909 30.4519 137.538C30.5848 137.444 30.7713 137.503 30.8391 137.651Z" fill="#121212"/>
<path d="M635.836 436.045C648.503 463.472 618.973 468.584 606.461 477.421C606.273 477.554 606.01 477.466 605.918 477.255C594.003 449.835 622.804 444.726 635.297 435.887C635.481 435.756 635.741 435.839 635.836 436.045Z" fill="#121212"/>
<path d="M708.996 360.134C727.653 400.562 684.113 408.119 665.659 421.156C665.382 421.351 664.994 421.221 664.859 420.911C647.311 380.491 689.776 372.94 708.201 359.9C708.473 359.707 708.856 359.83 708.996 360.134Z" fill="#121212"/>
<path d="M274.094 74.3006C286.761 101.728 257.231 106.84 244.718 115.677C244.531 115.809 244.267 115.721 244.176 115.51C232.261 88.0899 261.062 82.981 273.554 74.1421C273.739 74.0114 273.999 74.0949 274.094 74.3006Z" fill="#121212"/>
<path d="M347.254 -1.61131C365.911 38.8173 322.371 46.3738 303.917 59.4106C303.64 59.606 303.252 59.4765 303.117 59.1657C285.569 18.7464 328.034 11.1952 346.458 -1.84455C346.731 -2.03738 347.114 -1.91453 347.254 -1.61131Z" fill="#121212"/>
<path d="M441.025 -98.7418C466.952 -42.3712 406.168 -31.707 380.378 -13.4627C379.991 -13.1892 379.45 -13.3689 379.262 -13.8023C354.882 -70.163 414.167 -80.817 439.915 -99.0651C440.296 -99.335 440.83 -99.1646 441.025 -98.7418Z" fill="#121212"/>
<path d="M217.292 132.756C226.327 152.417 205.119 156.149 196.119 162.518C195.984 162.614 195.795 162.551 195.73 162.4C187.235 142.742 207.919 139.015 216.905 132.644C217.038 132.549 217.224 132.609 217.292 132.756Z" fill="#121212"/>
<path d="M169.632 180.419C178.667 200.08 157.459 203.812 148.459 210.181C148.324 210.277 148.135 210.214 148.07 210.063C139.575 190.405 160.259 186.677 169.245 180.306C169.378 180.212 169.564 180.272 169.632 180.419Z" fill="#121212"/>
<path d="M121.616 228.43C130.651 248.091 109.444 251.822 100.443 258.192C100.308 258.287 100.119 258.225 100.054 258.074C91.5592 238.416 112.243 234.688 121.229 228.317C121.362 228.223 121.549 228.282 121.616 228.43Z" fill="#121212"/>
<path d="M74.6518 277.166C80.663 290.382 66.3534 292.982 60.2613 297.312C60.17 297.376 60.0429 297.335 59.9995 297.233C54.3521 284.017 68.3089 281.422 74.3912 277.092C74.4812 277.028 74.6067 277.067 74.6518 277.166Z" fill="#121212"/>
<path d="M364.43 164.634C377.097 192.061 347.567 197.173 335.054 206.01C334.867 206.142 334.603 206.054 334.512 205.843C322.597 178.423 351.398 173.314 363.89 164.475C364.075 164.344 364.335 164.428 364.43 164.634Z" fill="#121212"/>
<path d="M437.59 88.7218C456.247 129.15 412.707 136.707 394.253 149.744C393.976 149.939 393.588 149.81 393.453 149.499C375.905 109.08 418.37 101.528 436.794 88.4886C437.067 88.2958 437.45 88.4186 437.59 88.7218Z" fill="#121212"/>
<path d="M647.223 -127.941C681.198 -54.2967 601.878 -40.5177 568.255 -16.7625C567.751 -16.4064 567.044 -16.6422 566.799 -17.2084C534.842 -90.8362 612.205 -104.605 645.773 -128.366C646.27 -128.717 646.968 -128.493 647.223 -127.941Z" fill="#121212"/>
<path d="M531.357 -8.40831C557.284 47.9623 496.5 58.6265 470.71 76.8708C470.323 77.1443 469.782 76.9646 469.594 76.5312C445.214 20.1705 504.499 9.51654 530.247 -8.73165C530.628 -9.0015 531.162 -8.8311 531.357 -8.40831Z" fill="#121212"/>
<path d="M307.628 223.089C316.663 242.75 295.455 246.481 286.455 252.851C286.32 252.947 286.131 252.884 286.066 252.733C277.571 233.075 298.255 229.347 307.241 222.976C307.374 222.882 307.56 222.942 307.628 223.089Z" fill="#121212"/>
<path d="M259.792 270.926C268.827 290.587 247.619 294.319 238.619 300.688C238.484 300.784 238.295 300.721 238.23 300.57C229.735 280.912 250.419 277.184 259.405 270.814C259.538 270.719 259.724 270.779 259.792 270.926Z" fill="#121212"/>
<path d="M211.952 318.763C220.987 338.423 199.779 342.155 190.779 348.525C190.644 348.62 190.455 348.557 190.39 348.406C181.895 328.749 202.579 325.021 211.565 318.65C211.698 318.556 211.885 318.615 211.952 318.763Z" fill="#121212"/>
<path d="M165.015 367.526C171.026 380.742 156.717 383.342 150.625 387.671C150.533 387.736 150.406 387.694 150.363 387.593C144.715 374.377 158.672 371.781 164.755 367.451C164.844 367.387 164.97 367.426 165.015 367.526Z" fill="#121212"/>
<path d="M454.762 254.967C467.429 282.394 437.899 287.506 425.386 296.343C425.199 296.475 424.935 296.387 424.844 296.177C412.929 268.756 441.73 263.647 454.222 254.808C454.407 254.678 454.667 254.761 454.762 254.967Z" fill="#121212"/>
<path d="M527.922 179.055C546.579 219.484 503.039 227.04 484.585 240.077C484.308 240.273 483.92 240.143 483.785 239.832C466.237 199.413 508.702 191.862 527.126 178.822C527.399 178.629 527.782 178.752 527.922 179.055Z" fill="#121212"/>
<path d="M737.551 -37.6079C771.527 36.0365 692.206 49.8155 658.584 73.5708C658.08 73.9269 657.372 73.691 657.127 73.1249C625.171 -0.502985 702.533 -14.2721 736.101 -38.0326C736.598 -38.3839 737.296 -38.1602 737.551 -37.6079Z" fill="#121212"/>
<path d="M621.689 81.9252C647.616 138.296 586.832 148.96 561.042 167.204C560.655 167.478 560.114 167.298 559.926 166.865C535.547 110.504 594.831 99.85 620.579 81.6018C620.96 81.332 621.494 81.5024 621.689 81.9252Z" fill="#121212"/>
<path d="M397.956 313.423C406.991 333.083 385.783 336.815 376.783 343.185C376.648 343.28 376.459 343.217 376.394 343.066C367.899 323.409 388.583 319.681 397.569 313.31C397.702 313.216 397.889 313.275 397.956 313.423Z" fill="#121212"/>
<path d="M350.12 361.259C359.155 380.92 337.947 384.652 328.947 391.021C328.812 391.117 328.623 391.054 328.558 390.903C320.063 371.246 340.747 367.518 349.733 361.147C349.866 361.053 350.053 361.112 350.12 361.259Z" fill="#121212"/>
<path d="M302.284 409.096C311.319 428.757 290.112 432.489 281.111 438.858C280.976 438.954 280.787 438.891 280.722 438.74C272.227 419.082 292.911 415.354 301.897 408.983C302.03 408.889 302.217 408.949 302.284 409.096Z" fill="#121212"/>
<path d="M545.106 345.301C557.773 372.728 528.243 377.84 515.73 386.677C515.543 386.809 515.279 386.721 515.188 386.51C503.273 359.09 532.074 353.981 544.566 345.142C544.751 345.011 545.011 345.095 545.106 345.301Z" fill="#121212"/>
<path d="M618.266 269.389C636.923 309.817 593.383 317.374 574.929 330.411C574.652 330.606 574.264 330.477 574.129 330.166C556.581 289.746 599.046 282.195 617.47 269.155C617.743 268.963 618.126 269.085 618.266 269.389Z" fill="#121212"/>
<path d="M827.891 52.7258C861.866 126.37 782.546 140.149 748.923 163.905C748.419 164.261 747.712 164.025 747.466 163.459C715.51 89.8308 792.873 76.0617 826.441 52.3012C826.938 51.9498 827.636 52.1735 827.891 52.7258Z" fill="#121212"/>
<path d="M712.033 172.258C737.96 228.629 677.176 239.293 651.386 257.537C650.999 257.811 650.458 257.631 650.27 257.198C625.89 200.837 685.175 190.183 710.923 171.935C711.303 171.665 711.838 171.835 712.033 172.258Z" fill="#121212"/>
<path d="M488.296 403.756C497.331 423.417 476.123 427.148 467.123 433.518C466.988 433.613 466.799 433.551 466.734 433.4C458.239 413.742 478.923 410.014 487.909 403.643C488.042 403.549 488.228 403.608 488.296 403.756Z" fill="#121212"/>
<path d="M452.321 348.193C464.987 375.62 435.458 380.732 422.945 389.569C422.757 389.702 422.494 389.614 422.402 389.403C410.488 361.982 439.288 356.873 451.781 348.034C451.966 347.904 452.226 347.987 452.321 348.193Z" fill="#121212"/>
<path d="M525.477 272.281C544.134 312.71 500.594 320.266 482.14 333.303C481.863 333.499 481.475 333.369 481.34 333.058C463.791 292.639 506.257 285.088 524.681 272.048C524.953 271.855 525.337 271.978 525.477 272.281Z" fill="#121212"/>
<path d="M735.113 55.6184C769.089 129.263 689.769 143.042 656.146 166.797C655.642 167.153 654.935 166.917 654.689 166.351C622.733 92.7233 700.096 78.9542 733.664 55.1938C734.16 54.8424 734.859 55.0661 735.113 55.6184Z" fill="#121212"/>
<path d="M619.248 175.151C645.175 231.522 584.39 242.186 558.601 260.43C558.214 260.704 557.673 260.524 557.485 260.091C533.105 203.73 592.39 193.076 618.138 174.828C618.518 174.558 619.053 174.728 619.248 175.151Z" fill="#121212"/>
<path d="M395.515 406.649C404.549 426.309 383.342 430.041 374.342 436.411C374.207 436.506 374.018 436.443 373.952 436.292C365.458 416.635 386.142 412.907 395.128 406.536C395.261 406.442 395.447 406.501 395.515 406.649Z" fill="#121212"/>
<path d="M542.649 438.525C555.316 465.952 525.786 471.064 513.273 479.901C513.086 480.034 512.822 479.946 512.731 479.735C500.816 452.314 529.616 447.206 542.109 438.367C542.294 438.236 542.554 438.319 542.649 438.525Z" fill="#121212"/>
<path d="M615.809 362.614C634.466 403.042 590.926 410.599 572.472 423.636C572.195 423.831 571.807 423.702 571.672 423.391C554.123 382.971 596.589 375.42 615.013 362.38C615.286 362.188 615.669 362.31 615.809 362.614Z" fill="#121212"/>
<path d="M825.442 145.951C859.417 219.595 780.097 233.374 746.474 257.129C745.97 257.485 745.263 257.25 745.017 256.683C713.061 183.056 790.424 169.287 823.992 145.526C824.488 145.175 825.187 145.398 825.442 145.951Z" fill="#121212"/>
<path d="M709.576 265.484C735.503 321.854 674.718 332.519 648.929 350.763C648.542 351.036 648.001 350.857 647.813 350.423C623.433 294.063 682.718 283.409 708.466 265.16C708.846 264.891 709.381 265.061 709.576 265.484Z" fill="#121212"/>
<path d="M180.868 76.7473C193.534 104.174 164.005 109.287 151.492 118.124C151.304 118.256 151.041 118.168 150.949 117.957C139.035 90.5367 167.835 85.4278 180.328 76.5889C180.513 76.4582 180.773 76.5416 180.868 76.7473Z" fill="#121212"/>
<path d="M254.024 0.83571C272.681 41.2643 229.141 48.8208 210.686 61.8577C210.41 62.0531 210.022 61.9235 209.887 61.6127C192.338 21.1934 234.804 13.6422 253.228 0.60247C253.5 0.409643 253.884 0.532492 254.024 0.83571Z" fill="#121212"/>
<path d="M347.794 -96.2944C373.721 -39.9238 312.937 -29.2596 287.147 -11.0153C286.761 -10.7418 286.219 -10.9215 286.032 -11.3549C261.652 -67.7156 320.936 -78.3696 346.684 -96.6178C347.065 -96.8876 347.6 -96.7172 347.794 -96.2944Z" fill="#121212"/>
<path d="M124.058 135.203C133.092 154.864 111.885 158.596 102.884 164.965C102.75 165.061 102.561 164.998 102.495 164.847C94.0006 145.189 114.685 141.462 123.671 135.091C123.804 134.996 123.99 135.056 124.058 135.203Z" fill="#121212"/>
<path d="M76.2297 183.04C85.2642 202.701 64.0568 206.433 55.0564 212.802C54.9214 212.898 54.7326 212.835 54.6673 212.684C46.1725 193.026 66.8566 189.299 75.8425 182.928C75.9754 182.833 76.162 182.893 76.2297 183.04Z" fill="#121212"/>
<path d="M29.4721 231.985C35.4833 245.201 21.1737 247.801 15.0816 252.13C14.9903 252.195 14.8632 252.154 14.8198 252.052C9.17236 238.836 23.1292 236.241 29.2116 231.911C29.3015 231.847 29.427 231.886 29.4721 231.985Z" fill="#121212"/>
<path d="M271.211 167.081C283.878 194.508 254.348 199.62 241.836 208.457C241.648 208.59 241.385 208.502 241.293 208.291C229.378 180.87 258.179 175.762 270.672 166.923C270.856 166.792 271.116 166.875 271.211 167.081Z" fill="#121212"/>
<path d="M344.371 91.1687C363.028 131.597 319.488 139.154 301.034 152.191C300.757 152.386 300.369 152.257 300.234 151.946C282.686 111.526 325.151 103.975 343.576 90.9355C343.848 90.7427 344.231 90.8655 344.371 91.1687Z" fill="#121212"/>
<path d="M554.004 -125.494C587.98 -51.8494 508.659 -38.0705 475.037 -14.3152C474.533 -13.9591 473.825 -14.1949 473.58 -14.7611C441.624 -88.389 518.987 -102.158 552.554 -125.919C553.051 -126.27 553.749 -126.046 554.004 -125.494Z" fill="#121212"/>
<path d="M438.138 -5.96129C464.065 50.4093 403.281 61.0735 377.491 79.3178C377.105 79.5913 376.563 79.4116 376.376 78.9782C351.996 22.6175 411.28 11.9636 437.028 -6.28463C437.409 -6.55448 437.944 -6.38408 438.138 -5.96129Z" fill="#121212"/>
<path d="M214.409 225.536C223.444 245.197 202.237 248.929 193.236 255.298C193.101 255.394 192.912 255.331 192.847 255.18C184.352 235.522 205.036 231.795 214.022 225.424C214.155 225.329 214.342 225.389 214.409 225.536Z" fill="#121212"/>
<path d="M166.57 273.373C175.604 293.034 154.397 296.765 145.396 303.135C145.261 303.23 145.072 303.168 145.007 303.017C136.512 283.359 157.196 279.631 166.182 273.26C166.315 273.166 166.502 273.225 166.57 273.373Z" fill="#121212"/>
<path d="M119.839 322.345C125.85 335.561 111.541 338.161 105.449 342.49C105.357 342.555 105.23 342.514 105.187 342.412C99.5396 329.196 113.496 326.601 119.579 322.271C119.669 322.207 119.794 322.246 119.839 322.345Z" fill="#121212"/>
<path d="M361.547 257.414C374.214 284.841 344.684 289.953 332.172 298.79C331.984 298.922 331.721 298.835 331.629 298.624C319.714 271.203 348.515 266.094 361.008 257.255C361.192 257.125 361.452 257.208 361.547 257.414Z" fill="#121212"/>
<path d="M434.703 181.502C453.36 221.931 409.82 229.487 391.366 242.524C391.089 242.719 390.701 242.59 390.566 242.279C373.018 201.86 415.483 194.308 433.908 181.269C434.18 181.076 434.563 181.199 434.703 181.502Z" fill="#121212"/>
<path d="M644.34 -35.1609C678.316 38.4836 598.995 52.2626 565.373 76.0178C564.869 76.3739 564.161 76.1381 563.916 75.5719C531.96 1.94404 609.322 -11.8251 642.89 -35.5855C643.387 -35.9369 644.085 -35.7132 644.34 -35.1609Z" fill="#121212"/>
<path d="M528.478 84.3717C554.405 140.742 493.621 151.407 467.831 169.651C467.445 169.924 466.903 169.745 466.716 169.311C442.336 112.951 501.62 102.297 527.368 84.0484C527.749 83.7785 528.284 83.9489 528.478 84.3717Z" fill="#121212"/>
<path d="M304.741 315.87C313.776 335.531 292.569 339.262 283.568 345.632C283.433 345.727 283.244 345.665 283.179 345.514C274.684 325.856 295.368 322.128 304.354 315.757C304.487 315.663 304.674 315.722 304.741 315.87Z" fill="#121212"/>
<path d="M256.905 363.706C265.94 383.366 244.733 387.098 235.732 393.468C235.597 393.563 235.408 393.501 235.343 393.349C226.848 373.692 247.532 369.964 256.518 363.593C256.651 363.499 256.838 363.558 256.905 363.706Z" fill="#121212"/>
<path d="M210.203 412.705C216.214 425.921 201.904 428.521 195.812 432.851C195.721 432.915 195.594 432.874 195.55 432.772C189.903 419.556 203.86 416.961 209.942 412.631C210.032 412.567 210.157 412.606 210.203 412.705Z" fill="#121212"/>
<rect y="-9" width="792" height="652" fill="url(#paint0_linear_2590_31771)"/>
</g>
<defs>
<linearGradient id="paint0_linear_2590_31771" x1="255.5" y1="225.72" x2="606.551" y2="-191.579" gradientUnits="userSpaceOnUse">
<stop stop-color="#080808"/>
<stop offset="1" stop-color="#080808" stop-opacity="0"/>
</linearGradient>
<clipPath id="clip0_2590_31771">
<rect width="696" height="705" fill="white"/>
</clipPath>
</defs>
</svg>
