<svg width="80" height="80" viewBox="0 0 80 80" fill="none" xmlns="http://www.w3.org/2000/svg">
<path d="M24 42V27.3061H26.296L33.9744 38.2245V27.3061H36.2703V42H33.9744L26.296 31.0714V42H24ZM41.8369 34.3469C41.1222 34.3469 40.4688 34.1837 39.8767 33.8571C39.2847 33.5238 38.8118 33.0816 38.458 32.5306C38.1114 31.9728 37.9382 31.3537 37.9382 30.6735C37.9382 30.0068 38.1187 29.3946 38.4797 28.8367C38.8407 28.2789 39.3172 27.8333 39.9092 27.5C40.5012 27.1667 41.1438 27 41.8369 27C42.5517 27 43.2015 27.1667 43.7863 27.5C44.3784 27.8265 44.8513 28.2687 45.2051 28.8265C45.5588 29.3776 45.7357 29.9932 45.7357 30.6735C45.7357 31.3537 45.5588 31.9728 45.2051 32.5306C44.8513 33.0816 44.3784 33.5238 43.7863 33.8571C43.2015 34.1837 42.5517 34.3469 41.8369 34.3469ZM41.8369 32.5C42.1835 32.5 42.5048 32.4184 42.8008 32.2551C43.0968 32.085 43.3315 31.8605 43.5048 31.5816C43.6853 31.3027 43.7755 31 43.7755 30.6735C43.7755 30.3469 43.6853 30.0442 43.5048 29.7653C43.3315 29.4864 43.0968 29.2653 42.8008 29.102C42.5048 28.932 42.1835 28.8469 41.8369 28.8469C41.4904 28.8469 41.1691 28.932 40.8731 29.102C40.5843 29.2653 40.3496 29.4864 40.1691 29.7653C39.9886 30.0442 39.8984 30.3469 39.8984 30.6735C39.8984 31 39.9886 31.3027 40.1691 31.5816C40.3496 31.8605 40.5843 32.085 40.8731 32.2551C41.1619 32.4184 41.4832 32.5 41.8369 32.5ZM38.588 36.9388V35.2245H45.0859V36.9388H38.588Z" fill="#1B1B1B"/>
<path d="M51.6932 42V29.6531L48.7583 31.3367V28.9592L51.6932 27.3061H54V42H51.6932Z" fill="#1B1B1B"/>
<path d="M37.6197 66.9725C37.6197 66.9725 36.6026 70.0536 30.4685 70.7179C24.3344 71.3831 21.7174 70.0536 21.7174 70.0536C21.7174 70.0536 25.8068 66.8124 29.733 66.6453C33.6584 66.4788 37.6197 66.9725 37.6197 66.9725Z" fill="#1B1B1B"/>
<path d="M37.6197 66.9725C37.6197 66.9725 38.0813 63.7486 33.0012 60.1911C27.9202 56.6345 24.9958 56.5356 24.9958 56.5356C24.9958 56.5356 26.6745 60.9274 30.7632 63.4987C34.1045 65.5996 37.6197 66.9725 37.6197 66.9725Z" fill="#1B1B1B"/>
<path d="M30.3453 64.6924C30.3453 64.6924 27.2171 63.2576 22.4933 63.2576C17.7695 63.2576 14.2123 65.7525 14.2123 65.7525C14.2123 65.7525 17.7085 67.1856 22.7387 67.1856C27.7682 67.1865 30.3453 64.6924 30.3453 64.6924Z" fill="#1B1B1B"/>
<path d="M24.5626 61.6357C24.5626 61.6357 24.3087 58.1564 22.0545 53.9385C19.8001 49.7184 15.946 47.7316 15.946 47.7316C15.946 47.7316 16.375 51.539 18.776 56.0327C21.177 60.5249 24.5626 61.6357 24.5626 61.6357Z" fill="#1B1B1B"/>
<path d="M22.2046 61.2031C22.2046 61.2031 19.4938 59.0634 14.9019 57.9396C10.31 56.8149 6.27751 58.3927 6.27751 58.3927C6.27751 58.3927 9.34646 60.6203 14.2371 61.8179C19.1261 63.0149 22.2046 61.2031 22.2046 61.2031Z" fill="#1B1B1B"/>
<path d="M18.1401 57.4934C18.1401 57.4934 16.4527 54.4566 12.6446 51.6155C8.83632 48.7744 4.51763 48.6451 4.51763 48.6451C4.51763 48.6451 6.50238 51.9041 10.5565 54.9301C14.6115 57.9556 18.1401 57.4934 18.1401 57.4934Z" fill="#1B1B1B"/>
<path d="M14.1037 51.2463C14.1037 51.2463 15.2463 48.1366 14.9475 43.5791C14.6495 39.021 12.0962 35.7447 12.0962 35.7447C12.0962 35.7447 10.9766 39.2094 11.2941 44.0645C11.6125 48.9168 14.1037 51.2463 14.1037 51.2463Z" fill="#1B1B1B"/>
<path d="M10.9001 48.2994C10.9001 48.2994 9.72548 45.532 6.71247 42.736C3.6985 39.9391 0 39.424 0 39.424C0 39.424 1.40893 42.4097 4.61835 45.3875C7.82659 48.3649 10.9001 48.2994 10.9001 48.2994Z" fill="#1B1B1B"/>
<path d="M9.08277 42.1673C9.08277 42.1673 8.93767 39.1564 7.08048 35.4632C5.2233 31.7699 1.93761 29.9683 1.93761 29.9683C1.93761 29.9683 2.2278 33.2659 4.20537 37.1992C6.18289 41.1334 9.08277 42.1673 9.08277 42.1673Z" fill="#1B1B1B"/>
<path d="M7.81459 33.1854C7.81459 33.1854 8.06937 30.1828 6.71801 26.2691C5.36575 22.3549 2.34899 20.1208 2.34899 20.1208C2.34899 20.1208 2.19957 23.4283 3.63844 27.5955C5.07759 31.7649 7.81459 33.1854 7.81459 33.1854Z" fill="#1B1B1B"/>
<path d="M9.03864 27.2649C9.03864 27.2649 10.3944 24.5848 10.6039 20.4423C10.8135 16.2995 8.85469 13.0695 8.85469 13.0695C8.85469 13.0695 7.48202 16.0712 7.25834 20.483C7.03464 24.8951 9.03864 27.2649 9.03864 27.2649Z" fill="#1B1B1B"/>
<path d="M12.3789 20.1418C12.3789 20.1418 14.1451 17.7215 15.0146 13.6689C15.8831 9.61593 14.467 6.1043 14.467 6.1043C14.467 6.1043 12.632 8.84006 11.7067 13.1564C10.7817 17.4724 12.3789 20.1418 12.3789 20.1418Z" fill="#1B1B1B"/>
<path d="M9.2371 38.3056C9.2371 38.3056 11.4455 36.2953 13.0957 32.5013C14.7459 28.7073 14.0518 24.9787 14.0518 24.9787C14.0518 24.9787 11.7144 27.2857 9.95708 31.3249C8.19896 35.365 9.2371 38.3056 9.2371 38.3056Z" fill="#1B1B1B"/>
<path d="M11.6784 24.7438C11.6784 24.7438 14.5006 23.8205 17.5278 21.0388C20.554 18.2571 21.4129 14.5638 21.4129 14.5638C21.4129 14.5638 18.3546 15.7037 15.1319 18.6663C11.9075 21.6285 11.6784 24.7438 11.6784 24.7438Z" fill="#1B1B1B"/>
<path d="M15.848 16.4454C15.848 16.4454 18.5188 15.1346 21.1395 11.9576C23.7607 8.77842 24.1111 5 24.1111 5C24.1111 5 21.2367 6.5563 18.4448 9.94207C15.6545 13.3266 15.848 16.4454 15.848 16.4454Z" fill="#1B1B1B"/>
<path d="M38.0441 68.9226C38.0441 73.0949 31.2916 77.635 31.2916 75.418C31.2919 73.2009 38.0441 70.4014 38.0441 68.9226Z" fill="#1B1B1B"/>
<path d="M41.9559 68.9226C41.9559 73.0949 48.7084 77.635 48.7084 75.418C48.7084 73.2011 41.9559 70.4014 41.9559 68.9226Z" fill="#1B1B1B"/>
<path d="M42.3799 66.9725C42.3799 66.9725 43.3971 70.0536 49.5311 70.7179C55.6652 71.3831 58.2823 70.0536 58.2823 70.0536C58.2823 70.0536 54.1928 66.8124 50.2667 66.6453C46.3412 66.4788 42.3799 66.9725 42.3799 66.9725Z" fill="#1B1B1B"/>
<path d="M42.3799 66.9725C42.3799 66.9725 41.9179 63.7486 46.998 60.1911C52.079 56.6345 55.0033 56.5356 55.0033 56.5356C55.0033 56.5356 53.3255 60.9274 49.236 63.4987C45.8941 65.5996 42.3799 66.9725 42.3799 66.9725Z" fill="#1B1B1B"/>
<path d="M49.6541 64.6924C49.6541 64.6924 52.7832 63.2576 57.5046 63.2576C62.2292 63.2576 65.787 65.7525 65.787 65.7525C65.787 65.7525 62.29 67.1856 57.2599 67.1856C52.2302 67.1865 49.6541 64.6924 49.6541 64.6924Z" fill="#1B1B1B"/>
<path d="M55.4366 61.6357C55.4366 61.6357 55.6905 58.1564 57.9439 53.9385C60.1984 49.7184 64.0524 47.7316 64.0524 47.7316C64.0524 47.7316 63.6234 51.539 61.2241 56.0327C58.8222 60.5249 55.4366 61.6357 55.4366 61.6357Z" fill="#1B1B1B"/>
<path d="M57.7947 61.2031C57.7947 61.2031 60.5047 59.0634 65.0974 57.9396C69.6893 56.8149 73.7218 58.3927 73.7218 58.3927C73.7218 58.3927 70.6529 60.6203 65.7629 61.8179C60.8731 63.0149 57.7947 61.2031 57.7947 61.2031Z" fill="#1B1B1B"/>
<path d="M61.8592 57.4934C61.8592 57.4934 63.5474 54.4566 67.3547 51.6155C71.1638 48.7744 75.4824 48.6451 75.4824 48.6451C75.4824 48.6451 73.4988 51.9041 69.4435 54.9301C65.3888 57.9556 61.8592 57.4934 61.8592 57.4934Z" fill="#1B1B1B"/>
<path d="M65.8952 51.2463C65.8952 51.2463 64.7525 48.1366 65.0505 43.5791C65.3493 39.021 67.9026 35.7447 67.9026 35.7447C67.9026 35.7447 69.0222 39.2094 68.7038 44.0645C68.3865 48.9168 65.8952 51.2463 65.8952 51.2463Z" fill="#1B1B1B"/>
<path d="M69.0987 48.2994C69.0987 48.2994 70.2733 45.532 73.2864 42.736C76.3003 39.9391 80 39.424 80 39.424C80 39.424 78.5893 42.4097 75.3808 45.3875C72.1711 48.3649 69.0987 48.2994 69.0987 48.2994Z" fill="#1B1B1B"/>
<path d="M70.9188 42.1673C70.9188 42.1673 71.063 39.1564 72.9211 35.4632C74.7791 31.7699 78.0639 29.9683 78.0639 29.9683C78.0639 29.9683 77.7746 33.2659 75.7971 37.1992C73.8195 41.1334 70.9188 42.1673 70.9188 42.1673Z" fill="#1B1B1B"/>
<path d="M72.1863 33.1854C72.1863 33.1854 71.9307 30.1828 73.282 26.2691C74.6334 22.3549 77.651 20.1208 77.651 20.1208C77.651 20.1208 77.8013 23.4283 76.3607 27.5955C74.9227 31.7649 72.1863 33.1854 72.1863 33.1854Z" fill="#1B1B1B"/>
<path d="M70.9631 27.2649C70.9631 27.2649 69.6074 24.5848 69.3967 20.4423C69.1879 16.2995 71.1459 13.0695 71.1459 13.0695C71.1459 13.0695 72.5194 16.0712 72.7431 20.483C72.9662 24.8951 70.9631 27.2649 70.9631 27.2649Z" fill="#1B1B1B"/>
<path d="M67.6192 20.1418C67.6192 20.1418 65.853 17.7215 64.9848 13.6689C64.1162 9.61593 65.5312 6.1043 65.5312 6.1043C65.5312 6.1043 67.3654 8.84006 68.2915 13.1564C69.2182 17.4724 67.6192 20.1418 67.6192 20.1418Z" fill="#1B1B1B"/>
<path d="M70.7637 38.3056C70.7637 38.3056 68.5536 36.2953 66.9033 32.5013C65.2531 28.7073 65.9472 24.9787 65.9472 24.9787C65.9472 24.9787 68.2846 27.2857 70.0427 31.3249C71.8003 35.365 70.7637 38.3056 70.7637 38.3056Z" fill="#1B1B1B"/>
<path d="M68.3212 24.7438C68.3212 24.7438 65.499 23.8205 62.4727 21.0388C59.4444 18.2571 58.5868 14.5638 58.5868 14.5638C58.5868 14.5638 61.6441 15.7037 64.8685 18.6663C68.0914 21.6285 68.3212 24.7438 68.3212 24.7438Z" fill="#1B1B1B"/>
<path d="M64.1502 16.4454C64.1502 16.4454 61.4803 15.1346 58.8596 11.9576C56.2384 8.77842 55.8872 5 55.8872 5C55.8872 5 58.7632 6.5563 61.5543 9.94207C64.3457 13.3266 64.1502 16.4454 64.1502 16.4454Z" fill="#1B1B1B"/>
</svg>
