<svg width="231" height="63" viewBox="0 0 231 63" fill="none" xmlns="http://www.w3.org/2000/svg">
<path d="M25.1994 13.1173C29.1578 23.3758 22.7114 29.9565 16.2959 36.5527C10.3122 43.2877 5.04921 50.2868 15.6355 62.8913C11.6835 52.6385 18.1342 46.0525 24.5487 39.4727C30.5263 32.7136 35.7954 25.7256 25.1994 13.1173Z" fill="#EB1E3D"/>
<path d="M15.6349 0C19.5966 10.2569 13.146 16.8391 6.72502 23.4326C0.747434 30.1688 -4.51526 37.1732 6.08075 49.778C2.12145 39.5156 8.56876 32.9324 14.9943 26.3464C20.9706 19.6037 26.2209 12.602 15.6349 0Z" fill="#00C277"/>
<path d="M184.988 40.3887V61.5984H193.987V53.8379H203.974V49.1876H193.987V45.0316H213.827V61.5984H222.823V45.0316H230.999V40.3887H184.988Z" fill="#DEDEDE"/>
<path d="M165.5 56.998V53.3218H177.363V48.6727H165.5V45.0316H180.727V40.3887H156.51V61.5984H180.915V56.998H165.5Z" fill="#DEDEDE"/>
<path d="M120.826 40.3887H96.2285V45.0316H104.276V61.5984H113.272V45.0316H120.826V40.3887Z" fill="#DEDEDE"/>
<path d="M69.9247 40.3887H44.75V45.0316H52.8059V61.5984H61.7921V45.0316H69.9247V40.3887Z" fill="#DEDEDE"/>
<path d="M76.9376 53.5619L81.1272 45.3534L85.1329 53.5619H76.9376ZM87.9558 40.3887H78.2513L66.9543 61.5984H72.8325L74.6935 57.9517H87.3806L89.2343 61.5984H99.2527L87.9558 40.3887Z" fill="#DEDEDE"/>
<path d="M145.403 40.3887V50.9884L130.929 40.3887H123.894V61.5984H130.09V49.9282L144.962 61.5984H151.596V40.3887H145.403Z" fill="#DEDEDE"/>
<path d="M46.0394 34.5152H44.9921V28.6392H48.7595V29.5257H46.0394V34.5152Z" fill="#DEDEDE"/>
<path d="M58.0039 31.4561H59.2294C59.7118 31.4561 60.3937 31.3845 60.3937 30.5117C60.3937 29.5709 59.6415 29.5257 59.2385 29.5257H58.0039V31.4561ZM59.2448 28.6392C60.1464 28.6392 61.4798 28.7789 61.4798 30.4537C61.4798 31.5205 60.8985 32.3448 59.2385 32.3448H58.0039V34.5152H56.9529V28.6392H59.2448Z" fill="#DEDEDE"/>
<path d="M73.1885 28.6392H74.2934L72.3572 33.3701C71.8811 34.5704 71.2396 34.5933 70.7347 34.5933C70.4659 34.5933 70.265 34.5834 69.9889 34.5087V33.5745C70.1698 33.6334 70.3705 33.6717 70.589 33.6717C70.9572 33.6717 71.2747 33.5587 71.405 32.9683L69.2113 28.6392H70.5062L71.9702 31.8095L73.1885 28.6392Z" fill="#DEDEDE"/>
<path d="M83.4048 34.5152H82.3414V28.6392H87.0014V34.5152H85.9477V29.5257H83.4048V34.5152Z" fill="#DEDEDE"/>
<path d="M96.8413 34.5152H95.788V28.6392H100.438V34.5152H99.3879V29.5257H96.8413V34.5152Z" fill="#DEDEDE"/>
<path d="M112.068 32.3869L111.195 29.7751L110.318 32.3869H112.068ZM109.62 34.5152H108.496L110.661 28.6392H111.722L113.89 34.5152H112.759L112.348 33.279H110.046L109.62 34.5152Z" fill="#DEDEDE"/>
<path d="M134.614 28.6392H135.865L133.316 31.3486L136.077 34.5152H134.745L132.31 31.4691V34.5152H131.249V28.6392H132.31V31.2743L134.614 28.6392Z" fill="#DEDEDE"/>
<path d="M146.617 33.8025C148.048 33.8025 148.318 32.4854 148.318 31.5741C148.318 30.6653 148.048 29.3483 146.617 29.3483C145.201 29.3483 144.938 30.6653 144.938 31.5741C144.938 32.4854 145.201 33.8025 146.617 33.8025ZM146.617 28.4618C147.122 28.4618 149.44 28.5243 149.44 31.5741C149.44 34.6203 147.122 34.6918 146.617 34.6918C146.122 34.6918 143.805 34.6203 143.805 31.5741C143.805 28.5243 146.122 28.4618 146.617 28.4618Z" fill="#DEDEDE"/>
<path d="M158.95 29.8596H158.932L158.95 30.0867V34.5152H157.903V28.6392H159.474L161.04 33.0944L162.611 28.6392H164.176V34.5152H163.125V30.0867L163.138 29.8596H163.125L161.443 34.5152H160.643L158.95 29.8596Z" fill="#DEDEDE"/>
<path d="M174.02 34.5152H172.969V28.6392H177.616V34.5152H176.569V29.5257H174.02V34.5152Z" fill="#DEDEDE"/>
<path d="M189.252 32.3869L188.376 29.7751L187.509 32.3869H189.252ZM186.817 34.5152H185.685L187.858 28.6392H188.903L191.071 34.5152H189.948L189.531 33.279H187.227L186.817 34.5152Z" fill="#DEDEDE"/>
<path d="M200.178 34.5152H199.124V28.6392H200.178V30.9853H202.746V28.6392H203.797V34.5152H202.746V31.8746H200.178V34.5152Z" fill="#DEDEDE"/>
<path d="M216.37 28.6392H217.396V34.5152H216.349V30.21L213.615 34.5152H212.593V28.6392H213.637V32.9352L216.37 28.6392Z" fill="#DEDEDE"/>
<path d="M227.721 27.0985C227.769 27.5498 228.147 27.7836 228.598 27.7836C229.055 27.7836 229.435 27.5498 229.48 27.0985H230.324C230.2 27.8183 229.62 28.3867 228.598 28.3867C227.582 28.3867 227 27.8183 226.877 27.0985H227.721ZM229.975 28.6426H231V34.5186H229.953V30.2133L227.217 34.5186H226.194V28.6426H227.239V32.9386L229.975 28.6426Z" fill="#DEDEDE"/>
</svg>
