<svg width="334" height="99" viewBox="0 0 334 99" fill="none" xmlns="http://www.w3.org/2000/svg">
<g clip-path="url(#clip0_501_5594)">
<path d="M27.5991 14.3921C31.9344 25.6469 24.8741 32.8668 17.8476 40.1037C11.2941 47.4929 5.52984 55.1719 17.1244 69.0007C12.796 57.752 19.861 50.5263 26.8865 43.3074C33.4333 35.8917 39.2042 28.2249 27.5991 14.3921Z" fill="#EB1E3D"/>
<path d="M17.1239 0C21.4629 11.2531 14.398 18.4747 7.3655 25.7086C0.818618 33.0991 -4.94529 40.7839 6.65987 54.613C2.3235 43.3538 9.38483 36.1311 16.4223 28.9055C22.9678 21.5078 28.7181 13.8261 17.1239 0Z" fill="#00C277"/>
<path d="M202.605 44.3132V67.5831H212.461V59.0687H223.399V53.9667H212.461V49.4071H234.191V67.5831H244.044V49.4071H252.999V44.3132H202.605Z" fill="#DEDEDE"/>
<path d="M181.262 62.5358V58.5026H194.254V53.4019H181.262V49.4071H197.938V44.3132H171.416V67.5831H198.145V62.5358H181.262Z" fill="#DEDEDE"/>
<path d="M132.333 44.3132H105.393V49.4071H114.206V67.5831H124.059V49.4071H132.333V44.3132Z" fill="#DEDEDE"/>
<path d="M76.584 44.3132H49.0117V49.4071H57.8348V67.5831H67.6769V49.4071H76.584V44.3132Z" fill="#DEDEDE"/>
<path d="M84.2651 58.7659L88.8537 49.7602L93.2409 58.7659H84.2651ZM96.3326 44.3132H85.7039L73.3311 67.5831H79.7691L81.8073 63.5822H95.7026L97.7329 67.5831H108.705L96.3326 44.3132Z" fill="#DEDEDE"/>
<path d="M159.251 44.3132V55.9425L143.398 44.3132H135.693V67.5831H142.48V54.7793L158.768 67.5831H166.034V44.3132H159.251Z" fill="#DEDEDE"/>
<path d="M50.4235 37.8687H49.2764V31.4219H53.4027V32.3945H50.4235V37.8687Z" fill="#DEDEDE"/>
<path d="M63.528 34.5124H64.8702C65.3986 34.5124 66.1454 34.4339 66.1454 33.4762C66.1454 32.4441 65.3216 32.3945 64.8802 32.3945H63.528V34.5124ZM64.8872 31.4219C65.8746 31.4219 67.335 31.5751 67.335 33.4127C67.335 34.5831 66.6984 35.4874 64.8802 35.4874H63.528V37.8687H62.377V31.4219H64.8872Z" fill="#DEDEDE"/>
<path d="M80.1587 31.4219H81.3688L79.2483 36.6123C78.7268 37.9292 78.0242 37.9543 77.4712 37.9543C77.1768 37.9543 76.9568 37.9434 76.6544 37.8615V36.8366C76.8525 36.9011 77.0723 36.9432 77.3116 36.9432C77.7149 36.9432 78.0627 36.8192 78.2054 36.1715L75.8027 31.4219H77.221L78.8244 34.9001L80.1587 31.4219Z" fill="#DEDEDE"/>
<path d="M91.3478 37.8687H90.1831V31.4219H95.2869V37.8687H94.1328V32.3945H91.3478V37.8687Z" fill="#DEDEDE"/>
<path d="M106.064 37.8687H104.911V31.4219H110.003V37.8687H108.853V32.3945H106.064V37.8687Z" fill="#DEDEDE"/>
<path d="M122.741 35.5336L121.785 32.6681L120.825 35.5336H122.741ZM120.06 37.8687H118.829L121.2 31.4219H122.362L124.736 37.8687H123.498L123.047 36.5123H120.526L120.06 37.8687Z" fill="#DEDEDE"/>
<path d="M147.434 31.4219H148.804L146.012 34.3944L149.037 37.8687H147.577L144.911 34.5267V37.8687H143.749V31.4219H144.911V34.3129L147.434 31.4219Z" fill="#DEDEDE"/>
<path d="M160.58 37.0857C162.148 37.0857 162.443 35.6407 162.443 34.6409C162.443 33.6438 162.148 32.1988 160.58 32.1988C159.03 32.1988 158.741 33.6438 158.741 34.6409C158.741 35.6407 159.03 37.0857 160.58 37.0857ZM160.58 31.2262C161.133 31.2262 163.671 31.2948 163.671 34.6409C163.671 37.9829 161.133 38.0614 160.58 38.0614C160.038 38.0614 157.5 37.9829 157.5 34.6409C157.5 31.2948 160.038 31.2262 160.58 31.2262Z" fill="#DEDEDE"/>
<path d="M174.088 32.7609H174.068L174.088 33.01V37.8687H172.941V31.4219H174.662L176.377 36.3098L178.098 31.4219H179.811V37.8687H178.66V33.01L178.675 32.7609H178.66L176.818 37.8687H175.942L174.088 32.7609Z" fill="#DEDEDE"/>
<path d="M190.593 37.8687H189.442V31.4219H194.532V37.8687H193.385V32.3945H190.593V37.8687Z" fill="#DEDEDE"/>
<path d="M207.276 35.5336L206.316 32.6681L205.367 35.5336H207.276ZM204.609 37.8687H203.369L205.749 31.4219H206.893L209.268 37.8687H208.038L207.582 36.5123H205.058L204.609 37.8687Z" fill="#DEDEDE"/>
<path d="M219.243 37.8687H218.088V31.4219H219.243V33.9958H222.055V31.4219H223.206V37.8687H222.055V34.9715H219.243V37.8687Z" fill="#DEDEDE"/>
<path d="M236.977 31.4219H238.1V37.8687H236.953V33.1452L233.959 37.8687H232.839V31.4219H233.983V36.1351L236.977 31.4219Z" fill="#DEDEDE"/>
<path d="M249.409 29.7314C249.461 30.2266 249.875 30.4831 250.368 30.4831C250.869 30.4831 251.286 30.2266 251.335 29.7314H252.26C252.124 30.5212 251.488 31.1448 250.368 31.1448C249.256 31.1448 248.619 30.5212 248.484 29.7314H249.409ZM251.877 31.4255H253V37.8723H251.853V33.1489L248.856 37.8723H247.736V31.4255H248.88V36.1388L251.877 31.4255Z" fill="#DEDEDE"/>
</g>
<path d="M54.768 98.1546C53.9233 98.1546 53.1836 98.0193 52.549 97.7486C51.9143 97.4733 51.3846 97.0976 50.96 96.6216C50.54 96.1409 50.225 95.5903 50.015 94.9696C49.805 94.3489 49.7 93.6933 49.7 93.0026C49.7 92.0319 49.896 91.1569 50.288 90.3776C50.6846 89.5983 51.2563 88.9799 52.003 88.5226C52.7496 88.0653 53.6573 87.8366 54.726 87.8366C55.538 87.8366 56.2543 87.9696 56.875 88.2356C57.5003 88.5016 58.0253 88.8703 58.45 89.3416C58.8746 89.8129 59.1943 90.3613 59.409 90.9866C59.6236 91.6119 59.731 92.2816 59.731 92.9956C59.731 93.9803 59.535 94.8623 59.143 95.6416C58.751 96.4163 58.184 97.0299 57.442 97.4826C56.7 97.9306 55.8086 98.1546 54.768 98.1546ZM54.733 97.0626C55.3723 97.0626 55.923 96.9529 56.385 96.7336C56.847 96.5096 57.2273 96.2063 57.526 95.8236C57.8293 95.4409 58.0533 95.0069 58.198 94.5216C58.3426 94.0316 58.415 93.5229 58.415 92.9956C58.415 92.4263 58.3356 91.8966 58.177 91.4066C58.023 90.9119 57.7896 90.4803 57.477 90.1116C57.169 89.7383 56.7863 89.4489 56.329 89.2436C55.8716 89.0336 55.3396 88.9286 54.733 88.9286C54.1076 88.9286 53.5616 89.0383 53.095 89.2576C52.633 89.4769 52.248 89.7779 51.94 90.1606C51.632 90.5386 51.401 90.9726 51.247 91.4626C51.093 91.9479 51.016 92.4589 51.016 92.9956C51.016 93.5369 51.0906 94.0503 51.24 94.5356C51.3893 95.0209 51.6156 95.4549 51.919 95.8376C52.227 96.2156 52.6143 96.5143 53.081 96.7336C53.5476 96.9529 54.0983 97.0626 54.733 97.0626Z" fill="#DEDEDE"/>
<path d="M66.7713 98.1546C65.9266 98.1546 65.187 98.0193 64.5523 97.7486C63.9176 97.4733 63.388 97.0976 62.9633 96.6216C62.5433 96.1409 62.2283 95.5903 62.0183 94.9696C61.8083 94.3489 61.7033 93.6933 61.7033 93.0026C61.7033 92.0319 61.8993 91.1569 62.2913 90.3776C62.688 89.5983 63.2596 88.9799 64.0063 88.5226C64.753 88.0653 65.6606 87.8366 66.7293 87.8366C67.5413 87.8366 68.2576 87.9696 68.8783 88.2356C69.5036 88.5016 70.0286 88.8703 70.4533 89.3416C70.878 89.8129 71.1976 90.3613 71.4123 90.9866C71.627 91.6119 71.7343 92.2816 71.7343 92.9956C71.7343 93.9803 71.5383 94.8623 71.1463 95.6416C70.7543 96.4163 70.1873 97.0299 69.4453 97.4826C68.7033 97.9306 67.812 98.1546 66.7713 98.1546ZM66.7363 97.0626C67.3756 97.0626 67.9263 96.9529 68.3883 96.7336C68.8503 96.5096 69.2306 96.2063 69.5293 95.8236C69.8326 95.4409 70.0566 95.0069 70.2013 94.5216C70.346 94.0316 70.4183 93.5229 70.4183 92.9956C70.4183 92.4263 70.339 91.8966 70.1803 91.4066C70.0263 90.9119 69.793 90.4803 69.4803 90.1116C69.1723 89.7383 68.7896 89.4489 68.3323 89.2436C67.875 89.0336 67.343 88.9286 66.7363 88.9286C66.111 88.9286 65.565 89.0383 65.0983 89.2576C64.6363 89.4769 64.2513 89.7779 63.9433 90.1606C63.6353 90.5386 63.4043 90.9726 63.2503 91.4626C63.0963 91.9479 63.0193 92.4589 63.0193 92.9956C63.0193 93.5369 63.094 94.0503 63.2433 94.5356C63.3926 95.0209 63.619 95.4549 63.9223 95.8376C64.2303 96.2156 64.6176 96.5143 65.0843 96.7336C65.551 96.9529 66.1016 97.0626 66.7363 97.0626Z" fill="#DEDEDE"/>
<path d="M78.7747 98.1546C77.93 98.1546 77.1903 98.0193 76.5557 97.7486C75.921 97.4733 75.3913 97.0976 74.9667 96.6216C74.5467 96.1409 74.2317 95.5903 74.0217 94.9696C73.8117 94.3489 73.7067 93.6933 73.7067 93.0026C73.7067 92.0319 73.9027 91.1569 74.2947 90.3776C74.6913 89.5983 75.263 88.9799 76.0097 88.5226C76.7563 88.0653 77.664 87.8366 78.7327 87.8366C79.5447 87.8366 80.261 87.9696 80.8817 88.2356C81.507 88.5016 82.032 88.8703 82.4567 89.3416C82.8813 89.8129 83.201 90.3613 83.4157 90.9866C83.6303 91.6119 83.7377 92.2816 83.7377 92.9956C83.7377 93.9803 83.5417 94.8623 83.1497 95.6416C82.7577 96.4163 82.1907 97.0299 81.4487 97.4826C80.7067 97.9306 79.8153 98.1546 78.7747 98.1546ZM78.7397 97.0626C79.379 97.0626 79.9297 96.9529 80.3917 96.7336C80.8537 96.5096 81.234 96.2063 81.5327 95.8236C81.836 95.4409 82.06 95.0069 82.2047 94.5216C82.3493 94.0316 82.4217 93.5229 82.4217 92.9956C82.4217 92.4263 82.3423 91.8966 82.1837 91.4066C82.0297 90.9119 81.7963 90.4803 81.4837 90.1116C81.1757 89.7383 80.793 89.4489 80.3357 89.2436C79.8783 89.0336 79.3463 88.9286 78.7397 88.9286C78.1143 88.9286 77.5683 89.0383 77.1017 89.2576C76.6397 89.4769 76.2547 89.7779 75.9467 90.1606C75.6387 90.5386 75.4077 90.9726 75.2537 91.4626C75.0997 91.9479 75.0227 92.4589 75.0227 92.9956C75.0227 93.5369 75.0973 94.0503 75.2467 94.5356C75.396 95.0209 75.6223 95.4549 75.9257 95.8376C76.2337 96.2156 76.621 96.5143 77.0877 96.7336C77.5543 96.9529 78.105 97.0626 78.7397 97.0626Z" fill="#DEDEDE"/>
<path d="M94.5077 98.0286C94.069 97.4359 93.6304 96.8456 93.1917 96.2576C92.7577 95.6649 92.3214 95.0746 91.8827 94.4866C92.3214 93.8939 92.7577 93.3036 93.1917 92.7156C93.6304 92.1229 94.069 91.5303 94.5077 90.9376L95.6837 91.0076C95.2591 91.5769 94.8344 92.1486 94.4097 92.7226C93.9897 93.2919 93.5674 93.8636 93.1427 94.4376V94.5566C93.5674 95.1259 93.9897 95.6953 94.4097 96.2646C94.8344 96.8293 95.2591 97.3963 95.6837 97.9656L94.5077 98.0286ZM91.2877 98.0286C90.849 97.4359 90.4104 96.8456 89.9717 96.2576C89.5377 95.6649 89.1014 95.0746 88.6627 94.4866C89.1014 93.8939 89.5377 93.3036 89.9717 92.7156C90.4104 92.1229 90.849 91.5303 91.2877 90.9376L92.4637 91.0076C92.0391 91.5769 91.6144 92.1486 91.1897 92.7226C90.7697 93.2919 90.3474 93.8636 89.9227 94.4376V94.5566C90.3474 95.1259 90.7697 95.6953 91.1897 96.2646C91.6144 96.8293 92.0391 97.3963 92.4637 97.9656L91.2877 98.0286Z" fill="#DEDEDE"/>
<path d="M100.309 98.0006C100.309 97.4453 100.309 96.9109 100.309 96.3976C100.309 95.8843 100.309 95.3196 100.309 94.7036V91.5396C100.309 90.9143 100.309 90.3426 100.309 89.8246C100.309 89.3019 100.309 88.7606 100.309 88.2006L100.813 89.1456H99.6303C99.0656 89.1456 98.564 89.1456 98.1253 89.1456C97.6913 89.1456 97.2783 89.1456 96.8863 89.1456V88.0186H104.992V89.1456C104.6 89.1456 104.187 89.1456 103.753 89.1456C103.319 89.1456 102.818 89.1456 102.248 89.1456H101.065L101.576 88.2006C101.576 88.7606 101.576 89.3019 101.576 89.8246C101.576 90.3426 101.576 90.9143 101.576 91.5396V94.7036C101.576 95.3196 101.576 95.8843 101.576 96.3976C101.576 96.9109 101.576 97.4453 101.576 98.0006H100.309Z" fill="#DEDEDE"/>
<path d="M105.164 98.0006C105.36 97.4639 105.563 96.8993 105.773 96.3066C105.987 95.7139 106.193 95.1516 106.389 94.6196L107.628 91.1896C107.847 90.5736 108.048 90.0183 108.23 89.5236C108.412 89.0243 108.594 88.5226 108.776 88.0186H110.442C110.624 88.5319 110.803 89.0359 110.981 89.5306C111.158 90.0253 111.356 90.5806 111.576 91.1966L112.808 94.6336C113.004 95.1843 113.204 95.7513 113.41 96.3346C113.62 96.9133 113.82 97.4686 114.012 98.0006H112.696C112.495 97.4173 112.287 96.8176 112.073 96.2016C111.863 95.5809 111.664 94.9976 111.478 94.4516L109.658 89.1596H109.539L107.705 94.4026C107.504 94.9719 107.296 95.5693 107.082 96.1946C106.867 96.8153 106.655 97.4173 106.445 98.0006H105.164ZM107.012 95.4946L107.124 94.5006H112.178L112.269 95.4946H107.012Z" fill="#DEDEDE"/>
<path d="M117.603 98.0006C117.603 97.4453 117.603 96.9109 117.603 96.3976C117.603 95.8843 117.603 95.3196 117.603 94.7036V91.5396C117.603 90.9143 117.603 90.3426 117.603 89.8246C117.603 89.3019 117.603 88.7606 117.603 88.2006L118.107 89.1456H116.924C116.359 89.1456 115.858 89.1456 115.419 89.1456C114.985 89.1456 114.572 89.1456 114.18 89.1456V88.0186H122.286V89.1456C121.894 89.1456 121.481 89.1456 121.047 89.1456C120.613 89.1456 120.111 89.1456 119.542 89.1456H118.359L118.87 88.2006C118.87 88.7606 118.87 89.3019 118.87 89.8246C118.87 90.3426 118.87 90.9143 118.87 91.5396V94.7036C118.87 95.3196 118.87 95.8843 118.87 96.3976C118.87 96.9109 118.87 97.4453 118.87 98.0006H117.603Z" fill="#DEDEDE"/>
<path d="M131.206 98.0006C131.206 97.4453 131.206 96.9109 131.206 96.3976C131.206 95.8843 131.206 95.3196 131.206 94.7036V91.3576C131.206 90.7276 131.206 90.1536 131.206 89.6356C131.206 89.1129 131.206 88.5739 131.206 88.0186H132.473C132.473 88.5739 132.473 89.1129 132.473 89.6356C132.473 90.1536 132.473 90.7276 132.473 91.3576V94.7036C132.473 95.3196 132.473 95.8843 132.473 96.3976C132.473 96.9109 132.473 97.4453 132.473 98.0006H131.206ZM124.57 98.0006C124.57 97.4453 124.57 96.9109 124.57 96.3976C124.57 95.8843 124.57 95.3196 124.57 94.7036V91.3576C124.57 90.7276 124.57 90.1536 124.57 89.6356C124.57 89.1129 124.57 88.5739 124.57 88.0186H125.837C125.837 88.5739 125.837 89.1129 125.837 89.6356C125.837 90.1536 125.837 90.7276 125.837 91.3576V94.7036C125.837 95.3196 125.837 95.8843 125.837 96.3976C125.837 96.9109 125.837 97.4453 125.837 98.0006H124.57ZM125.396 93.4926V92.4006H131.689V93.4926H125.396Z" fill="#DEDEDE"/>
<path d="M135.616 98.0006C135.616 97.4453 135.616 96.9109 135.616 96.3976C135.616 95.8843 135.616 95.3196 135.616 94.7036V91.3506C135.616 90.7299 135.616 90.1583 135.616 89.6356C135.616 89.1129 135.616 88.5739 135.616 88.0186H141.818V89.1036C141.352 89.1036 140.85 89.1036 140.313 89.1036C139.781 89.1036 139.151 89.1036 138.423 89.1036H136.155L136.855 88.2006C136.855 88.7606 136.855 89.3019 136.855 89.8246C136.855 90.3426 136.855 90.9119 136.855 91.5326V94.5146C136.855 95.1259 136.855 95.6906 136.855 96.2086C136.855 96.7219 136.855 97.2563 136.855 97.8116L136.225 96.9156H138.535C139.147 96.9156 139.723 96.9156 140.264 96.9156C140.81 96.9156 141.333 96.9156 141.832 96.9156V98.0006H135.616ZM136.582 93.4716V92.4146H138.521C139.165 92.4146 139.721 92.4146 140.187 92.4146C140.654 92.4146 141.104 92.4146 141.538 92.4146V93.4716C141.081 93.4716 140.619 93.4716 140.152 93.4716C139.69 93.4716 139.144 93.4716 138.514 93.4716H136.582Z" fill="#DEDEDE"/>
<path d="M149.249 97.1256L149.263 96.1036H149.732C150.553 96.1036 151.22 95.9869 151.734 95.7536C152.252 95.5203 152.634 95.1773 152.882 94.7246C153.129 94.2673 153.253 93.7003 153.253 93.0236C153.253 92.3376 153.131 91.7659 152.889 91.3086C152.646 90.8466 152.27 90.4989 151.762 90.2656C151.258 90.0323 150.604 89.9156 149.802 89.9156H149.333L149.319 88.8936H149.816C150.95 88.8936 151.864 89.0686 152.56 89.4186C153.255 89.7686 153.761 90.2539 154.079 90.8746C154.401 91.4906 154.562 92.2069 154.562 93.0236C154.562 93.8076 154.403 94.5099 154.086 95.1306C153.773 95.7466 153.262 96.2343 152.553 96.5936C151.848 96.9483 150.903 97.1256 149.718 97.1256H149.249ZM148.626 97.1256C147.734 97.1256 146.981 97.0229 146.365 96.8176C145.749 96.6123 145.249 96.3253 144.867 95.9566C144.489 95.5833 144.213 95.1493 144.041 94.6546C143.868 94.1553 143.782 93.6116 143.782 93.0236C143.782 92.2069 143.94 91.4906 144.258 90.8746C144.575 90.2539 145.081 89.7686 145.777 89.4186C146.477 89.0686 147.394 88.8936 148.528 88.8936H149.018L149.004 89.9156H148.535C147.741 89.9156 147.09 90.0323 146.582 90.2656C146.073 90.4989 145.697 90.8466 145.455 91.3086C145.212 91.7659 145.091 92.3376 145.091 93.0236C145.091 93.7003 145.212 94.2673 145.455 94.7246C145.702 95.1773 146.085 95.5203 146.603 95.7536C147.121 95.9869 147.788 96.1036 148.605 96.1036H149.074L149.088 97.1256H148.626ZM148.535 98.2946C148.535 98.0379 148.535 97.7953 148.535 97.5666C148.535 97.3379 148.535 97.1046 148.535 96.8666L148.563 96.8386C148.563 96.5166 148.563 96.1876 148.563 95.8516C148.563 95.5109 148.563 95.1563 148.563 94.7876V91.2316C148.563 90.8629 148.563 90.5106 148.563 90.1746C148.563 89.8339 148.563 89.5026 148.563 89.1806L148.535 89.1526C148.535 88.9146 148.535 88.6813 148.535 88.4526C148.535 88.2193 148.535 87.9766 148.535 87.7246H149.802C149.802 87.9766 149.802 88.2193 149.802 88.4526C149.802 88.6813 149.802 88.9146 149.802 89.1526L149.774 89.1806C149.774 89.5026 149.774 89.8339 149.774 90.1746C149.774 90.5106 149.774 90.8629 149.774 91.2316V94.7876C149.774 95.1563 149.774 95.5086 149.774 95.8446C149.774 96.1806 149.774 96.5119 149.774 96.8386L149.802 96.8666C149.802 97.0999 149.802 97.3333 149.802 97.5666C149.802 97.7953 149.802 98.0379 149.802 98.2946H148.535Z" fill="#DEDEDE"/>
<path d="M159.013 98.0006C159.013 97.4453 159.013 96.9109 159.013 96.3976C159.013 95.8843 159.013 95.3196 159.013 94.7036V91.5396C159.013 90.9143 159.013 90.3426 159.013 89.8246C159.013 89.3019 159.013 88.7606 159.013 88.2006L159.517 89.1456H158.334C157.769 89.1456 157.268 89.1456 156.829 89.1456C156.395 89.1456 155.982 89.1456 155.59 89.1456V88.0186H163.696V89.1456C163.304 89.1456 162.891 89.1456 162.457 89.1456C162.023 89.1456 161.521 89.1456 160.952 89.1456H159.769L160.28 88.2006C160.28 88.7606 160.28 89.3019 160.28 89.8246C160.28 90.3426 160.28 90.9143 160.28 91.5396V94.7036C160.28 95.3196 160.28 95.8843 160.28 96.3976C160.28 96.9109 160.28 97.4453 160.28 98.0006H159.013Z" fill="#DEDEDE"/>
<path d="M169.207 98.0006C168.563 98.0006 167.979 98.0006 167.457 98.0006C166.939 98.0006 166.446 98.0006 165.98 98.0006C165.98 97.4453 165.98 96.9109 165.98 96.3976C165.98 95.8843 165.98 95.3196 165.98 94.7036V91.3576C165.98 90.7323 165.98 90.1583 165.98 89.6356C165.98 89.1129 165.98 88.5739 165.98 88.0186H167.226C167.226 88.5739 167.226 89.1129 167.226 89.6356C167.226 90.1583 167.226 90.7323 167.226 91.3576V94.5076C167.226 94.9463 167.226 95.3616 167.226 95.7536C167.226 96.1409 167.226 96.5399 167.226 96.9506H169.004C169.601 96.9506 170.089 96.8806 170.467 96.7406C170.849 96.5959 171.132 96.3696 171.314 96.0616C171.496 95.7536 171.587 95.3476 171.587 94.8436C171.587 94.4236 171.519 94.0923 171.384 93.8496C171.253 93.6023 171.08 93.4179 170.866 93.2966C170.651 93.1753 170.415 93.0959 170.159 93.0586C169.907 93.0166 169.664 92.9956 169.431 92.9956H167.065V91.9456C167.354 91.9456 167.704 91.9456 168.115 91.9456C168.525 91.9456 168.99 91.9456 169.508 91.9456C170.268 91.9456 170.896 92.0459 171.391 92.2466C171.89 92.4473 172.263 92.7623 172.511 93.1916C172.758 93.6163 172.882 94.1669 172.882 94.8436C172.882 95.4549 172.767 95.9986 172.539 96.4746C172.315 96.9506 171.934 97.3239 171.398 97.5946C170.866 97.8653 170.135 98.0006 169.207 98.0006Z" fill="#DEDEDE"/>
<path d="M178.13 94.3536V93.3176C178.512 93.3176 178.879 93.3176 179.229 93.3176C179.583 93.3176 179.915 93.3176 180.223 93.3176C180.531 93.3176 180.862 93.3176 181.217 93.3176C181.571 93.3176 181.938 93.3176 182.316 93.3176V94.3536C181.938 94.3536 181.571 94.3536 181.217 94.3536C180.862 94.3536 180.531 94.3536 180.223 94.3536C179.915 94.3536 179.583 94.3536 179.229 94.3536C178.879 94.3536 178.512 94.3536 178.13 94.3536Z" fill="#DEDEDE"/>
<path d="M188.276 98.0006C188.276 97.4453 188.276 96.9109 188.276 96.3976C188.276 95.8843 188.276 95.3196 188.276 94.7036V91.3576C188.276 90.7276 188.276 90.1536 188.276 89.6356C188.276 89.1129 188.276 88.5739 188.276 88.0186H196.137C196.137 88.5739 196.137 89.1129 196.137 89.6356C196.137 90.1536 196.137 90.7276 196.137 91.3576V94.7036C196.137 95.3196 196.137 95.8843 196.137 96.3976C196.137 96.9109 196.137 97.4453 196.137 98.0006H194.87C194.87 97.4453 194.87 96.9109 194.87 96.3976C194.87 95.8843 194.87 95.3196 194.87 94.7036V91.5396C194.87 90.9143 194.87 90.3426 194.87 89.8246C194.87 89.3019 194.87 88.7606 194.87 88.2006L195.325 89.1106H189.095L189.543 88.2006C189.543 88.7606 189.543 89.3019 189.543 89.8246C189.543 90.3426 189.543 90.9143 189.543 91.5396V94.7036C189.543 95.3196 189.543 95.8843 189.543 96.3976C189.543 96.9109 189.543 97.4453 189.543 98.0006H188.276Z" fill="#DEDEDE"/>
<path d="M199.282 98.0006C199.282 97.4453 199.282 96.9109 199.282 96.3976C199.282 95.8843 199.282 95.3196 199.282 94.7036V91.3506C199.282 90.7299 199.282 90.1583 199.282 89.6356C199.282 89.1129 199.282 88.5739 199.282 88.0186C199.66 88.0186 200.147 88.0186 200.745 88.0186C201.347 88.0186 202.035 88.0186 202.81 88.0186C203.57 88.0186 204.198 88.1189 204.693 88.3196C205.192 88.5203 205.565 88.8329 205.813 89.2576C206.06 89.6776 206.184 90.2166 206.184 90.8746C206.184 91.4859 206.069 92.0296 205.841 92.5056C205.617 92.9769 205.239 93.3479 204.707 93.6186C204.179 93.8893 203.458 94.0246 202.544 94.0246C202.31 94.0246 202.061 94.0246 201.795 94.0246C201.529 94.0246 201.27 94.0246 201.018 94.0246C200.766 94.0246 200.546 94.0246 200.36 94.0246V92.9746H202.306C202.903 92.9746 203.391 92.9046 203.769 92.7646C204.151 92.6246 204.434 92.4006 204.616 92.0926C204.798 91.7846 204.889 91.3809 204.889 90.8816C204.889 90.4709 204.821 90.1443 204.686 89.9016C204.555 89.6589 204.38 89.4793 204.161 89.3626C203.946 89.2413 203.713 89.1619 203.461 89.1246C203.209 89.0873 202.964 89.0686 202.726 89.0686H199.912L200.528 88.2006C200.528 88.7606 200.528 89.3019 200.528 89.8246C200.528 90.3426 200.528 90.9119 200.528 91.5326V94.7036C200.528 95.3196 200.528 95.8843 200.528 96.3976C200.528 96.9109 200.528 97.4453 200.528 98.0006H199.282Z" fill="#DEDEDE"/>
<path d="M208.619 98.0006C208.619 97.4453 208.619 96.9109 208.619 96.3976C208.619 95.8843 208.619 95.3196 208.619 94.7036V91.3506C208.619 90.7299 208.619 90.1583 208.619 89.6356C208.619 89.1129 208.619 88.5739 208.619 88.0186H214.821V89.1036C214.354 89.1036 213.853 89.1036 213.316 89.1036C212.784 89.1036 212.154 89.1036 211.426 89.1036H209.158L209.858 88.2006C209.858 88.7606 209.858 89.3019 209.858 89.8246C209.858 90.3426 209.858 90.9119 209.858 91.5326V94.5146C209.858 95.1259 209.858 95.6906 209.858 96.2086C209.858 96.7219 209.858 97.2563 209.858 97.8116L209.228 96.9156H211.538C212.149 96.9156 212.726 96.9156 213.267 96.9156C213.813 96.9156 214.336 96.9156 214.835 96.9156V98.0006H208.619ZM209.585 93.4716V92.4146H211.524C212.168 92.4146 212.723 92.4146 213.19 92.4146C213.657 92.4146 214.107 92.4146 214.541 92.4146V93.4716C214.084 93.4716 213.622 93.4716 213.155 93.4716C212.693 93.4716 212.147 93.4716 211.517 93.4716H209.585Z" fill="#DEDEDE"/>
<path d="M222.014 98.1546C221.225 98.1546 220.513 98.0263 219.879 97.7696C219.249 97.5129 218.712 97.1536 218.269 96.6916C217.825 96.2249 217.485 95.6789 217.247 95.0536C217.013 94.4236 216.897 93.7376 216.897 92.9956C216.897 91.9876 217.104 91.0963 217.52 90.3216C217.935 89.5423 218.511 88.9333 219.249 88.4946C219.986 88.0559 220.845 87.8366 221.825 87.8366C222.156 87.8366 222.478 87.8599 222.791 87.9066C223.103 87.9533 223.4 88.0163 223.68 88.0956C223.96 88.1749 224.219 88.2613 224.457 88.3546C224.695 88.4479 224.9 88.5436 225.073 88.6416L224.961 89.8596C224.597 89.6449 224.242 89.4723 223.897 89.3416C223.556 89.2063 223.22 89.1083 222.889 89.0476C222.562 88.9869 222.242 88.9566 221.93 88.9566C221.211 88.9566 220.572 89.1199 220.012 89.4466C219.452 89.7733 219.011 90.2399 218.689 90.8466C218.371 91.4486 218.213 92.1673 218.213 93.0026C218.213 93.5579 218.294 94.0806 218.458 94.5706C218.626 95.0606 218.873 95.4923 219.2 95.8656C219.531 96.2389 219.939 96.5329 220.425 96.7476C220.915 96.9576 221.484 97.0626 222.133 97.0626C222.371 97.0626 222.609 97.0486 222.847 97.0206C223.085 96.9879 223.32 96.9389 223.554 96.8736C223.787 96.8083 224.016 96.7219 224.24 96.6146C224.468 96.5026 224.692 96.3719 224.912 96.2226L225.01 97.4266C224.814 97.5526 224.597 97.6623 224.359 97.7556C224.125 97.8489 223.878 97.9259 223.617 97.9866C223.36 98.0426 223.096 98.0846 222.826 98.1126C222.555 98.1406 222.284 98.1546 222.014 98.1546Z" fill="#DEDEDE"/>
<path d="M232.158 98.1546C231.369 98.1546 230.657 98.0263 230.023 97.7696C229.393 97.5129 228.856 97.1536 228.413 96.6916C227.969 96.2249 227.629 95.6789 227.391 95.0536C227.157 94.4236 227.041 93.7376 227.041 92.9956C227.041 91.9876 227.248 91.0963 227.664 90.3216C228.079 89.5423 228.655 88.9333 229.393 88.4946C230.13 88.0559 230.989 87.8366 231.969 87.8366C232.3 87.8366 232.622 87.8599 232.935 87.9066C233.247 87.9533 233.544 88.0163 233.824 88.0956C234.104 88.1749 234.363 88.2613 234.601 88.3546C234.839 88.4479 235.044 88.5436 235.217 88.6416L235.105 89.8596C234.741 89.6449 234.386 89.4723 234.041 89.3416C233.7 89.2063 233.364 89.1083 233.033 89.0476C232.706 88.9869 232.386 88.9566 232.074 88.9566C231.355 88.9566 230.716 89.1199 230.156 89.4466C229.596 89.7733 229.155 90.2399 228.833 90.8466C228.515 91.4486 228.357 92.1673 228.357 93.0026C228.357 93.5579 228.438 94.0806 228.602 94.5706C228.77 95.0606 229.017 95.4923 229.344 95.8656C229.675 96.2389 230.083 96.5329 230.569 96.7476C231.059 96.9576 231.628 97.0626 232.277 97.0626C232.515 97.0626 232.753 97.0486 232.991 97.0206C233.229 96.9879 233.464 96.9389 233.698 96.8736C233.931 96.8083 234.16 96.7219 234.384 96.6146C234.612 96.5026 234.836 96.3719 235.056 96.2226L235.154 97.4266C234.958 97.5526 234.741 97.6623 234.503 97.7556C234.269 97.8489 234.022 97.9259 233.761 97.9866C233.504 98.0426 233.24 98.0846 232.97 98.1126C232.699 98.1406 232.428 98.1546 232.158 98.1546Z" fill="#DEDEDE"/>
<path d="M243.87 98.0006C243.426 97.5199 243.009 97.0696 242.617 96.6496C242.229 96.2249 241.851 95.8119 241.483 95.4106L239.586 93.3596H238.9V92.3166H239.579L241.224 90.6016C241.611 90.2003 241.994 89.8013 242.372 89.4046C242.75 89.0079 243.188 88.5459 243.688 88.0186H245.228C244.714 88.5459 244.213 89.0639 243.723 89.5726C243.237 90.0766 242.752 90.5806 242.267 91.0846L240.419 93.0096L240.398 92.4496L242.449 94.7106C242.771 95.0559 243.111 95.4293 243.471 95.8306C243.835 96.2319 244.192 96.6216 244.542 96.9996C244.892 97.3776 245.197 97.7113 245.459 98.0006H243.87ZM237.78 98.0006C237.78 97.4453 237.78 96.9109 237.78 96.3976C237.78 95.8843 237.78 95.3196 237.78 94.7036V91.3576C237.78 90.7276 237.78 90.1536 237.78 89.6356C237.78 89.1129 237.78 88.5739 237.78 88.0186H239.047C239.047 88.5739 239.047 89.1129 239.047 89.6356C239.047 90.1536 239.047 90.7276 239.047 91.3576V94.7036C239.047 95.3196 239.047 95.8843 239.047 96.3976C239.047 96.9109 239.047 97.4453 239.047 98.0006H237.78Z" fill="#DEDEDE"/>
<path d="M251.727 98.1546C250.882 98.1546 250.142 98.0193 249.508 97.7486C248.873 97.4733 248.343 97.0976 247.919 96.6216C247.499 96.1409 247.184 95.5903 246.974 94.9696C246.764 94.3489 246.659 93.6933 246.659 93.0026C246.659 92.0319 246.855 91.1569 247.247 90.3776C247.643 89.5983 248.215 88.9799 248.962 88.5226C249.708 88.0653 250.616 87.8366 251.685 87.8366C252.497 87.8366 253.213 87.9696 253.834 88.2356C254.459 88.5016 254.984 88.8703 255.409 89.3416C255.833 89.8129 256.153 90.3613 256.368 90.9866C256.582 91.6119 256.69 92.2816 256.69 92.9956C256.69 93.9803 256.494 94.8623 256.102 95.6416C255.71 96.4163 255.143 97.0299 254.401 97.4826C253.659 97.9306 252.767 98.1546 251.727 98.1546ZM251.692 97.0626C252.331 97.0626 252.882 96.9529 253.344 96.7336C253.806 96.5096 254.186 96.2063 254.485 95.8236C254.788 95.4409 255.012 95.0069 255.157 94.5216C255.301 94.0316 255.374 93.5229 255.374 92.9956C255.374 92.4263 255.294 91.8966 255.136 91.4066C254.982 90.9119 254.748 90.4803 254.436 90.1116C254.128 89.7383 253.745 89.4489 253.288 89.2436C252.83 89.0336 252.298 88.9286 251.692 88.9286C251.066 88.9286 250.52 89.0383 250.054 89.2576C249.592 89.4769 249.207 89.7779 248.899 90.1606C248.591 90.5386 248.36 90.9726 248.206 91.4626C248.052 91.9479 247.975 92.4589 247.975 92.9956C247.975 93.5369 248.049 94.0503 248.199 94.5356C248.348 95.0209 248.574 95.4549 248.878 95.8376C249.186 96.2156 249.573 96.5143 250.04 96.7336C250.506 96.9529 251.057 97.0626 251.692 97.0626Z" fill="#DEDEDE"/>
<path d="M258.64 98.0006C258.706 97.4593 258.771 96.9249 258.836 96.3976C258.906 95.8703 258.979 95.2963 259.053 94.6756L259.466 91.3856C259.541 90.7743 259.611 90.2049 259.676 89.6776C259.742 89.1503 259.812 88.5973 259.886 88.0186H261.16C261.45 88.7279 261.73 89.4139 262 90.0766C262.271 90.7346 262.539 91.3903 262.805 92.0436L264.387 95.9216H264.485L266.053 92.0506C266.319 91.3879 266.585 90.7299 266.851 90.0766C267.117 89.4233 267.393 88.7373 267.677 88.0186H268.951C269.021 88.5879 269.087 89.1363 269.147 89.6636C269.213 90.1909 269.285 90.7626 269.364 91.3786L269.77 94.7036C269.845 95.3103 269.915 95.8749 269.98 96.3976C270.046 96.9156 270.111 97.4499 270.176 98.0006H268.965C268.858 97.1139 268.755 96.2716 268.657 95.4736C268.559 94.6756 268.468 93.9313 268.384 93.2406L268.02 90.2586H267.929L266.662 93.4716C266.354 94.2509 266.046 95.0326 265.738 95.8166C265.43 96.5959 265.143 97.3239 264.877 98.0006H264.016C263.848 97.5759 263.662 97.1093 263.456 96.6006C263.251 96.0919 263.039 95.5716 262.819 95.0396C262.605 94.5076 262.395 93.9919 262.189 93.4926L260.88 90.2586H260.789L260.425 93.2336C260.341 93.9289 260.25 94.6756 260.152 95.4736C260.059 96.2716 259.959 97.1139 259.851 98.0006H258.64Z" fill="#DEDEDE"/>
<path d="M272.956 98.0006C272.956 97.4453 272.956 96.9109 272.956 96.3976C272.956 95.8843 272.956 95.3196 272.956 94.7036V91.3576C272.956 90.7276 272.956 90.1536 272.956 89.6356C272.956 89.1129 272.956 88.5739 272.956 88.0186H280.817C280.817 88.5739 280.817 89.1129 280.817 89.6356C280.817 90.1536 280.817 90.7276 280.817 91.3576V94.7036C280.817 95.3196 280.817 95.8843 280.817 96.3976C280.817 96.9109 280.817 97.4453 280.817 98.0006H279.55C279.55 97.4453 279.55 96.9109 279.55 96.3976C279.55 95.8843 279.55 95.3196 279.55 94.7036V91.5396C279.55 90.9143 279.55 90.3426 279.55 89.8246C279.55 89.3019 279.55 88.7606 279.55 88.2006L280.005 89.1106H273.775L274.223 88.2006C274.223 88.7606 274.223 89.3019 274.223 89.8246C274.223 90.3426 274.223 90.9143 274.223 91.5396V94.7036C274.223 95.3196 274.223 95.8843 274.223 96.3976C274.223 96.9109 274.223 97.4453 274.223 98.0006H272.956Z" fill="#DEDEDE"/>
<path d="M288.434 98.1546C287.589 98.1546 286.85 98.0193 286.215 97.7486C285.58 97.4733 285.051 97.0976 284.626 96.6216C284.206 96.1409 283.891 95.5903 283.681 94.9696C283.471 94.3489 283.366 93.6933 283.366 93.0026C283.366 92.0319 283.562 91.1569 283.954 90.3776C284.351 89.5983 284.922 88.9799 285.669 88.5226C286.416 88.0653 287.323 87.8366 288.392 87.8366C289.204 87.8366 289.92 87.9696 290.541 88.2356C291.166 88.5016 291.691 88.8703 292.116 89.3416C292.541 89.8129 292.86 90.3613 293.075 90.9866C293.29 91.6119 293.397 92.2816 293.397 92.9956C293.397 93.9803 293.201 94.8623 292.809 95.6416C292.417 96.4163 291.85 97.0299 291.108 97.4826C290.366 97.9306 289.475 98.1546 288.434 98.1546ZM288.399 97.0626C289.038 97.0626 289.589 96.9529 290.051 96.7336C290.513 96.5096 290.893 96.2063 291.192 95.8236C291.495 95.4409 291.719 95.0069 291.864 94.5216C292.009 94.0316 292.081 93.5229 292.081 92.9956C292.081 92.4263 292.002 91.8966 291.843 91.4066C291.689 90.9119 291.456 90.4803 291.143 90.1116C290.835 89.7383 290.452 89.4489 289.995 89.2436C289.538 89.0336 289.006 88.9286 288.399 88.9286C287.774 88.9286 287.228 89.0383 286.761 89.2576C286.299 89.4769 285.914 89.7779 285.606 90.1606C285.298 90.5386 285.067 90.9726 284.913 91.4626C284.759 91.9479 284.682 92.4589 284.682 92.9956C284.682 93.5369 284.757 94.0503 284.906 94.5356C285.055 95.0209 285.282 95.4549 285.585 95.8376C285.893 96.2156 286.28 96.5143 286.747 96.7336C287.214 96.9529 287.764 97.0626 288.399 97.0626Z" fill="#DEDEDE"/>
<path d="M298.61 98.1546C298.288 98.1546 297.971 98.1313 297.658 98.0846C297.346 98.0426 297.047 97.9866 296.762 97.9166C296.482 97.8419 296.223 97.7603 295.985 97.6716C295.752 97.5783 295.556 97.4873 295.397 97.3986L295.502 96.2436C295.74 96.3696 295.978 96.4839 296.216 96.5866C296.454 96.6893 296.697 96.7756 296.944 96.8456C297.192 96.9156 297.441 96.9693 297.693 97.0066C297.945 97.0439 298.2 97.0626 298.456 97.0626C299.044 97.0626 299.509 96.9809 299.849 96.8176C300.19 96.6543 300.433 96.4349 300.577 96.1596C300.727 95.8796 300.801 95.5646 300.801 95.2146C300.801 94.5519 300.575 94.0946 300.122 93.8426C299.674 93.5859 299.023 93.4576 298.169 93.4576C297.95 93.4576 297.749 93.4576 297.567 93.4576C297.39 93.4576 297.21 93.4576 297.028 93.4576V92.4356C297.173 92.4356 297.325 92.4356 297.483 92.4356C297.647 92.4356 297.836 92.4356 298.05 92.4356C298.657 92.4356 299.14 92.3493 299.499 92.1766C299.863 91.9993 300.127 91.7706 300.29 91.4906C300.458 91.2106 300.542 90.9096 300.542 90.5876C300.542 90.1909 300.437 89.8713 300.227 89.6286C300.022 89.3813 299.751 89.2039 299.415 89.0966C299.084 88.9846 298.725 88.9286 298.337 88.9286C298.118 88.9286 297.896 88.9473 297.672 88.9846C297.453 89.0173 297.227 89.0733 296.993 89.1526C296.76 89.2319 296.52 89.3369 296.272 89.4676C296.03 89.5983 295.778 89.7546 295.516 89.9366L295.355 88.7536C295.533 88.6369 295.731 88.5249 295.95 88.4176C296.174 88.3056 296.419 88.2076 296.685 88.1236C296.951 88.0349 297.234 87.9649 297.532 87.9136C297.831 87.8623 298.144 87.8366 298.47 87.8366C299.142 87.8366 299.73 87.9369 300.234 88.1376C300.743 88.3383 301.137 88.6253 301.417 88.9986C301.697 89.3719 301.837 89.8223 301.837 90.3496C301.837 90.9749 301.665 91.4906 301.319 91.8966C300.979 92.2979 300.556 92.5756 300.052 92.7296V92.8486C300.384 92.9139 300.706 93.0329 301.018 93.2056C301.336 93.3783 301.597 93.6326 301.802 93.9686C302.008 94.2999 302.11 94.7433 302.11 95.2986C302.11 95.7979 301.998 96.2646 301.774 96.6986C301.555 97.1326 301.189 97.4849 300.675 97.7556C300.167 98.0216 299.478 98.1546 298.61 98.1546Z" fill="#DEDEDE"/>
<path d="M304.55 98.0006C304.55 97.4453 304.55 96.9109 304.55 96.3976C304.55 95.8843 304.55 95.3196 304.55 94.7036V91.3576C304.55 90.7276 304.55 90.1536 304.55 89.6356C304.55 89.1129 304.55 88.5739 304.55 88.0186H305.789C305.789 88.5786 305.789 89.1199 305.789 89.6426C305.789 90.1606 305.789 90.7323 305.789 91.3576V95.8306H305.894L308.064 92.7646C308.6 92.0086 309.146 91.2386 309.702 90.4546C310.257 89.6659 310.831 88.8539 311.424 88.0186H312.516C312.516 88.5739 312.516 89.1129 312.516 89.6356C312.516 90.1536 312.516 90.7276 312.516 91.3576V94.7036C312.516 95.3196 312.516 95.8843 312.516 96.3976C312.516 96.9109 312.516 97.4453 312.516 98.0006H311.277C311.277 97.4453 311.277 96.9109 311.277 96.3976C311.277 95.8796 311.277 95.3126 311.277 94.6966V90.1816H311.172L309.002 93.2406C308.344 94.1693 307.742 95.0186 307.196 95.7886C306.65 96.5586 306.127 97.2959 305.628 98.0006H304.55Z" fill="#DEDEDE"/>
<path d="M318.226 98.0006C318.226 97.4453 318.226 96.9109 318.226 96.3976C318.226 95.8843 318.226 95.3196 318.226 94.7036V91.5396C318.226 90.9143 318.226 90.3426 318.226 89.8246C318.226 89.3019 318.226 88.7606 318.226 88.2006L318.73 89.1456H317.547C316.983 89.1456 316.481 89.1456 316.042 89.1456C315.608 89.1456 315.195 89.1456 314.803 89.1456V88.0186H322.909V89.1456C322.517 89.1456 322.104 89.1456 321.67 89.1456C321.236 89.1456 320.735 89.1456 320.165 89.1456H318.982L319.493 88.2006C319.493 88.7606 319.493 89.3019 319.493 89.8246C319.493 90.3426 319.493 90.9143 319.493 91.5396V94.7036C319.493 95.3196 319.493 95.8843 319.493 96.3976C319.493 96.9109 319.493 97.4453 319.493 98.0006H318.226Z" fill="#DEDEDE"/>
<path d="M328.498 98.0286L327.322 97.9586C327.746 97.3893 328.169 96.8199 328.589 96.2506C329.013 95.6766 329.438 95.1049 329.863 94.5356V94.4096C329.438 93.8403 329.013 93.2733 328.589 92.7086C328.169 92.1393 327.746 91.5699 327.322 91.0006L328.498 90.9376C328.936 91.5303 329.373 92.1229 329.807 92.7156C330.245 93.3036 330.684 93.8939 331.123 94.4866C330.684 95.0746 330.245 95.6649 329.807 96.2576C329.373 96.8456 328.936 97.4359 328.498 98.0286ZM325.285 98.0286L324.109 97.9586C324.533 97.3893 324.956 96.8199 325.376 96.2506C325.796 95.6766 326.218 95.1049 326.643 94.5356V94.4096C326.218 93.8403 325.796 93.2733 325.376 92.7086C324.956 92.1393 324.533 91.5699 324.109 91.0006L325.285 90.9376C325.723 91.5303 326.16 92.1229 326.594 92.7156C327.028 93.3036 327.464 93.8939 327.903 94.4866C327.464 95.0746 327.028 95.6649 326.594 96.2576C326.16 96.8456 325.723 97.4359 325.285 98.0286Z" fill="#DEDEDE"/>
<defs>
<clipPath id="clip0_501_5594">
<rect width="253" height="69.0006" fill="white"/>
</clipPath>
</defs>
</svg>
