<svg width="60" height="60" viewBox="0 0 60 60" fill="none" xmlns="http://www.w3.org/2000/svg">
<g clip-path="url(#clip0_2347_28260)">
<path d="M33.6136 10.8343C35.6096 10.8343 37.2276 9.21626 37.2276 7.22027C37.2276 5.22427 35.6096 3.6062 33.6136 3.6062C31.6176 3.6062 29.9995 5.22427 29.9995 7.22027C29.9995 9.21626 31.6176 10.8343 33.6136 10.8343Z" fill="#1B1B1B"/>
<path d="M40.8429 5.7834C42.4399 5.7834 43.7346 4.48874 43.7346 2.8917C43.7346 1.29466 42.4399 0 40.8429 0C39.2458 0 37.9512 1.29466 37.9512 2.8917C37.9512 4.48874 39.2458 5.7834 40.8429 5.7834Z" fill="#1B1B1B"/>
<path d="M52.9878 49.3356L37.9512 25.2929V18.0726H42.2888V13.0127H17.7104V18.0726H22.048V25.2929L7.01136 49.3356C6.41658 50.437 6.11795 51.674 6.14472 52.9254C6.17149 54.1768 6.52273 55.3998 7.16406 56.4748C7.80539 57.5497 8.71484 58.4397 9.80339 59.0577C10.8919 59.6756 12.1223 60.0003 13.374 60H46.6263C47.8779 60.0001 49.1082 59.6753 50.1965 59.0573C51.2849 58.4392 52.1942 57.5492 52.8354 56.4743C53.4766 55.3994 53.8278 54.1764 53.8545 52.9251C53.8812 51.6738 53.5826 50.4369 52.9878 49.3356ZM18.5223 40.4727L27.1079 26.7444V18.0715H32.8913V26.7444L41.4769 40.4727H18.5223Z" fill="#1B1B1B"/>
</g>
<defs>
<clipPath id="clip0_2347_28260">
<rect width="60" height="60" fill="white"/>
</clipPath>
</defs>
</svg>
