<svg width="80" height="80" viewBox="0 0 80 80" fill="none" xmlns="http://www.w3.org/2000/svg">
<path d="M51.7188 18.9062H58.75V35.3125C58.75 57.3175 40.9113 75.3125 18.9062 75.3125H0V80H28.2812C52.8752 80 72.8125 59.9064 72.8125 35.3125V18.9062H80L65.7812 0L51.7188 18.9062Z" fill="#1B1B1B"/>
<path d="M0 56.5625H7.1875V70.625H0V56.5625ZM11.875 42.5H18.9062V70.625H11.875V42.5ZM23.5938 70.2752C25.9902 69.954 28.3467 69.3839 30.625 68.5742V28.2812H23.5938V70.2752ZM42.3438 61.5991V14.2188H35.3125V66.5389C37.8642 65.1859 40.212 63.5133 42.3438 61.5991Z" fill="#1B1B1B"/>
</svg>
