<svg width="12" height="12" viewBox="0 0 12 12" fill="none" xmlns="http://www.w3.org/2000/svg">
<path d="M4.41366 8.06455C4.14248 8.53398 3.86291 9.07123 3.57494 9.6763C3.51214 9.80827 3.60884 9.95993 3.75499 9.95993H4.52179C4.58075 9.95993 4.6368 9.93371 4.675 9.88881C6.03085 8.29517 7.44872 7.11903 8.9286 6.36037C8.99613 6.32575 9.0391 6.25657 9.0391 6.18068V5.81759C9.0391 5.74254 8.99708 5.67397 8.93066 5.63901C7.45001 4.85968 6.03143 3.68336 4.67493 2.11003C4.63674 2.06574 4.58109 2.03995 4.52261 2.03995H3.75926C3.61205 2.03995 3.51538 2.19363 3.58017 2.32582C3.86629 2.90967 4.14412 3.43489 4.41366 3.90148C4.74884 4.44302 5.07284 4.90558 5.38567 5.28917L5.93637 6.01528L5.38567 6.71071C5.07284 7.07173 4.74884 7.52301 4.41366 8.06455Z" fill="#DEDEDE"/>
</svg>
