<svg width="36" height="38" viewBox="0 0 36 38" fill="none" xmlns="http://www.w3.org/2000/svg">
<g clip-path="url(#clip0_622_9708)">
<path d="M16.9289 31.6948C16.9289 31.6948 16.4712 33.0587 13.7109 33.3528C10.9505 33.6473 9.77283 33.0587 9.77283 33.0587C9.77283 33.0587 11.6131 31.6239 13.3799 31.55C15.1463 31.4762 16.9289 31.6948 16.9289 31.6948Z" fill="#DEDEDE"/>
<path d="M16.9289 31.6948C16.9289 31.6948 17.1366 30.2676 14.8506 28.6928C12.5641 27.1184 11.2482 27.0746 11.2482 27.0746C11.2482 27.0746 12.0036 29.0188 13.8435 30.157C15.347 31.0871 16.9289 31.6948 16.9289 31.6948Z" fill="#DEDEDE"/>
<path d="M13.6554 30.6855C13.6554 30.6855 12.2477 30.0503 10.122 30.0503C7.99631 30.0503 6.39556 31.1547 6.39556 31.1547C6.39556 31.1547 7.96885 31.7891 10.2324 31.7891C12.4957 31.7895 13.6554 30.6855 13.6554 30.6855Z" fill="#DEDEDE"/>
<path d="M11.0532 29.3323C11.0532 29.3323 10.9389 27.7921 9.92457 25.9249C8.91004 24.0568 7.17574 23.1773 7.17574 23.1773C7.17574 23.1773 7.36877 24.8627 8.44921 26.852C9.52967 28.8406 11.0532 29.3323 11.0532 29.3323Z" fill="#DEDEDE"/>
<path d="M9.99208 29.1408C9.99208 29.1408 8.77223 28.1936 6.70587 27.6961C4.63952 27.1983 2.82489 27.8967 2.82489 27.8967C2.82489 27.8967 4.20592 28.8828 6.40672 29.413C8.60677 29.9429 9.99208 29.1408 9.99208 29.1408Z" fill="#DEDEDE"/>
<path d="M8.16306 27.4986C8.16306 27.4986 7.40374 26.1543 5.69006 24.8966C3.97635 23.6389 2.03294 23.5817 2.03294 23.5817C2.03294 23.5817 2.92608 25.0243 4.75043 26.3639C6.57517 27.7032 8.16306 27.4986 8.16306 27.4986Z" fill="#DEDEDE"/>
<path d="M6.34667 24.7332C6.34667 24.7332 6.86087 23.3566 6.72638 21.3391C6.5923 19.3213 5.44329 17.871 5.44329 17.871C5.44329 17.871 4.93948 19.4047 5.08235 21.554C5.22563 23.7019 6.34667 24.7332 6.34667 24.7332Z" fill="#DEDEDE"/>
<path d="M4.90506 23.4286C4.90506 23.4286 4.37648 22.2036 3.02062 20.9658C1.66433 19.7277 0 19.4997 0 19.4997C0 19.4997 0.634018 20.8214 2.07826 22.1396C3.52198 23.4576 4.90506 23.4286 4.90506 23.4286Z" fill="#DEDEDE"/>
<path d="M4.08726 20.7141C4.08726 20.7141 4.02196 19.3812 3.18623 17.7463C2.35049 16.1114 0.871926 15.3139 0.871926 15.3139C0.871926 15.3139 1.00251 16.7737 1.89242 18.5148C2.78231 20.2564 4.08726 20.7141 4.08726 20.7141Z" fill="#DEDEDE"/>
<path d="M3.51657 16.738C3.51657 16.738 3.63123 15.4088 3.02311 13.6763C2.41459 11.9436 1.05705 10.9546 1.05705 10.9546C1.05705 10.9546 0.98981 12.4188 1.6373 14.2635C2.28492 16.1092 3.51657 16.738 3.51657 16.738Z" fill="#DEDEDE"/>
<path d="M4.0674 14.1172C4.0674 14.1172 4.67747 12.9307 4.77176 11.0969C4.86607 9.26301 3.98462 7.83316 3.98462 7.83316C3.98462 7.83316 3.36692 9.16195 3.26626 11.115C3.1656 13.0681 4.0674 14.1172 4.0674 14.1172Z" fill="#DEDEDE"/>
<path d="M5.57051 10.9639C5.57051 10.9639 6.36531 9.89252 6.75656 8.09852C7.14742 6.30435 6.51016 4.74983 6.51016 4.74983C6.51016 4.74983 5.68441 5.96089 5.26802 7.87164C4.85177 9.78225 5.57051 10.9639 5.57051 10.9639Z" fill="#DEDEDE"/>
<path d="M4.1567 19.0046C4.1567 19.0046 5.1505 18.1147 5.89307 16.4352C6.63567 14.7557 6.32332 13.1051 6.32332 13.1051C6.32332 13.1051 5.27148 14.1263 4.48069 15.9144C3.68954 17.7029 4.1567 19.0046 4.1567 19.0046Z" fill="#DEDEDE"/>
<path d="M5.25529 13.0011C5.25529 13.0011 6.52529 12.5924 7.88751 11.361C9.24934 10.1296 9.63582 8.49467 9.63582 8.49467C9.63582 8.49467 8.25959 8.99928 6.80938 10.3107C5.3584 11.622 5.25529 13.0011 5.25529 13.0011Z" fill="#DEDEDE"/>
<path d="M7.13162 9.32759C7.13162 9.32759 8.33346 8.74734 9.51278 7.34094C10.6923 5.93361 10.85 4.26099 10.85 4.26099C10.85 4.26099 9.55655 4.94993 8.30016 6.44873C7.04456 7.947 7.13162 9.32759 7.13162 9.32759Z" fill="#DEDEDE"/>
<path d="M17.1199 32.5581C17.1199 34.4051 14.0813 36.4148 14.0813 35.4334C14.0814 34.452 17.1199 33.2127 17.1199 32.5581Z" fill="#DEDEDE"/>
<path d="M18.8802 32.5581C18.8802 34.4051 21.9188 36.4148 21.9188 35.4334C21.9188 34.452 18.8802 33.2127 18.8802 32.5581Z" fill="#DEDEDE"/>
<path d="M19.071 31.6948C19.071 31.6948 19.5287 33.0587 22.2891 33.3528C25.0494 33.6473 26.2271 33.0587 26.2271 33.0587C26.2271 33.0587 24.3868 31.6239 22.62 31.55C20.8536 31.4762 19.071 31.6948 19.071 31.6948Z" fill="#DEDEDE"/>
<path d="M19.071 31.6948C19.071 31.6948 18.8631 30.2676 21.1491 28.6928C23.4356 27.1184 24.7515 27.0746 24.7515 27.0746C24.7515 27.0746 23.9965 29.0188 22.1562 30.157C20.6524 31.0871 19.071 31.6948 19.071 31.6948Z" fill="#DEDEDE"/>
<path d="M22.3444 30.6855C22.3444 30.6855 23.7525 30.0503 25.8771 30.0503C28.0032 30.0503 29.6042 31.1547 29.6042 31.1547C29.6042 31.1547 28.0306 31.7891 25.767 31.7891C23.5036 31.7895 22.3444 30.6855 22.3444 30.6855Z" fill="#DEDEDE"/>
<path d="M24.9465 29.3323C24.9465 29.3323 25.0608 27.7921 26.0748 25.9249C27.0893 24.0568 28.8236 23.1773 28.8236 23.1773C28.8236 23.1773 28.6306 24.8627 27.5509 26.852C26.4701 28.8406 24.9465 29.3323 24.9465 29.3323Z" fill="#DEDEDE"/>
<path d="M26.0077 29.1408C26.0077 29.1408 27.2272 28.1936 29.2939 27.6961C31.3603 27.1983 33.1749 27.8967 33.1749 27.8967C33.1749 27.8967 31.7939 28.8828 29.5934 29.413C27.3929 29.9429 26.0077 29.1408 26.0077 29.1408Z" fill="#DEDEDE"/>
<path d="M27.8367 27.4986C27.8367 27.4986 28.5964 26.1543 30.3097 24.8966C32.0238 23.6389 33.9671 23.5817 33.9671 23.5817C33.9671 23.5817 33.0745 25.0243 31.2497 26.3639C29.425 27.7032 27.8367 27.4986 27.8367 27.4986Z" fill="#DEDEDE"/>
<path d="M29.6529 24.7332C29.6529 24.7332 29.1387 23.3566 29.2728 21.3391C29.4073 19.3213 30.5562 17.871 30.5562 17.871C30.5562 17.871 31.0601 19.4047 30.9168 21.554C30.774 23.7019 29.6529 24.7332 29.6529 24.7332Z" fill="#DEDEDE"/>
<path d="M31.0945 23.4286C31.0945 23.4286 31.6231 22.2036 32.9789 20.9658C34.3352 19.7277 36.0001 19.4997 36.0001 19.4997C36.0001 19.4997 35.3653 20.8214 33.9214 22.1396C32.477 23.4576 31.0945 23.4286 31.0945 23.4286Z" fill="#DEDEDE"/>
<path d="M31.9135 20.7141C31.9135 20.7141 31.9784 19.3812 32.8146 17.7463C33.6507 16.1114 35.1289 15.3139 35.1289 15.3139C35.1289 15.3139 34.9986 16.7737 34.1088 18.5148C33.2189 20.2564 31.9135 20.7141 31.9135 20.7141Z" fill="#DEDEDE"/>
<path d="M32.4839 16.738C32.4839 16.738 32.3689 15.4088 32.977 13.6763C33.5851 11.9436 34.943 10.9546 34.943 10.9546C34.943 10.9546 35.0107 12.4188 34.3624 14.2635C33.7153 16.1092 32.4839 16.738 32.4839 16.738Z" fill="#DEDEDE"/>
<path d="M31.9335 14.1172C31.9335 14.1172 31.3234 12.9307 31.2286 11.0969C31.1346 9.26301 32.0157 7.83316 32.0157 7.83316C32.0157 7.83316 32.6338 9.16195 32.7345 11.115C32.8349 13.0681 31.9335 14.1172 31.9335 14.1172Z" fill="#DEDEDE"/>
<path d="M30.4287 10.9639C30.4287 10.9639 29.6339 9.89252 29.2432 8.09852C28.8524 6.30435 29.4891 4.74983 29.4891 4.74983C29.4891 4.74983 30.3145 5.96089 30.7312 7.87164C31.1483 9.78225 30.4287 10.9639 30.4287 10.9639Z" fill="#DEDEDE"/>
<path d="M31.8437 19.0046C31.8437 19.0046 30.8492 18.1147 30.1066 16.4352C29.364 14.7557 29.6763 13.1051 29.6763 13.1051C29.6763 13.1051 30.7281 14.1263 31.5193 15.9144C32.3102 17.7029 31.8437 19.0046 31.8437 19.0046Z" fill="#DEDEDE"/>
<path d="M30.7446 13.0011C30.7446 13.0011 29.4746 12.5924 28.1128 11.361C26.75 10.1296 26.3641 8.49467 26.3641 8.49467C26.3641 8.49467 27.7399 8.99928 29.1909 10.3107C30.6412 11.622 30.7446 13.0011 30.7446 13.0011Z" fill="#DEDEDE"/>
<path d="M28.8677 9.32759C28.8677 9.32759 27.6662 8.74734 26.4869 7.34094C25.3073 5.93361 25.1493 4.26099 25.1493 4.26099C25.1493 4.26099 26.4435 4.94993 27.6995 6.44873C28.9556 7.947 28.8677 9.32759 28.8677 9.32759Z" fill="#DEDEDE"/>
</g>
<defs>
<clipPath id="clip0_622_9708">
<rect width="36" height="36" fill="white" transform="translate(0 2)"/>
</clipPath>
</defs>
</svg>
