<svg width="72" height="72" viewBox="0 0 72 72" fill="none" xmlns="http://www.w3.org/2000/svg">
<path fill-rule="evenodd" clip-rule="evenodd" d="M42.3383 2.69995H18.9562C13.4576 2.69995 9 7.66959 9 13.8V58.2C9 64.3303 13.4576 69.2999 18.9562 69.2999H52.1437C57.6424 69.2999 62.1 64.3303 62.1 58.2V25.875H50.8364C46.0597 25.875 42.1875 21.5433 42.1875 16.2V3.59995C42.1875 3.28244 42.2409 2.97889 42.3383 2.69995ZM19.4591 54C19.4591 52.5088 20.5397 51.2999 21.8727 51.2999H49.2273C50.5603 51.2999 51.6409 52.5088 51.6409 54C51.6409 55.4911 50.5603 56.7 49.2273 56.7H21.8727C20.5397 56.7 19.4591 55.4911 19.4591 54ZM21.8727 38.7C20.5397 38.7 19.4591 39.9088 19.4591 41.4C19.4591 42.8911 20.5397 44.0999 21.8727 44.0999H49.2273C50.5603 44.0999 51.6409 42.8911 51.6409 41.4C51.6409 39.9088 50.5603 38.7 49.2273 38.7H21.8727ZM19.4591 28.35C19.4591 26.8588 20.5397 25.65 21.8727 25.65H32.3318C33.6648 25.65 34.7455 26.8588 34.7455 28.35C34.7455 29.8411 33.6648 31.0499 32.3318 31.0499H21.8727C20.5397 31.0499 19.4591 29.8411 19.4591 28.35Z" fill="#1B1B1B"/>
<path d="M61.9894 20.925C61.6748 18.5917 60.6986 16.4149 59.1839 14.7262L51.3129 5.95107C49.9912 4.47756 48.3362 3.46111 46.5455 2.99298C46.5892 3.18719 46.6125 3.39053 46.6125 3.59995V16.2C46.6125 18.8095 48.5036 20.925 50.8364 20.925H61.9894Z" fill="#1B1B1B"/>
</svg>
