<?xml version="1.0" standalone="no"?>
<!DOCTYPE svg PUBLIC "-//W3C//DTD SVG 20010904//EN"
 "http://www.w3.org/TR/2001/REC-SVG-20010904/DTD/svg10.dtd">
<svg version="1.0" xmlns="http://www.w3.org/2000/svg"
 width="1024.000000pt" height="1024.000000pt" viewBox="0 0 1024.000000 1024.000000"
 preserveAspectRatio="xMidYMid meet">
<metadata>
Created by potrace 1.14, written by Peter Selinger 2001-2017
</metadata>
<g transform="translate(0.000000,1024.000000) scale(0.100000,-0.100000)"
fill="#000000" stroke="none">
<path d="M5135 9342 c15 -29 77 -221 91 -282 53 -238 59 -290 59 -510 0 -207
-5 -255 -41 -418 -56 -251 -191 -564 -331 -764 -18 -26 -33 -52 -33 -57 0 -5
-3 -11 -7 -13 -5 -1 -21 -23 -38 -48 -29 -44 -154 -210 -164 -220 -4 -3 -31
-36 -62 -75 -31 -38 -65 -79 -75 -91 -11 -12 -43 -49 -73 -83 -30 -34 -72 -81
-93 -104 -94 -101 -282 -298 -354 -372 -44 -45 -99 -105 -124 -134 -25 -29
-56 -65 -70 -80 -14 -14 -43 -48 -65 -75 -22 -27 -44 -54 -50 -60 -58 -63
-199 -252 -282 -376 -256 -380 -378 -736 -377 -1095 1 -83 10 -222 19 -265 3
-14 8 -41 11 -60 3 -19 13 -62 21 -95 8 -33 16 -67 18 -75 14 -69 85 -255 149
-390 36 -76 191 -355 206 -370 3 -3 32 -45 64 -95 33 -49 77 -112 98 -140 21
-27 42 -54 46 -60 75 -99 108 -141 114 -143 4 -2 17 -19 29 -38 27 -44 34 -38
14 12 -12 33 -57 174 -70 224 -6 21 -43 199 -49 235 -26 144 -26 434 0 595 40
250 136 508 289 775 41 73 199 310 216 325 3 3 18 23 34 45 17 22 32 42 35 45
3 3 32 39 65 80 32 41 64 80 70 86 5 6 35 39 65 74 115 133 248 275 494 530
51 52 119 126 151 165 33 38 70 81 82 95 79 92 123 147 215 269 48 64 91 121
95 126 30 37 142 223 192 317 268 512 291 1011 71 1563 -68 173 -198 413 -322
598 -103 153 -367 493 -333 429z"/>
<path d="M6419 7575 c5 -16 17 -50 26 -75 44 -121 94 -347 111 -500 14 -124 9
-370 -11 -500 -43 -284 -174 -605 -370 -905 -195 -300 -406 -547 -920 -1080
-59 -61 -151 -165 -233 -264 -21 -24 -42 -49 -47 -55 -34 -35 -215 -276 -269
-356 -198 -296 -301 -529 -358 -815 -28 -139 -30 -508 -3 -587 2 -7 6 -26 9
-43 9 -61 49 -210 73 -275 3 -8 7 -19 8 -25 18 -73 146 -343 233 -489 100
-171 314 -477 379 -544 7 -8 25 -29 40 -48 14 -19 27 -33 29 -31 2 1 -10 43
-27 92 -33 100 -75 258 -84 320 -4 22 -8 47 -10 55 -26 94 -27 492 -2 630 23
127 59 259 103 377 37 101 134 309 164 353 10 14 26 41 37 60 39 72 188 290
250 365 5 6 24 30 43 55 128 165 304 360 634 700 66 69 141 150 166 180 25 29
54 64 65 76 11 12 31 35 44 50 13 16 36 43 50 59 81 95 225 288 302 405 140
212 237 412 294 610 170 591 27 1177 -459 1874 -55 79 -110 152 -224 295 -15
19 -32 41 -39 50 -10 13 -11 10 -4 -14z"/>
</g>
</svg>
