<?xml version="1.0" encoding="utf-8"?><svg xmlns="http://www.w3.org/2000/svg" xmlns:xlink="http://www.w3.org/1999/xlink"><symbol viewBox="0 0 16 16" id="about-icon" xmlns="http://www.w3.org/2000/svg"><g clip-path="url(#aclip0_2309_24851)"><path d="M14.667 14.933v-1.665c.351-.207.557-.594.533-1.001 0-.59-.358-1.067-.8-1.067-.442 0-.8.478-.8 1.067-.024.407.182.794.533 1.001v1.665h-1.866V6.832l-1.6-.8v1.435h.8V8h-.8v1.067h.8V9.6h-.8v1.067h.8v.533h-.8v1.067h.8v.533h-.8v1.067h.8v.533h-.8v.533h-.534V4.201l-3.2-.914v.98H8.8V4.8H6.933v1.067H8.8V6.4H6.933v1.067H8.8V8H6.933v1.067H8.8V9.6H6.933v1.067H8.8v.533H6.933v1.067H8.8v.533H6.933v1.067H8.8v.533H6.933v.533H6.4V0H1.6v1.067H4V1.6H1.6v1.067H4V3.2H1.6v1.067H4V4.8H1.6v1.067H4V6.4H1.6v1.067H4V8H1.6v1.067H4V9.6H1.6v1.067H4v.533H1.6v1.067H4v.533H1.6v1.067H4v.533H1.6v.533H0v.534h16v-.534h-1.333z"/></g><defs><clipPath id="aclip0_2309_24851"><path d="M0 0h16v16H0z"/></clipPath></defs></symbol><symbol viewBox="0 0 16 16" id="alert" xmlns="http://www.w3.org/2000/svg"><g clip-path="url(#bclip0_901_1035)"><path clip-rule="evenodd" d="M8 0a8 8 0 100 16A8 8 0 008 0zm-.69 3.876a.69.69 0 111.38 0v4.143a.69.69 0 01-1.38 0V3.876zM8 12.507a1.036 1.036 0 110-2.071 1.036 1.036 0 010 2.071z"/></g><defs><clipPath id="bclip0_901_1035"><path d="M0 0h16v16H0z"/></clipPath></defs></symbol><symbol viewBox="0 0 24 24" id="arrow-down-icon" xmlns="http://www.w3.org/2000/svg"><path d="M18.499 12.875a.2.2 0 00-.284-.18 38.47 38.47 0 00-2.827 1.462c-.889.55-1.63 1.082-2.222 1.595v-13.3a.2.2 0 00-.2-.2h-1.933a.2.2 0 00-.2.2v13.3a21.639 21.639 0 00-2.277-1.595A43.918 43.918 0 005.787 12.7a.2.2 0 00-.286.18v1.515c0 .059.026.114.07.152 2.63 2.26 4.587 4.624 5.873 7.093a.201.201 0 00.178.108h.754a.201.201 0 00.18-.11c1.25-2.469 3.208-4.832 5.872-7.09a.201.201 0 00.07-.154v-1.519z"/></symbol><symbol viewBox="0 0 16 16" id="arrow-left" xmlns="http://www.w3.org/2000/svg"><path d="M7.312 12.333a.199.199 0 00.18-.284c-.32-.673-.63-1.27-.93-1.79a11.584 11.584 0 00-1.064-1.481H14.3a.2.2 0 00.2-.2V7.422a.2.2 0 00-.2-.2h-8.8c.342-.42.696-.925 1.063-1.518.299-.518.607-1.101.925-1.75a.199.199 0 00-.18-.287h-.873a.201.201 0 00-.152.07C4.792 5.467 3.235 6.758 1.61 7.61a.202.202 0 00-.109.179v.42c0 .076.043.145.11.18 1.626.831 3.182 2.122 4.67 3.873a.201.201 0 00.154.07h.877z"/></symbol><symbol viewBox="0 0 24 24" id="arrow-shevron" xmlns="http://www.w3.org/2000/svg"><path d="M15.172 16.13a47.135 47.135 0 011.812 3.506.2.2 0 01-.181.284h-1.94a.201.201 0 01-.153-.071c-2.764-3.264-5.657-5.658-8.678-7.184a.2.2 0 01-.11-.18v-.972a.2.2 0 01.108-.178c3.022-1.57 5.916-3.965 8.68-7.185a.201.201 0 01.152-.07H16.8a.2.2 0 01.18.286 53.8 53.8 0 01-1.807 3.437c-.67 1.083-1.318 2.008-1.944 2.775l-1.101 1.453 1.101 1.39c.626.723 1.274 1.625 1.944 2.708z"/></symbol><symbol viewBox="0 0 24 24" id="arrow-shirt" xmlns="http://www.w3.org/2000/svg"><path d="M15.172 16.13a47.135 47.135 0 011.812 3.506.2.2 0 01-.181.284h-1.94a.201.201 0 01-.153-.071c-2.764-3.264-5.657-5.658-8.678-7.184a.2.2 0 01-.11-.18v-.972a.2.2 0 01.108-.178c3.022-1.57 5.916-3.965 8.68-7.185a.201.201 0 01.152-.07H16.8a.2.2 0 01.18.286 53.8 53.8 0 01-1.807 3.437c-.67 1.083-1.318 2.008-1.944 2.775l-1.101 1.453 1.101 1.39c.626.723 1.274 1.625 1.944 2.708z"/></symbol><symbol viewBox="0 0 16 16" id="clip" xmlns="http://www.w3.org/2000/svg"><path d="M14.845 3.356l-1.588-1.588a1.794 1.794 0 00-2.53 0l-7.009 7.01a2.15 2.15 0 00-.63 1.52v.771c0 .679.55 1.229 1.229 1.229h.772c.57 0 1.116-.227 1.52-.63l5.997-5.998a.307.307 0 000-.435l-.434-.434a.307.307 0 00-.434 0L5.74 10.8a.921.921 0 01-.651.27h-.772v-.772c0-.244.097-.479.27-.651l7.008-7.01a.563.563 0 01.794 0l1.588 1.588a.573.573 0 01.164.397.573.573 0 01-.164.397L5.92 13.076c-.288.288-.678.45-1.085.45h-2.36a.614.614 0 01-.614-.614v-2.36c0-.408.162-.798.45-1.086l7.045-7.047a.307.307 0 000-.434l-.434-.434a.307.307 0 00-.434 0L1.442 8.598a2.763 2.763 0 00-.81 1.954v2.36c0 1.017.826 1.842 1.843 1.842h2.36c.732 0 1.435-.291 1.953-.81l8.057-8.057c.333-.333.524-.795.524-1.266 0-.47-.191-.932-.524-1.265z"/></symbol><symbol viewBox="0 0 40 40" id="close" xmlns="http://www.w3.org/2000/svg"><g clip-path="url(#hclip0_774_20519)"><path d="M34.142 5.858L23 20l11.142 14.142L20 23 5.858 34.142 17 20 5.858 5.858 20 17 34.142 5.858z"/></g><defs><clipPath id="hclip0_774_20519"><path d="M0 0h40v40H0z"/></clipPath></defs></symbol><symbol viewBox="0 0 40 40" id="close-star" xmlns="http://www.w3.org/2000/svg"><g clip-path="url(#iclip0_774_18581)"><path d="M34.142 5.858L23 20l11.142 14.142L20 23 5.858 34.142 17 20 5.858 5.858 20 17 34.142 5.858z"/></g><defs><clipPath id="iclip0_774_18581"><path d="M0 0h40v40H0z"/></clipPath></defs></symbol><symbol viewBox="0 0 10 11" id="cross" xmlns="http://www.w3.org/2000/svg"><path d="M9.3.901L.433 9.768m0-8.867L9.3 9.768"/></symbol><symbol viewBox="0 0 24 24" id="cross-icon" xmlns="http://www.w3.org/2000/svg"><g clip-path="url(#kclip0_2424_3964)"><path d="M3.515 3.515L10.2 12l-6.685 8.485L12 13.8l8.485 6.685L13.8 12l6.685-8.485L12 10.2 3.515 3.515z"/></g><defs><clipPath id="kclip0_2424_3964"><path transform="matrix(-1 0 0 1 24 0)" d="M0 0h24v24H0z"/></clipPath></defs></symbol><symbol viewBox="0 0 16 16" id="download" xmlns="http://www.w3.org/2000/svg"><path d="M12.376 12.445h-8.75a.486.486 0 00-.485.485v.646c0 .268.219.485.484.485h8.748a.486.486 0 00.484-.485v-.646a.478.478 0 00-.48-.485zM4.3 6.38c0-.146.152-.243.284-.18.558.266 1.054.524 1.488.775.506.314.928.616 1.265.909v-6.35c0-.111.09-.2.2-.2h.929c.11 0 .2.089.2.2v6.35c.359-.293.79-.596 1.297-.909.431-.249.916-.506 1.454-.77a.199.199 0 01.286.18v.686a.202.202 0 01-.07.152C10.167 8.488 9.07 9.81 8.343 11.19a.202.202 0 01-.179.109h-.323a.202.202 0 01-.18-.11c-.709-1.38-1.805-2.702-3.29-3.966a.202.202 0 01-.07-.153v-.69z"/></symbol><symbol viewBox="0 0 16 16" id="ok" xmlns="http://www.w3.org/2000/svg"><path clip-rule="evenodd" d="M7.967 8.241a3.76 3.76 0 01-2.649-1.108 3.79 3.79 0 01-1.103-2.659 3.838 3.838 0 011.099-2.68A3.807 3.807 0 017.967.655a3.734 3.734 0 012.673 1.12 3.764 3.764 0 011.079 2.7 3.734 3.734 0 01-1.085 2.678 3.703 3.703 0 01-2.667 1.09zm0-5.337a1.558 1.558 0 00-1.46 1.006c-.075.196-.11.406-.103.616a1.502 1.502 0 00.965 1.424c.19.072.394.104.598.094a1.521 1.521 0 001.44-.927c.08-.187.121-.388.123-.59a1.575 1.575 0 00-.953-1.498 1.558 1.558 0 00-.61-.125zm1.511 8.476l2.137 2.093a1.074 1.074 0 010 1.518.985.985 0 01-1.173.261.985.985 0 01-.338-.261l-2.137-2.093-2.085 2.093a1.042 1.042 0 01-.781.314 1.248 1.248 0 01-.782-.314 1.073 1.073 0 010-1.518l2.189-2.093a10.82 10.82 0 01-2.241-.994 1.14 1.14 0 01-.365-1.517 1.102 1.102 0 011.158-.491c.146.03.284.09.406.177a4.878 4.878 0 005.054 0 1.097 1.097 0 011.564.314 1.144 1.144 0 01-.313 1.517 11.26 11.26 0 01-2.293.995z"/></symbol><symbol viewBox="0 0 12 13" id="phone" xmlns="http://www.w3.org/2000/svg"><g clip-path="url(#nclip0_798_222116)"><path d="M11.333 8.833c-.83 0-1.633-.133-2.38-.38a.669.669 0 00-.676.164l-1.467 1.47a10.04 10.04 0 01-4.393-4.39l1.466-1.474a.669.669 0 00.164-.676 7.59 7.59 0 01-.38-2.38A.664.664 0 003 .5H.667A.666.666 0 000 1.167C0 7.427 5.073 12.5 11.333 12.5c.37 0 .667-.297.667-.667V9.5a.664.664 0 00-.667-.667z"/></g><defs><clipPath id="nclip0_798_222116"><path transform="translate(0 .5)" d="M0 0h12v12H0z"/></clipPath></defs></symbol><symbol viewBox="0 0 17 16" id="play" xmlns="http://www.w3.org/2000/svg"><path d="M13.847 8.863c.587-.426.587-1.3 0-1.727L4.986.691a1.068 1.068 0 00-1.696.864v12.89c0 .873.99 1.377 1.696.863l8.861-6.445z"/></symbol><symbol viewBox="0 0 14 14" id="play-icon" xmlns="http://www.w3.org/2000/svg"><g clip-path="url(#pclip0_2448_24575)"><path d="M11.985 7.79a1 1 0 000-1.58L5.614 1.256A1 1 0 004 2.045v9.91a1 1 0 001.614.79l6.371-4.956z"/></g><defs><clipPath id="pclip0_2448_24575"><path d="M0 0h14v14H0z"/></clipPath></defs></symbol><symbol viewBox="0 0 16 16" id="presentation-icon" xmlns="http://www.w3.org/2000/svg"><path d="M9.671 2.129a.667.667 0 00-1.138.471v2.333a7.275 7.275 0 00-7.2 7.267v1.2a.667.667 0 001.221.37c2.547-3.82 4.989-4.093 5.979-4.014V12.2a.666.666 0 001.138.472l4.8-4.8a.667.667 0 000-.943l-4.8-4.8z"/></symbol><symbol viewBox="0 0 16 16" id="slider-arrow-icon" xmlns="http://www.w3.org/2000/svg"><path d="M7.312 12.333a.199.199 0 00.18-.284 25.25 25.25 0 00-.93-1.79 11.582 11.582 0 00-1.064-1.481H14.3a.2.2 0 00.2-.2V7.422a.2.2 0 00-.2-.2h-8.8c.342-.42.696-.925 1.063-1.518.299-.517.607-1.101.925-1.75a.199.199 0 00-.18-.287h-.873a.201.201 0 00-.152.07c-1.49 1.729-3.047 3.02-4.672 3.874a.202.202 0 00-.109.178v.42c0 .076.043.146.11.18 1.626.831 3.182 2.122 4.67 3.873a.201.201 0 00.154.07h.877z"/></symbol><symbol viewBox="0 0 16 16" id="tg" xmlns="http://www.w3.org/2000/svg"><path clip-rule="evenodd" d="M.968 7.188C4.75 5.541 7.272 4.455 8.533 3.93c3.603-1.498 4.351-1.759 4.84-1.767.107-.002.346.024.502.15.131.107.167.25.184.352.018.1.04.33.022.51-.195 2.052-1.04 7.03-1.47 9.327-.181.972-.54 1.297-.886 1.33-.753.069-1.325-.498-2.055-.977-1.142-.748-1.787-1.214-2.895-1.944-1.28-.844-.45-1.308.28-2.066.19-.199 3.51-3.217 3.574-3.491.008-.035.015-.162-.06-.23-.076-.067-.188-.044-.27-.026-.114.026-1.937 1.232-5.47 3.617-.518.355-.987.529-1.407.52-.464-.01-1.354-.262-2.017-.478-.812-.264-1.458-.403-1.402-.852.03-.233.351-.472.965-.717z"/></symbol><symbol viewBox="0 0 16 16" id="vk" xmlns="http://www.w3.org/2000/svg"><path d="M8.678 12.16c-4.505 0-7.238-3.126-7.345-8.32h2.282c.07 3.816 1.806 5.434 3.137 5.765V3.84h2.187v3.291c1.283-.142 2.626-1.64 3.078-3.291h2.15c-.344 2.032-1.806 3.53-2.84 4.147 1.034.5 2.698 1.807 3.34 4.171h-2.365c-.5-1.58-1.723-2.805-3.363-2.97v2.97h-.261z"/></symbol><symbol viewBox="0 0 16 16" id="wt" xmlns="http://www.w3.org/2000/svg"><path clip-rule="evenodd" d="M2.237 11.28l-.948 3.461 3.543-.929a6.68 6.68 0 003.193.814h.003a6.692 6.692 0 006.683-6.681 6.639 6.639 0 00-1.955-4.727 6.642 6.642 0 00-4.728-1.96A6.691 6.691 0 001.345 7.94a6.669 6.669 0 00.892 3.34zm.236-3.34a5.562 5.562 0 017.684-5.132c.674.28 1.286.69 1.8 1.208a5.517 5.517 0 011.626 3.928 5.562 5.562 0 01-5.555 5.553h-.002a5.546 5.546 0 01-2.827-.774l-.203-.12-2.103.551.562-2.049-.133-.21a5.54 5.54 0 01-.849-2.955z"/><path clip-rule="evenodd" d="M6.358 5.147c-.125-.278-.257-.284-.376-.289l-.32-.004a.613.613 0 00-.445.21c-.153.167-.585.57-.585 1.392s.598 1.615.682 1.727c.083.112 1.155 1.851 2.852 2.52 1.411.557 1.698.446 2.004.418.307-.027.988-.404 1.127-.793.14-.39.14-.724.098-.794-.042-.07-.153-.112-.32-.195-.167-.084-.988-.488-1.141-.543-.153-.056-.265-.084-.376.083a9.774 9.774 0 01-.529.655c-.097.111-.194.125-.362.042-.167-.084-.704-.26-1.342-.83a5.04 5.04 0 01-.93-1.155c-.097-.167-.01-.258.074-.341.075-.075.167-.195.25-.293.084-.097.112-.167.167-.278.056-.111.028-.209-.014-.292-.041-.084-.366-.91-.514-1.24"/></symbol></svg>