<?xml version="1.0" encoding="utf-8"?><svg xmlns="http://www.w3.org/2000/svg" xmlns:xlink="http://www.w3.org/1999/xlink"><symbol fill="none" viewBox="0 0 72 72" id="document-icon" xmlns="http://www.w3.org/2000/svg"><path fill-rule="evenodd" clip-rule="evenodd" d="M42.338 2.7H18.956C13.458 2.7 9 7.67 9 13.8v44.4c0 6.13 4.458 11.1 9.956 11.1h33.188c5.498 0 9.956-4.97 9.956-11.1V25.875H50.836c-4.776 0-8.648-4.332-8.648-9.675V3.6c0-.318.053-.621.15-.9zM19.46 54c0-1.491 1.08-2.7 2.414-2.7h27.354c1.333 0 2.414 1.209 2.414 2.7s-1.08 2.7-2.414 2.7H21.873c-1.333 0-2.414-1.209-2.414-2.7zm2.414-15.3c-1.333 0-2.414 1.209-2.414 2.7s1.08 2.7 2.414 2.7h27.354c1.333 0 2.414-1.209 2.414-2.7s-1.08-2.7-2.414-2.7H21.873zm-2.414-10.35c0-1.491 1.08-2.7 2.414-2.7h10.459c1.333 0 2.413 1.209 2.413 2.7s-1.08 2.7-2.413 2.7h-10.46c-1.332 0-2.413-1.209-2.413-2.7z" fill="#1B1B1B"/><path d="M61.99 20.925c-.315-2.333-1.291-4.51-2.806-6.199l-7.871-8.775c-1.322-1.473-2.977-2.49-4.768-2.958.044.194.067.398.067.607v12.6c0 2.61 1.892 4.725 4.224 4.725H61.99z" fill="#1B1B1B"/></symbol><symbol fill="none" viewBox="0 0 80 20" id="mw" xmlns="http://www.w3.org/2000/svg"><path fill-rule="evenodd" clip-rule="evenodd" d="M43.024 4.892c.193.201 1.924 4.986 2.105 5.577.18.633.435 1.24.758 1.808.6.141.656-.485.837-.981.985-2.682 2.479-6.593 3.225-9.228.52-1.276.566-1.618-.373-1.618-.94 0-.837.638-1.21 1.465-.329 1.571-1.596 4.891-2.06 6.415 0 .201 0 .201-.238.201-.78-2.268-1.686-5.045-2.569-7.29-.237-.437-.656-.531-.939.45-.475 1.559-1.131 3.414-1.64 4.926 0 0-.612 1.914-.657 2.009a6.053 6.053 0 01-.701-1.76c-.702-1.808-1.313-3.758-1.913-5.566-.147-.342-.147-.543-.475-.744a1.88 1.88 0 00-1.03-.094c-.928.153-.328.933-.136 1.512 1.132 3.178 2.388 6.994 3.644 10.019.03.075.077.14.139.19a.432.432 0 00.438.062.445.445 0 00.181-.146c.181-.366 2.478-7.207 2.614-7.207zM.206.65a.972.972 0 00.045.59c.192.828-.373 10.256-.226 10.634.458.215.971.265 1.46.142.226-.248.135-.485.135-.874 0-1.666.136-3.273.136-4.986.057-.638.102-1.076.102-1.465 0-.39 0-.343.09-.438.09-.094 1.573 2.6 1.72 2.895.283.579.838 1.465 1.211 2.15.566 1.076.849.343.985.095.328-.437 2.862-5.08 3.043-5.175.17.189.17 4.832.17 5.175 0 2.54-.283 2.788 1.256 2.682.475 0 .52-.39.475-.827V8.66a117.036 117.036 0 01-.215-6.592c0-.249.091-1.182.091-1.324a.907.907 0 00-.532-.308.883.883 0 00-.6.107c-.328.201-.418.638-.656.934-.95 1.76-2.23 3.757-3.123 5.423-.328.59-.328.39-.611 0-.611-.933-1.403-2.54-1.958-3.474l-1.131-1.95a4.057 4.057 0 00-.6-.933C1.156.307.533.496.206.65zM59.916 6.12c.4-.342.876-.574 1.383-.677a3.007 3.007 0 011.525.086c1.494.685 1.686 2.99 1.03 4.112-.28.437-.682.773-1.152.961-.47.189-.985.22-1.473.09a3.322 3.322 0 01-1.313-.59V6.12zm0-1.666a35.314 35.314 0 010-3.864c0-.531-.181-.626-.656-.437-1.132.496-1.132.295-.973 1.37.09.544 0 6.842 0 7.728 0 1.748-.238 2.15 2.195 2.883a5.034 5.034 0 002.102.011 5.134 5.134 0 001.938-.85c2.387-2.044 1.73-7.81-2.626-7.373-.38.022-.758.069-1.131.142-.147.047-.702.39-.77.39h-.079zM26.92 11.98a4.755 4.755 0 00.147-1.902 14.508 14.508 0 010-2.008c.135 0 .283.248.565.543.283.296 2.614 2.836 2.988 3.12.13.126.287.219.458.27.171.051.351.06.526.025.328 0 .849 0 1.03-.237 0-.342-.656-.886-.94-1.181-.282-.295-.644-.673-.972-1.075a20.44 20.44 0 01-2.015-2.139c0-.106 2.57-2.363 3.044-2.788.181-.2.374-.248.329-.544a2.91 2.91 0 00-1.788 0c-.227.107-1.777 1.572-2.196 1.962-.135.142-.939 1.028-1.03.98-.135-.449 0-6.557-.09-6.9-.09-.342-1.686.201-1.64.792.088.415.134.839.135 1.264v8.448c0 .295-.09 1.181.102 1.323.44.118.9.134 1.347.048zM14.73 7.974c.52-.142 2.263.296 2.342.78a9.122 9.122 0 010 1.571c-.328.438-2.58 1.312-3.326-.248a1.716 1.716 0 010-1.418c.108-.18.252-.334.422-.452.17-.118.36-.197.562-.233zm2.387-.59a4.002 4.002 0 00-1.448-.627 5.144 5.144 0 00-1.924.142 2.568 2.568 0 00-1.33.944 2.757 2.757 0 00-.53 1.585c-.01.574.156 1.136.475 1.604a2.58 2.58 0 001.295.995 4.107 4.107 0 002.761 0c.192-.095.566-.343.701-.39.136-.047.193.342.374.437.181.095 1.03 0 1.267-.236.238-.237.283-.201.136-.544a2.541 2.541 0 01-.226-1.465V6.31a2.139 2.139 0 00-.328-1.418c-.894-1.855-6.28-1.123-5.85.448.43 1.572 1.131-.543 3.507-.248 1.279.142 1.143 1.418 1.143 2.292h-.023zM72.511 7.149h-3.88a2.14 2.14 0 01.599-1.276 2.215 2.215 0 011.313-.58c.253-.021.507.01.748.094.242.083.464.216.655.391.192.165.343.375.442.614.098.238.14.498.123.757zm-3.983 1.264c.283-.142 4.527 0 5.296 0 .77 0 .419-2.635-.984-3.71a3.656 3.656 0 00-4.028-.33 3.869 3.869 0 00-1.518 1.52 4.097 4.097 0 00-.508 2.13 4.162 4.162 0 00.467 2.08 3.944 3.944 0 001.422 1.535c1.257.886 4.629.84 5.047-.531.52-1.76-.701-.78-1.131-.591a3.922 3.922 0 01-1.132.295c-2.5.296-3.112-2.008-2.93-2.398zM51.541 7.147c.04-.505.26-.976.616-1.319a1.891 1.891 0 011.308-.536c.973-.107 2.105.78 1.912 1.855h-3.836zm-.192 1.181h5.25c.612 0 .51-.39.464-.874a3.908 3.908 0 00-.568-1.845 3.696 3.696 0 00-1.366-1.311 3.507 3.507 0 00-3.588.12 3.913 3.913 0 00-1.426 1.557 4.128 4.128 0 00-.44 2.105 3.832 3.832 0 00.447 2.072c.34.63.849 1.142 1.465 1.473 1.595 1.028 4.73.59 5.012-.58 0-.342.227-1.18-.282-.98a6.088 6.088 0 01-1.98.744c-.371.052-.748.027-1.11-.075a2.783 2.783 0 01-.995-.515c-.408-.343-1.064-1.37-.883-1.89zM76.764 12.027c.283-.295.237-.437.237-.874V9.971c0-1.56-.282-4.147 1.449-4.536.373-.095.464.236.939.141.28-.262.49-.596.611-.969 0-.744-1.132-.886-2.161-.401-.328.153-.6.685-.838.732 0-.437.09-.626-.192-1.016a2.482 2.482 0 00-1.03.343c-.464.236-.554.236-.464.827.09.59 0 4.643 0 5.612.046 1.477.046 1.43 1.449 1.323zM21.591 11.98v-.095a22.4 22.4 0 00.102-3.615c0-.933.227-2.446 1.211-2.741.792-.295.837.484 1.358 0 1.21-1.323-.419-1.855-1.403-1.418-.985.437-.849.78-1.132.875a2.47 2.47 0 010-.58c0-.248-.102-.248-.192-.39-.363-.002-.72.1-1.03.296-.464.19-.61.236-.464.827.1.906.13 1.819.09 2.73v2.693c.103 1.465-.09 1.572 1.46 1.418zM42.695 13.553a24.62 24.62 0 00-5.476 1.359c-.555.248-1.132.39-1.686.638-1.132.437-2.196.827-3.316 1.276-.373.142-3.044.968-3.508 1.075-2.263.579-5.657 1.264-7.819.236-1.03-.532-1.131 1.123 1.211 1.713a9.17 9.17 0 004.119-.189c1.131-.248 2.49-.685 3.564-1.028 1.075-.342 2.343-.732 3.508-1.075.283-.106.51-.2.837-.295l1.732-.544c.328-.094.566-.236.848-.342l1.788-.437c.328-.095.566-.19.849-.296 2.37-.527 4.786-.789 7.208-.78.6 0 1.494.154 2.105.248 1.131.142.882-.484.135-.886a11.434 11.434 0 00-6.099-.673z" fill="#4F4F4F"/></symbol><symbol fill="none" viewBox="0 0 32 32" id="play-icon" xmlns="http://www.w3.org/2000/svg"><g clip-path="url(#cclip0_2604_30931)"><path d="M27.024 16.78a1 1 0 000-1.56L9.624 1.3A1 1 0 008 2.08v27.84a1 1 0 001.625.78l17.399-13.92z" fill="currentColor"/></g><defs><clipPath id="cclip0_2604_30931"><path fill="#fff" d="M0 0h32v32H0z"/></clipPath></defs></symbol><symbol fill="none" viewBox="0 0 16 16" id="warning" xmlns="http://www.w3.org/2000/svg"><path d="M8.895 5.83V13H7.111V5.83h1.784zM7 3.96c0-.277.09-.507.272-.688C7.452 3.09 7.695 3 8 3c.3 0 .541.09.722.272.185.18.278.41.278.689a.923.923 0 01-.278.69c-.18.18-.422.27-.722.27-.305 0-.547-.09-.728-.27A.934.934 0 017 3.96z" fill="#C5C5C5"/><rect x=".5" y=".5" width="15" height="15" rx="7.5" stroke="#C5C5C5"/></symbol></svg>