<svg width="768" height="480" viewBox="0 0 768 480" fill="none" xmlns="http://www.w3.org/2000/svg">
<path d="M241.131 -10.4826C253.406 16.9445 224.79 22.0566 212.664 30.8935C212.482 31.026 212.227 30.938 212.138 30.7272C200.592 3.30668 228.502 -1.80221 240.608 -10.6411C240.787 -10.7718 241.039 -10.6883 241.131 -10.4826Z" fill="#121212"/>
<path d="M186.084 47.973C194.839 67.6338 174.288 71.3655 165.566 77.7351C165.435 77.8305 165.252 77.7679 165.188 77.6168C156.957 57.9592 177.001 54.2314 185.709 47.8604C185.838 47.7662 186.018 47.8256 186.084 47.973Z" fill="#121212"/>
<path d="M139.896 95.6351C148.651 115.296 128.1 119.028 119.378 125.397C119.247 125.493 119.064 125.43 119.001 125.279C110.769 105.621 130.813 101.893 139.521 95.5226C139.65 95.4283 139.831 95.4877 139.896 95.6351Z" fill="#121212"/>
<path d="M93.3701 143.647C102.125 163.308 81.5737 167.039 72.8517 173.409C72.7209 173.504 72.5379 173.442 72.4746 173.291C64.2426 153.633 84.2869 149.905 92.9949 143.534C93.1236 143.44 93.3044 143.499 93.3701 143.647Z" fill="#121212"/>
<path d="M47.1405 191.642C52.9658 204.859 39.0989 207.459 33.1952 211.788C33.1067 211.853 32.9836 211.811 32.9415 211.71C27.4688 198.493 40.9939 195.898 46.8881 191.568C46.9752 191.504 47.0968 191.543 47.1405 191.642Z" fill="#121212"/>
<path d="M679.66 442.043C691.934 469.47 663.318 474.582 651.193 483.419C651.011 483.551 650.756 483.463 650.667 483.253C639.121 455.832 667.03 450.723 679.137 441.884C679.316 441.754 679.568 441.837 679.66 442.043Z" fill="#121212"/>
<path d="M750.555 366.131C768.635 406.559 726.442 414.116 708.559 427.153C708.291 427.348 707.914 427.219 707.784 426.908C690.778 386.489 731.93 378.937 749.784 365.898C750.048 365.705 750.42 365.828 750.555 366.131Z" fill="#121212"/>
<path d="M841.424 269C866.549 325.371 807.645 336.035 782.653 354.279C782.278 354.553 781.753 354.373 781.572 353.94C757.946 297.579 815.397 286.925 840.348 268.677C840.717 268.407 841.235 268.578 841.424 269Z" fill="#121212"/>
<path d="M329.1 80.2967C341.375 107.724 312.759 112.836 300.633 121.673C300.451 121.805 300.196 121.717 300.107 121.506C288.561 94.086 316.471 88.9771 328.577 80.1382C328.756 80.0075 329.008 80.091 329.1 80.2967Z" fill="#121212"/>
<path d="M400 4.38478C418.079 44.8134 375.886 52.3698 358.003 65.4067C357.735 65.6021 357.359 65.4726 357.228 65.1618C340.222 24.7425 381.374 17.1913 399.228 4.15155C399.492 3.95872 399.864 4.08157 400 4.38478Z" fill="#121212"/>
<path d="M490.865 -92.7452C515.99 -36.3746 457.086 -25.7104 432.094 -7.46611C431.72 -7.19264 431.195 -7.37233 431.013 -7.80572C407.387 -64.1664 464.838 -74.8204 489.789 -93.0686C490.158 -93.3384 490.677 -93.168 490.865 -92.7452Z" fill="#121212"/>
<path d="M274.054 138.753C282.809 158.414 262.257 162.145 253.535 168.515C253.405 168.61 253.222 168.548 253.158 168.397C244.926 148.739 264.971 145.011 273.678 138.64C273.807 138.546 273.988 138.605 274.054 138.753Z" fill="#121212"/>
<path d="M227.869 186.415C236.624 206.076 216.073 209.807 207.351 216.177C207.22 216.272 207.037 216.21 206.974 216.059C198.742 196.401 218.786 192.673 227.494 186.302C227.623 186.208 227.803 186.267 227.869 186.415Z" fill="#121212"/>
<path d="M181.343 234.427C190.098 254.087 169.546 257.819 160.824 264.189C160.694 264.284 160.511 264.222 160.447 264.07C152.215 244.413 172.26 240.685 180.968 234.314C181.096 234.22 181.277 234.279 181.343 234.427Z" fill="#121212"/>
<path d="M135.829 283.163C141.654 296.379 127.787 298.979 121.884 303.308C121.795 303.373 121.672 303.331 121.63 303.23C116.157 290.013 129.682 287.418 135.577 283.088C135.664 283.024 135.785 283.063 135.829 283.163Z" fill="#121212"/>
<path d="M416.65 170.631C428.925 198.058 400.309 203.17 388.183 212.007C388.001 212.14 387.746 212.052 387.657 211.841C376.111 184.42 404.021 179.312 416.127 170.473C416.306 170.342 416.558 170.425 416.65 170.631Z" fill="#121212"/>
<path d="M487.547 94.7188C505.627 135.147 463.434 142.704 445.551 155.741C445.283 155.936 444.907 155.807 444.776 155.496C427.77 115.076 468.922 107.525 486.776 94.4855C487.04 94.2927 487.412 94.4156 487.547 94.7188Z" fill="#121212"/>
<path d="M690.694 -121.944C723.619 -48.2994 646.752 -34.5204 614.17 -10.7651C613.681 -10.4091 612.996 -10.6449 612.758 -11.2111C581.79 -84.8389 656.76 -98.608 689.29 -122.368C689.771 -122.72 690.447 -122.496 690.694 -121.944Z" fill="#121212"/>
<path d="M578.415 -2.41124C603.54 53.9594 544.636 64.6236 519.644 82.8679C519.269 83.1413 518.745 82.9617 518.563 82.5283C494.937 26.1676 552.388 15.5136 577.339 -2.73457C577.708 -3.00442 578.226 -2.83402 578.415 -2.41124Z" fill="#121212"/>
<path d="M361.603 229.087C370.358 248.748 349.807 252.479 341.085 258.849C340.954 258.944 340.771 258.882 340.708 258.731C332.476 239.073 352.52 235.345 361.228 228.974C361.357 228.88 361.538 228.939 361.603 229.087Z" fill="#121212"/>
<path d="M315.247 276.924C324.002 296.584 303.451 300.316 294.729 306.686C294.598 306.781 294.415 306.719 294.352 306.567C286.12 286.91 306.164 283.182 314.872 276.811C315.001 276.717 315.181 276.776 315.247 276.924Z" fill="#121212"/>
<path d="M268.892 324.76C277.647 344.42 257.095 348.152 248.373 354.522C248.242 354.617 248.059 354.555 247.996 354.403C239.764 334.746 259.808 331.018 268.516 324.647C268.645 324.553 268.826 324.612 268.892 324.76Z" fill="#121212"/>
<path d="M223.405 373.523C229.23 386.739 215.364 389.339 209.46 393.668C209.371 393.733 209.248 393.692 209.206 393.59C203.733 380.374 217.259 377.779 223.153 373.449C223.24 373.384 223.361 373.424 223.405 373.523Z" fill="#121212"/>
<path d="M504.182 260.964C516.457 288.391 487.841 293.503 475.715 302.34C475.533 302.473 475.278 302.385 475.189 302.174C463.643 274.753 491.553 269.645 503.659 260.806C503.838 260.675 504.09 260.758 504.182 260.964Z" fill="#121212"/>
<path d="M575.079 185.052C593.158 225.48 550.965 233.037 533.082 246.074C532.814 246.269 532.438 246.14 532.307 245.829C515.302 205.409 556.453 197.858 574.308 184.819C574.572 184.626 574.943 184.749 575.079 185.052Z" fill="#121212"/>
<path d="M778.225 -31.6108C811.149 42.0336 734.282 55.8126 701.7 79.5679C701.212 79.9239 700.526 79.6881 700.288 79.1219C669.321 5.49409 744.29 -8.27502 776.82 -32.0355C777.301 -32.3868 777.978 -32.1632 778.225 -31.6108Z" fill="#121212"/>
<path d="M665.947 87.9218C691.072 144.292 632.168 154.957 607.176 173.201C606.802 173.474 606.277 173.295 606.095 172.861C582.469 116.501 639.92 105.847 664.871 87.5984C665.24 87.3286 665.759 87.499 665.947 87.9218Z" fill="#121212"/>
<path d="M449.137 319.42C457.892 339.081 437.34 342.812 428.618 349.182C428.488 349.277 428.305 349.215 428.241 349.064C420.009 329.406 440.054 325.678 448.761 319.307C448.89 319.213 449.071 319.272 449.137 319.42Z" fill="#121212"/>
<path d="M402.778 367.257C411.533 386.918 390.982 390.649 382.26 397.019C382.129 397.114 381.946 397.052 381.883 396.9C373.651 377.243 393.695 373.515 402.403 367.144C402.532 367.05 402.713 367.109 402.778 367.257Z" fill="#121212"/>
<path d="M356.423 415.093C365.178 434.753 344.626 438.485 335.904 444.855C335.774 444.95 335.591 444.888 335.527 444.736C327.295 425.079 347.34 421.351 356.048 414.98C356.176 414.886 356.357 414.945 356.423 415.093Z" fill="#121212"/>
<path d="M310.962 463.883C316.787 477.099 302.92 479.699 297.016 484.029C296.928 484.093 296.805 484.052 296.763 483.95C291.29 470.734 304.815 468.139 310.709 463.809C310.797 463.745 310.918 463.784 310.962 463.883Z" fill="#121212"/>
<path d="M591.722 351.297C603.997 378.724 575.381 383.836 563.255 392.673C563.073 392.806 562.818 392.718 562.729 392.507C551.183 365.086 579.093 359.978 591.199 351.139C591.378 351.008 591.63 351.091 591.722 351.297Z" fill="#121212"/>
<path d="M662.616 275.386C680.696 315.814 638.502 323.371 620.619 336.408C620.351 336.603 619.975 336.474 619.844 336.163C602.839 295.743 643.99 288.192 661.845 275.153C662.109 274.96 662.48 275.083 662.616 275.386Z" fill="#121212"/>
<path d="M865.76 58.7232C898.684 132.368 821.818 146.147 789.235 169.902C788.747 170.258 788.061 170.022 787.823 169.456C756.856 95.8281 831.825 82.059 864.355 58.2985C864.836 57.9471 865.513 58.1708 865.76 58.7232Z" fill="#121212"/>
<path d="M753.484 178.256C778.609 234.626 719.705 245.291 694.713 263.535C694.339 263.808 693.814 263.629 693.632 263.195C670.007 206.835 727.457 196.181 752.409 177.932C752.778 177.663 753.296 177.833 753.484 178.256Z" fill="#121212"/>
<path d="M536.673 409.753C545.428 429.414 524.876 433.145 516.154 439.515C516.024 439.61 515.841 439.548 515.777 439.397C507.545 419.739 527.59 416.011 536.298 409.64C536.426 409.546 536.607 409.605 536.673 409.753Z" fill="#121212"/>
<path d="M490.315 457.59C499.07 477.251 478.519 480.982 469.797 487.352C469.666 487.447 469.483 487.385 469.42 487.233C461.188 467.576 481.232 463.848 489.94 457.477C490.069 457.383 490.25 457.442 490.315 457.59Z" fill="#121212"/>
<path d="M501.809 354.189C514.084 381.616 485.468 386.728 473.342 395.565C473.16 395.697 472.905 395.609 472.816 395.399C461.27 367.978 489.18 362.869 501.286 354.03C501.465 353.9 501.717 353.983 501.809 354.189Z" fill="#121212"/>
<path d="M572.703 278.277C590.782 318.706 548.589 326.262 530.706 339.299C530.438 339.495 530.062 339.365 529.931 339.054C512.926 298.635 554.077 291.084 571.932 278.044C572.196 277.851 572.567 277.974 572.703 278.277Z" fill="#121212"/>
<path d="M775.852 61.6138C808.776 135.258 731.909 149.037 699.327 172.792C698.839 173.149 698.153 172.913 697.915 172.347C666.948 98.7187 741.917 84.9496 774.447 61.1891C774.928 60.8378 775.605 61.0615 775.852 61.6138Z" fill="#121212"/>
<path d="M663.571 181.147C688.696 237.518 629.792 248.182 604.8 266.426C604.426 266.7 603.901 266.52 603.719 266.087C580.093 209.726 637.544 199.072 662.495 180.824C662.864 180.554 663.383 180.725 663.571 181.147Z" fill="#121212"/>
<path d="M446.762 412.644C455.517 432.305 434.965 436.037 426.243 442.406C426.113 442.502 425.93 442.439 425.866 442.288C417.634 422.631 437.679 418.903 446.386 412.532C446.515 412.438 446.696 412.497 446.762 412.644Z" fill="#121212"/>
<path d="M400.405 460.481C409.16 480.142 388.609 483.874 379.887 490.243C379.756 490.339 379.573 490.276 379.51 490.125C371.278 470.467 391.322 466.74 400.03 460.369C400.159 460.275 400.34 460.334 400.405 460.481Z" fill="#121212"/>
<path d="M589.347 444.522C601.622 471.949 573.006 477.061 560.88 485.898C560.698 486.031 560.443 485.943 560.354 485.732C548.808 458.312 576.718 453.203 588.824 444.364C589.003 444.233 589.255 444.317 589.347 444.522Z" fill="#121212"/>
<path d="M660.244 368.61C678.324 409.039 636.13 416.595 618.247 429.632C617.979 429.827 617.603 429.698 617.472 429.387C600.467 388.968 641.618 381.416 659.473 368.377C659.737 368.184 660.108 368.307 660.244 368.61Z" fill="#121212"/>
<path d="M863.39 151.948C896.314 225.592 819.447 239.371 786.865 263.126C786.377 263.483 785.691 263.247 785.453 262.681C754.486 189.053 829.455 175.284 861.985 151.523C862.466 151.172 863.143 151.395 863.39 151.948Z" fill="#121212"/>
<path d="M751.112 271.48C776.237 327.85 717.333 338.515 692.341 356.759C691.967 357.032 691.442 356.853 691.26 356.419C667.634 300.059 725.085 289.405 750.037 271.157C750.405 270.887 750.924 271.057 751.112 271.48Z" fill="#121212"/>
<path d="M238.762 82.7454C251.037 110.173 222.421 115.285 210.295 124.122C210.113 124.254 209.858 124.166 209.769 123.955C198.223 96.5347 226.133 91.4258 238.239 82.5869C238.418 82.4562 238.67 82.5397 238.762 82.7454Z" fill="#121212"/>
<path d="M309.66 6.834C327.74 47.2626 285.546 54.8191 267.663 67.8559C267.395 68.0514 267.019 67.9218 266.888 67.611C249.883 27.1917 291.034 19.6405 308.889 6.60077C309.153 6.40794 309.524 6.53079 309.66 6.834Z" fill="#121212"/>
<path d="M400.526 -90.297C425.651 -33.9264 366.747 -23.2621 341.755 -5.01787C341.381 -4.7444 340.856 -4.92409 340.674 -5.35748C317.049 -61.7181 374.499 -72.3721 399.451 -90.6203C399.82 -90.8902 400.338 -90.7198 400.526 -90.297Z" fill="#121212"/>
<path d="M183.716 141.2C192.471 160.861 171.919 164.593 163.197 170.962C163.067 171.058 162.884 170.995 162.82 170.844C154.588 151.186 174.633 147.458 183.341 141.087C183.469 140.993 183.65 141.053 183.716 141.2Z" fill="#121212"/>
<path d="M137.359 189.037C146.114 208.698 125.563 212.429 116.841 218.799C116.71 218.895 116.527 218.832 116.464 218.681C108.232 199.023 128.276 195.295 136.984 188.924C137.113 188.83 137.294 188.89 137.359 189.037Z" fill="#121212"/>
<path d="M92.0507 237.983C97.8759 251.199 84.009 253.799 78.1054 258.128C78.0169 258.193 77.8937 258.152 77.8517 258.05C72.3789 244.834 85.9041 242.239 91.7982 237.908C91.8854 237.844 92.007 237.884 92.0507 237.983Z" fill="#121212"/>
<path d="M326.298 173.077C338.573 200.505 309.957 205.617 297.831 214.454C297.649 214.586 297.394 214.498 297.305 214.287C285.759 186.867 313.669 181.758 325.775 172.919C325.954 172.788 326.206 172.872 326.298 173.077Z" fill="#121212"/>
<path d="M397.196 97.166C415.276 137.595 373.083 145.151 355.199 158.188C354.931 158.383 354.555 158.254 354.424 157.943C337.419 117.524 378.57 109.973 396.425 96.9328C396.689 96.74 397.06 96.8628 397.196 97.166Z" fill="#121212"/>
<path d="M600.34 -119.497C633.264 -45.8521 556.398 -32.0731 523.815 -8.31787C523.327 -7.9618 522.642 -8.19762 522.403 -8.7638C491.436 -82.3917 566.406 -96.1608 598.935 -119.921C599.416 -120.273 600.093 -120.049 600.34 -119.497Z" fill="#121212"/>
<path d="M488.062 0.0360299C513.187 56.4066 454.283 67.0709 429.291 85.3151C428.917 85.5886 428.392 85.4089 428.21 84.9755C404.585 28.6149 462.035 17.9609 486.987 -0.287309C487.356 -0.557157 487.874 -0.386755 488.062 0.0360299Z" fill="#121212"/>
<path d="M271.254 231.533C280.009 251.194 259.458 254.926 250.735 261.295C250.605 261.391 250.422 261.328 250.358 261.177C242.126 241.519 262.171 237.791 270.879 231.421C271.007 231.326 271.188 231.386 271.254 231.533Z" fill="#121212"/>
<path d="M224.894 279.37C233.649 299.031 213.098 302.762 204.376 309.132C204.245 309.228 204.062 309.165 203.999 309.014C195.767 289.356 215.811 285.628 224.519 279.257C224.648 279.163 224.829 279.223 224.894 279.37Z" fill="#121212"/>
<path d="M179.611 328.342C185.436 341.558 171.57 344.158 165.666 348.488C165.577 348.552 165.454 348.511 165.412 348.409C159.939 335.193 173.465 332.598 179.359 328.268C179.446 328.204 179.568 328.243 179.611 328.342Z" fill="#121212"/>
<path d="M413.835 263.412C426.11 290.839 397.494 295.952 385.368 304.789C385.187 304.921 384.931 304.833 384.843 304.622C373.296 277.202 401.206 272.093 413.312 263.254C413.491 263.123 413.743 263.207 413.835 263.412Z" fill="#121212"/>
<path d="M484.734 187.5C502.814 227.929 460.621 235.485 442.737 248.522C442.469 248.717 442.093 248.588 441.962 248.277C424.957 207.858 466.109 200.307 483.963 187.267C484.227 187.074 484.598 187.197 484.734 187.5Z" fill="#121212"/>
<path d="M687.882 -29.1626C720.806 44.4818 643.94 58.2608 611.357 82.0161C610.869 82.3722 610.184 82.1364 609.945 81.5702C578.978 7.94233 653.948 -5.82677 686.477 -29.5872C686.958 -29.9386 687.635 -29.7149 687.882 -29.1626Z" fill="#121212"/>
<path d="M575.602 90.37C600.727 146.741 541.823 157.405 516.832 175.649C516.457 175.923 515.932 175.743 515.751 175.31C492.125 118.949 549.575 108.295 574.527 90.0467C574.896 89.7768 575.414 89.9472 575.602 90.37Z" fill="#121212"/>
<path d="M358.79 321.868C367.545 341.529 346.994 345.261 338.272 351.63C338.141 351.726 337.958 351.663 337.895 351.512C329.663 331.854 349.707 328.126 358.415 321.755C358.544 321.661 358.724 321.721 358.79 321.868Z" fill="#121212"/>
<path d="M312.434 369.704C321.189 389.365 300.637 393.096 291.915 399.466C291.784 399.561 291.601 399.499 291.538 399.348C283.306 379.69 303.35 375.962 312.058 369.591C312.187 369.497 312.368 369.557 312.434 369.704Z" fill="#121212"/>
<path d="M267.178 418.704C273.003 431.92 259.136 434.52 253.232 438.849C253.144 438.914 253.021 438.872 252.979 438.771C247.506 425.555 261.031 422.959 266.925 418.629C267.012 418.565 267.134 418.604 267.178 418.704Z" fill="#121212"/>
<rect x="0.5" width="767.5" height="480" fill="url(#paint0_linear_2408_21320)"/>
<defs>
<linearGradient id="paint0_linear_2408_21320" x1="157.004" y1="248" x2="1899.5" y2="-441.234" gradientUnits="userSpaceOnUse">
<stop stop-color="#080808"/>
<stop offset="1" stop-color="#121212" stop-opacity="0"/>
<stop offset="1" stop-color="#080808" stop-opacity="0"/>
</linearGradient>
</defs>
</svg>
