<svg width="696" height="356" viewBox="0 0 696 356" fill="none" xmlns="http://www.w3.org/2000/svg">
<g clip-path="url(#clip0_2531_30951)">
<path d="M257.315 8.52102C269.982 35.9481 240.452 41.0603 227.939 49.8972C227.752 50.0296 227.488 49.9417 227.397 49.7308C215.482 22.3103 244.283 17.2014 256.775 8.36258C256.96 8.23188 257.22 8.31531 257.315 8.52102Z" fill="#121212"/>
<path d="M330.475 -67.3909C349.132 -26.9622 305.592 -19.4058 287.138 -6.36891C286.861 -6.1735 286.473 -6.30301 286.338 -6.61382C268.789 -47.0332 311.255 -54.5844 329.679 -67.6241C329.952 -67.8169 330.335 -67.6941 330.475 -67.3909Z" fill="#121212"/>
<path d="M200.513 66.9767C209.547 86.6375 188.34 90.3692 179.34 96.7387C179.205 96.8342 179.016 96.7716 178.95 96.6205C170.456 76.9629 191.14 73.235 200.126 66.8641C200.259 66.7699 200.445 66.8292 200.513 66.9767Z" fill="#121212"/>
<path d="M152.849 114.639C161.883 134.3 140.676 138.032 131.675 144.401C131.541 144.497 131.352 144.434 131.286 144.283C122.792 124.625 143.476 120.898 152.462 114.527C152.595 114.432 152.781 114.492 152.849 114.639Z" fill="#121212"/>
<path d="M104.837 162.651C113.872 182.312 92.6643 186.043 83.6638 192.413C83.5289 192.509 83.34 192.446 83.2747 192.295C74.7799 172.637 95.4641 168.909 104.45 162.538C104.583 162.444 104.769 162.504 104.837 162.651Z" fill="#121212"/>
<path d="M57.1332 210.646C63.1444 223.863 48.8349 226.462 42.7427 230.792C42.6514 230.857 42.5244 230.815 42.4809 230.714C36.8335 217.497 50.7904 214.902 56.8727 210.572C56.9626 210.508 57.0881 210.547 57.1332 210.646Z" fill="#121212"/>
<path d="M348.089 99.3011C360.756 126.728 331.226 131.84 318.714 140.677C318.526 140.81 318.263 140.722 318.171 140.511C306.256 113.09 335.057 107.981 347.55 99.1426C347.734 99.0119 347.994 99.0953 348.089 99.3011Z" fill="#121212"/>
<path d="M421.249 23.3892C439.906 63.8178 396.366 71.3742 377.912 84.4111C377.635 84.6065 377.247 84.477 377.112 84.1662C359.564 43.7469 402.029 36.1957 420.453 23.1559C420.726 22.9631 421.109 23.086 421.249 23.3892Z" fill="#121212"/>
<path d="M515.018 -73.7413C540.945 -17.3707 480.161 -6.70649 454.371 11.5378C453.985 11.8113 453.443 11.6316 453.256 11.1982C428.876 -45.1625 488.16 -55.8165 513.908 -74.0647C514.289 -74.3345 514.824 -74.1641 515.018 -73.7413Z" fill="#121212"/>
<path d="M291.287 157.757C300.322 177.418 279.114 181.149 270.114 187.519C269.979 187.614 269.79 187.552 269.725 187.4C261.23 167.743 281.914 164.015 290.9 157.644C291.033 157.55 291.22 157.609 291.287 157.757Z" fill="#121212"/>
<path d="M243.626 205.419C252.661 225.08 231.453 228.812 222.453 235.181C222.318 235.277 222.129 235.214 222.064 235.063C213.569 215.405 234.253 211.678 243.239 205.307C243.372 205.213 243.558 205.272 243.626 205.419Z" fill="#121212"/>
<path d="M195.613 253.43C204.647 273.091 183.44 276.823 174.439 283.192C174.304 283.288 174.115 283.225 174.05 283.074C165.555 263.416 186.239 259.688 195.225 253.317C195.358 253.223 195.545 253.283 195.613 253.43Z" fill="#121212"/>
<path d="M148.648 302.166C154.659 315.383 140.35 317.983 134.257 322.312C134.166 322.377 134.039 322.335 133.996 322.234C128.348 309.017 142.305 306.422 148.387 302.092C148.477 302.028 148.603 302.067 148.648 302.166Z" fill="#121212"/>
<path d="M438.425 189.634C451.092 217.061 421.562 222.173 409.049 231.01C408.862 231.142 408.599 231.054 408.507 230.843C396.592 203.423 425.393 198.314 437.885 189.475C438.07 189.344 438.33 189.428 438.425 189.634Z" fill="#121212"/>
<path d="M511.585 113.722C530.242 154.151 486.702 161.707 468.248 174.744C467.971 174.939 467.583 174.81 467.448 174.499C449.9 134.08 492.365 126.528 510.789 113.489C511.062 113.296 511.445 113.419 511.585 113.722Z" fill="#121212"/>
<path d="M721.216 -102.941C755.192 -29.2966 675.871 -15.5176 642.249 8.23767C641.745 8.59374 641.037 8.35792 640.792 7.79175C608.836 -65.8361 686.198 -79.6052 719.766 -103.366C720.263 -103.717 720.961 -103.493 721.216 -102.941Z" fill="#121212"/>
<path d="M605.354 16.5917C631.281 72.9623 570.497 83.6265 544.707 101.871C544.32 102.144 543.779 101.965 543.592 101.531C519.212 45.1705 578.496 34.5165 604.244 16.2683C604.625 15.9985 605.16 16.1689 605.354 16.5917Z" fill="#121212"/>
<path d="M381.623 248.089C390.658 267.75 369.45 271.482 360.45 277.851C360.315 277.947 360.126 277.884 360.061 277.733C351.566 258.075 372.25 254.348 381.236 247.977C381.369 247.882 381.556 247.942 381.623 248.089Z" fill="#121212"/>
<path d="M333.785 295.926C342.82 315.587 321.613 319.319 312.612 325.688C312.477 325.784 312.288 325.721 312.223 325.57C303.728 305.912 324.412 302.184 333.398 295.814C333.531 295.719 333.718 295.779 333.785 295.926Z" fill="#121212"/>
<path d="M285.947 343.763C294.982 363.424 273.775 367.155 264.774 373.525C264.639 373.62 264.45 373.558 264.385 373.407C255.89 353.749 276.574 350.021 285.56 343.65C285.693 343.556 285.88 343.615 285.947 343.763Z" fill="#121212"/>
<path d="M528.768 279.968C541.435 307.395 511.905 312.507 499.392 321.344C499.205 321.476 498.941 321.388 498.85 321.177C486.935 293.757 515.736 288.648 528.228 279.809C528.413 279.679 528.673 279.762 528.768 279.968Z" fill="#121212"/>
<path d="M601.928 204.056C620.585 244.484 577.045 252.041 558.591 265.078C558.314 265.273 557.926 265.144 557.791 264.833C540.243 224.413 582.708 216.862 601.132 203.823C601.405 203.63 601.788 203.753 601.928 204.056Z" fill="#121212"/>
<path d="M811.559 -12.6073C845.534 61.0371 766.214 74.8161 732.591 98.5714C732.087 98.9275 731.38 98.6917 731.134 98.1255C699.178 24.4976 776.541 10.7285 810.109 -13.0319C810.605 -13.3833 811.304 -13.1596 811.559 -12.6073Z" fill="#121212"/>
<path d="M695.695 106.926C721.622 163.296 660.838 173.961 635.048 192.205C634.661 192.478 634.12 192.299 633.932 191.865C609.552 135.505 668.837 124.851 694.585 106.602C694.966 106.332 695.5 106.503 695.695 106.926Z" fill="#121212"/>
<path d="M471.964 338.423C480.999 358.084 459.791 361.816 450.791 368.185C450.656 368.281 450.467 368.218 450.402 368.067C441.907 348.41 462.591 344.682 471.577 338.311C471.71 338.217 471.896 338.276 471.964 338.423Z" fill="#121212"/>
<path d="M692.264 294.389C710.921 334.818 667.381 342.374 648.927 355.411C648.65 355.606 648.262 355.477 648.127 355.166C630.579 314.747 673.044 307.195 691.468 294.156C691.741 293.963 692.124 294.086 692.264 294.389Z" fill="#121212"/>
<path d="M786.031 197.259C811.958 253.629 751.174 264.294 725.384 282.538C724.997 282.811 724.456 282.632 724.268 282.198C699.888 225.838 759.173 215.184 784.921 196.935C785.302 196.665 785.836 196.836 786.031 197.259Z" fill="#121212"/>
<path d="M599.471 297.282C618.128 337.71 574.588 345.267 556.134 358.303C555.857 358.499 555.469 358.369 555.334 358.059C537.786 317.639 580.251 310.088 598.675 297.048C598.948 296.855 599.331 296.978 599.471 297.282Z" fill="#121212"/>
<path d="M809.105 80.6187C843.08 154.263 763.76 168.042 730.137 191.797C729.633 192.153 728.926 191.918 728.68 191.351C696.724 117.724 774.087 103.954 807.655 80.194C808.151 79.8427 808.85 80.0663 809.105 80.6187Z" fill="#121212"/>
<path d="M693.241 200.151C719.168 256.522 658.384 267.186 632.594 285.43C632.207 285.704 631.666 285.524 631.478 285.091C607.098 228.73 666.383 218.076 692.131 199.828C692.511 199.558 693.046 199.728 693.241 200.151Z" fill="#121212"/>
<path d="M783.568 290.484C809.495 346.855 748.711 357.519 722.921 375.763C722.534 376.037 721.993 375.857 721.805 375.424C697.425 319.063 756.71 308.409 782.458 290.161C782.839 289.891 783.373 290.061 783.568 290.484Z" fill="#121212"/>
<path d="M254.876 101.748C267.542 129.175 238.013 134.287 225.5 143.124C225.312 143.256 225.049 143.168 224.957 142.957C213.042 115.537 241.843 110.428 254.336 101.589C254.52 101.458 254.781 101.542 254.876 101.748Z" fill="#121212"/>
<path d="M328.035 25.836C346.692 66.2646 303.152 73.821 284.698 86.8579C284.422 87.0533 284.033 86.9238 283.898 86.613C266.35 46.1936 308.815 38.6425 327.24 25.6027C327.512 25.4099 327.895 25.5327 328.035 25.836Z" fill="#121212"/>
<path d="M421.804 -71.2942C447.731 -14.9236 386.947 -4.25935 361.157 13.9849C360.771 14.2584 360.229 14.0787 360.042 13.6453C335.662 -42.7153 394.946 -53.3693 420.694 -71.6175C421.075 -71.8874 421.61 -71.717 421.804 -71.2942Z" fill="#121212"/>
<path d="M198.073 160.203C207.108 179.864 185.901 183.596 176.9 189.965C176.765 190.061 176.576 189.998 176.511 189.847C168.016 170.19 188.7 166.462 197.686 160.091C197.819 159.997 198.006 160.056 198.073 160.203Z" fill="#121212"/>
<path d="M150.236 208.04C159.27 227.701 138.063 231.433 129.062 237.802C128.927 237.898 128.738 237.835 128.673 237.684C120.178 218.026 140.862 214.299 149.848 207.928C149.981 207.833 150.168 207.893 150.236 208.04Z" fill="#121212"/>
<path d="M103.48 256.985C109.491 270.201 95.1815 272.801 89.0894 277.13C88.9981 277.195 88.871 277.154 88.8276 277.052C83.1802 263.836 97.1371 261.241 103.219 256.911C103.309 256.847 103.435 256.886 103.48 256.985Z" fill="#121212"/>
<path d="M345.209 192.082C357.875 219.509 328.346 224.621 315.833 233.458C315.645 233.59 315.382 233.502 315.29 233.292C303.375 205.871 332.176 200.762 344.669 191.923C344.853 191.793 345.114 191.876 345.209 192.082Z" fill="#121212"/>
<path d="M418.368 116.169C437.025 156.598 393.485 164.155 375.031 177.191C374.755 177.387 374.366 177.257 374.231 176.946C356.683 136.527 399.148 128.976 417.573 115.936C417.845 115.743 418.229 115.866 418.368 116.169Z" fill="#121212"/>
<path d="M627.999 -100.493C661.975 -26.8487 582.654 -13.0697 549.032 10.6855C548.528 11.0416 547.821 10.8058 547.575 10.2396C515.619 -63.3882 592.982 -77.1573 626.55 -100.918C627.046 -101.269 627.744 -101.045 627.999 -100.493Z" fill="#121212"/>
<path d="M512.135 19.0394C538.062 75.41 477.278 86.0743 451.488 104.319C451.102 104.592 450.56 104.412 450.373 103.979C425.993 47.6183 485.277 36.9643 511.025 18.7161C511.406 18.4463 511.941 18.6167 512.135 19.0394Z" fill="#121212"/>
<path d="M288.405 250.537C297.439 270.198 276.232 273.929 267.231 280.299C267.096 280.395 266.907 280.332 266.842 280.181C258.347 260.523 279.031 256.795 288.017 250.424C288.15 250.33 288.337 250.39 288.405 250.537Z" fill="#121212"/>
<path d="M240.567 298.374C249.601 318.034 228.394 321.766 219.393 328.136C219.258 328.231 219.069 328.169 219.004 328.017C210.509 308.36 231.194 304.632 240.179 298.261C240.312 298.167 240.499 298.226 240.567 298.374Z" fill="#121212"/>
<path d="M193.837 347.346C199.849 360.562 185.539 363.162 179.447 367.491C179.356 367.556 179.228 367.514 179.185 367.413C173.538 354.197 187.494 351.601 193.577 347.271C193.667 347.207 193.792 347.246 193.837 347.346Z" fill="#121212"/>
<path d="M435.541 282.415C448.207 309.842 418.678 314.954 406.165 323.791C405.977 323.923 405.714 323.835 405.622 323.624C393.707 296.204 422.508 291.095 435.001 282.256C435.185 282.125 435.446 282.209 435.541 282.415Z" fill="#121212"/>
<path d="M508.699 206.503C527.356 246.931 483.816 254.488 465.362 267.525C465.086 267.72 464.697 267.591 464.562 267.28C447.014 226.86 489.479 219.309 507.904 206.269C508.176 206.077 508.56 206.199 508.699 206.503Z" fill="#121212"/>
<path d="M718.333 -10.1601C752.309 63.4843 672.988 77.2633 639.366 101.019C638.862 101.375 638.155 101.139 637.909 100.573C605.953 26.9448 683.316 13.1757 716.884 -10.5848C717.38 -10.9362 718.078 -10.7125 718.333 -10.1601Z" fill="#121212"/>
<path d="M602.471 109.372C628.398 165.743 567.614 176.407 541.824 194.652C541.438 194.925 540.896 194.745 540.709 194.312C516.329 137.951 575.613 127.297 601.361 109.049C601.742 108.779 602.277 108.95 602.471 109.372Z" fill="#121212"/>
<path d="M378.736 340.87C387.77 360.531 366.563 364.263 357.562 370.633C357.427 370.728 357.238 370.665 357.173 370.514C348.678 350.857 369.362 347.129 378.348 340.758C378.481 340.664 378.668 340.723 378.736 340.87Z" fill="#121212"/>
<rect y="-9" width="792" height="575" fill="url(#paint0_linear_2531_30951)"/>
</g>
<defs>
<linearGradient id="paint0_linear_2531_30951" x1="161.5" y1="288.083" x2="661.98" y2="-11.9237" gradientUnits="userSpaceOnUse">
<stop stop-color="#080808"/>
<stop offset="1" stop-color="#080808" stop-opacity="0"/>
</linearGradient>
<clipPath id="clip0_2531_30951">
<rect width="696" height="705" fill="white"/>
</clipPath>
</defs>
</svg>
