<svg width="60" height="60" viewBox="0 0 60 60" fill="none" xmlns="http://www.w3.org/2000/svg">
<g clip-path="url(#clip0_2590_31874)">
<path d="M38.7891 14.1797H44.0625V26.4844C44.0625 42.9881 30.6834 56.4844 14.1797 56.4844H0V60H21.2109C39.6564 60 54.6094 44.9298 54.6094 26.4844V14.1797H60L49.3359 0L38.7891 14.1797Z" fill="#1B1B1B"/>
<path d="M0 42.4219H5.39062V52.9688H0V42.4219ZM8.90625 31.875H14.1797V52.9688H8.90625V31.875ZM17.6953 52.7064C19.4927 52.4655 21.26 52.0379 22.9688 51.4307V21.2109H17.6953V52.7064ZM31.7578 46.1993V10.6641H26.4844V49.9042C28.3982 48.8895 30.159 47.635 31.7578 46.1993Z" fill="#1B1B1B"/>
</g>
<defs>
<clipPath id="clip0_2590_31874">
<rect width="60" height="60" fill="white"/>
</clipPath>
</defs>
</svg>
