<svg width="500" height="500" viewBox="0 0 500 500" fill="none" xmlns="http://www.w3.org/2000/svg">
<mask id="path-1-inside-1_2402_27659" fill="white">
<path d="M156.542 177.375L156.677 179.531L156.708 179.938C157.53 190.101 161.876 199.657 168.995 206.957C176.114 214.257 185.559 218.84 195.698 219.917L202.073 220.604L202.396 221.385L198.385 226.354C194.157 231.587 191.193 237.725 189.726 244.291C188.259 250.857 188.328 257.673 189.927 264.208C178.959 260.526 167.271 259.505 155.831 261.231C144.39 262.956 133.523 267.377 124.128 274.129C114.733 280.882 107.078 289.772 101.796 300.066C96.5144 310.36 93.7563 321.763 93.75 333.333C93.75 373.573 126.427 406.25 166.667 406.25C178.232 406.243 189.629 403.486 199.919 398.208C210.209 392.929 219.097 385.28 225.85 375.891C232.602 366.503 237.026 355.643 238.757 344.208C240.487 332.774 239.474 321.091 235.802 310.125C242.34 311.719 249.159 311.783 255.726 310.313C262.293 308.842 268.433 305.876 273.667 301.646L278.656 297.625L279.438 297.948L280.125 304.292C281.197 314.424 285.777 323.863 293.071 330.977C300.366 338.091 309.917 342.432 320.073 343.25L320.281 343.271L322.594 343.427L322.49 344.844V344.917C322.059 350.233 319.785 355.232 316.061 359.051C312.338 362.869 307.397 365.268 302.094 365.833C296.49 366.458 289.448 367.208 284.042 367.781C283.635 367.825 283.25 367.988 282.935 368.249C282.62 368.51 282.389 368.858 282.271 369.25L282.26 369.281C280.115 376.302 277.292 383.115 273.875 389.625L273.844 389.698C273.655 390.051 273.575 390.451 273.612 390.849C273.649 391.247 273.802 391.626 274.052 391.938L274.104 392C277.458 396.229 281.875 401.688 285.438 406.094C288.797 410.247 290.599 415.443 290.532 420.785C290.466 426.126 288.535 431.276 285.073 435.344L284.99 435.448C279.954 441.23 274.513 446.647 268.708 451.656L268.656 451.708C264.593 455.163 259.451 457.09 254.118 457.157C248.785 457.223 243.596 455.425 239.448 452.073C235.042 448.552 229.531 444.104 225.302 440.688C224.982 440.434 224.595 440.278 224.189 440.239C223.782 440.2 223.373 440.28 223.01 440.469L222.99 440.49C216.5 443.937 209.698 446.76 202.677 448.948L202.594 448.969C202.197 449.091 201.846 449.331 201.588 449.656C201.33 449.982 201.176 450.377 201.146 450.792C200.542 456.146 199.802 463.135 199.198 468.771C198.631 474.104 196.212 479.07 192.361 482.804C188.511 486.539 183.473 488.805 178.125 489.208C170.469 489.729 162.802 489.719 155.156 489.156H155.083C149.767 488.725 144.768 486.452 140.949 482.728C137.131 479.004 134.732 474.064 134.167 468.76C133.542 463.156 132.792 456.115 132.219 450.708C132.175 450.302 132.012 449.917 131.751 449.602C131.49 449.287 131.142 449.056 130.75 448.938L130.719 448.927C123.691 446.771 116.881 443.964 110.375 440.542L110.302 440.51C109.949 440.322 109.549 440.241 109.151 440.278C108.753 440.315 108.374 440.469 108.063 440.719L108 440.771C103.771 444.125 98.3125 448.542 93.9062 452.104C89.7531 455.463 84.5567 457.266 79.2155 457.199C73.8743 457.132 68.7243 455.201 64.6563 451.74L64.5521 451.656C58.7698 446.621 53.3534 441.18 48.3437 435.375L48.2917 435.323C44.837 431.26 42.9099 426.117 42.8433 420.784C42.7767 415.452 44.5749 410.263 47.9271 406.115C51.7106 401.39 55.5057 396.675 59.3125 391.969C59.5664 391.649 59.7222 391.262 59.761 390.855C59.7999 390.449 59.7201 390.039 59.5312 389.677L59.5104 389.656C56.0625 383.167 53.2396 376.365 51.0521 369.344L51.0312 369.26C50.9123 368.878 50.6844 368.538 50.3755 368.283C50.0666 368.027 49.6899 367.868 49.2916 367.823L49.2083 367.813C43.8541 367.208 36.8646 366.469 31.2292 365.865C25.9188 365.3 20.9721 362.899 17.2428 359.077C13.5135 355.254 11.2355 350.25 10.8021 344.927L10.7917 344.792C10.2708 337.135 10.2812 329.469 10.8437 321.823V321.75C11.2748 316.434 13.5484 311.435 17.2721 307.616C20.9957 303.797 25.9358 301.398 31.2396 300.833C36.8437 300.208 43.8854 299.458 49.2916 298.885C49.6984 298.842 50.0833 298.679 50.3982 298.418C50.7131 298.156 50.9442 297.808 51.0625 297.417L51.0729 297.385C53.2289 290.358 56.0362 283.547 59.4583 277.042L59.4896 276.969C59.678 276.616 59.7587 276.216 59.7216 275.818C59.6846 275.42 59.5315 275.041 59.2813 274.729L59.2292 274.667C55.875 270.438 51.4583 264.979 47.8958 260.573C44.5366 256.42 42.7344 251.223 42.801 245.882C42.8676 240.541 44.7987 235.391 48.2604 231.323L48.3437 231.219C53.3794 225.437 58.8202 220.02 64.625 215.01L64.6771 214.958C68.7403 211.504 73.8826 209.577 79.2155 209.51C84.5485 209.443 89.7372 211.242 93.8854 214.594C98.2917 218.115 103.802 222.563 108.031 225.979C108.351 226.233 108.738 226.389 109.145 226.428C109.551 226.467 109.961 226.387 110.323 226.198L110.344 226.177C116.837 222.732 123.637 219.901 130.656 217.719L130.74 217.698C131.122 217.579 131.462 217.351 131.717 217.042C131.973 216.733 132.132 216.357 132.177 215.958L132.187 215.875C132.792 210.521 133.531 203.531 134.135 197.896V197.906C134.698 192.594 137.098 187.645 140.92 183.913C144.743 180.182 149.749 177.903 155.073 177.469L155.208 177.458L156.542 177.375ZM166.667 281.25C137.917 281.25 114.583 304.583 114.583 333.333C114.583 362.083 137.917 385.417 166.667 385.417C195.417 385.417 218.75 362.083 218.75 333.333C218.75 304.583 195.417 281.25 166.667 281.25Z"/>
</mask>
<path d="M156.542 177.375L156.677 179.531L156.708 179.938C157.53 190.101 161.876 199.657 168.995 206.957C176.114 214.257 185.559 218.84 195.698 219.917L202.073 220.604L202.396 221.385L198.385 226.354C194.157 231.587 191.193 237.725 189.726 244.291C188.259 250.857 188.328 257.673 189.927 264.208C178.959 260.526 167.271 259.505 155.831 261.231C144.39 262.956 133.523 267.377 124.128 274.129C114.733 280.882 107.078 289.772 101.796 300.066C96.5144 310.36 93.7563 321.763 93.75 333.333C93.75 373.573 126.427 406.25 166.667 406.25C178.232 406.243 189.629 403.486 199.919 398.208C210.209 392.929 219.097 385.28 225.85 375.891C232.602 366.503 237.026 355.643 238.757 344.208C240.487 332.774 239.474 321.091 235.802 310.125C242.34 311.719 249.159 311.783 255.726 310.313C262.293 308.842 268.433 305.876 273.667 301.646L278.656 297.625L279.438 297.948L280.125 304.292C281.197 314.424 285.777 323.863 293.071 330.977C300.366 338.091 309.917 342.432 320.073 343.25L320.281 343.271L322.594 343.427L322.49 344.844V344.917C322.059 350.233 319.785 355.232 316.061 359.051C312.338 362.869 307.397 365.268 302.094 365.833C296.49 366.458 289.448 367.208 284.042 367.781C283.635 367.825 283.25 367.988 282.935 368.249C282.62 368.51 282.389 368.858 282.271 369.25L282.26 369.281C280.115 376.302 277.292 383.115 273.875 389.625L273.844 389.698C273.655 390.051 273.575 390.451 273.612 390.849C273.649 391.247 273.802 391.626 274.052 391.938L274.104 392C277.458 396.229 281.875 401.688 285.438 406.094C288.797 410.247 290.599 415.443 290.532 420.785C290.466 426.126 288.535 431.276 285.073 435.344L284.99 435.448C279.954 441.23 274.513 446.647 268.708 451.656L268.656 451.708C264.593 455.163 259.451 457.09 254.118 457.157C248.785 457.223 243.596 455.425 239.448 452.073C235.042 448.552 229.531 444.104 225.302 440.688C224.982 440.434 224.595 440.278 224.189 440.239C223.782 440.2 223.373 440.28 223.01 440.469L222.99 440.49C216.5 443.937 209.698 446.76 202.677 448.948L202.594 448.969C202.197 449.091 201.846 449.331 201.588 449.656C201.33 449.982 201.176 450.377 201.146 450.792C200.542 456.146 199.802 463.135 199.198 468.771C198.631 474.104 196.212 479.07 192.361 482.804C188.511 486.539 183.473 488.805 178.125 489.208C170.469 489.729 162.802 489.719 155.156 489.156H155.083C149.767 488.725 144.768 486.452 140.949 482.728C137.131 479.004 134.732 474.064 134.167 468.76C133.542 463.156 132.792 456.115 132.219 450.708C132.175 450.302 132.012 449.917 131.751 449.602C131.49 449.287 131.142 449.056 130.75 448.938L130.719 448.927C123.691 446.771 116.881 443.964 110.375 440.542L110.302 440.51C109.949 440.322 109.549 440.241 109.151 440.278C108.753 440.315 108.374 440.469 108.063 440.719L108 440.771C103.771 444.125 98.3125 448.542 93.9062 452.104C89.7531 455.463 84.5567 457.266 79.2155 457.199C73.8743 457.132 68.7243 455.201 64.6563 451.74L64.5521 451.656C58.7698 446.621 53.3534 441.18 48.3437 435.375L48.2917 435.323C44.837 431.26 42.9099 426.117 42.8433 420.784C42.7767 415.452 44.5749 410.263 47.9271 406.115C51.7106 401.39 55.5057 396.675 59.3125 391.969C59.5664 391.649 59.7222 391.262 59.761 390.855C59.7999 390.449 59.7201 390.039 59.5312 389.677L59.5104 389.656C56.0625 383.167 53.2396 376.365 51.0521 369.344L51.0312 369.26C50.9123 368.878 50.6844 368.538 50.3755 368.283C50.0666 368.027 49.6899 367.868 49.2916 367.823L49.2083 367.813C43.8541 367.208 36.8646 366.469 31.2292 365.865C25.9188 365.3 20.9721 362.899 17.2428 359.077C13.5135 355.254 11.2355 350.25 10.8021 344.927L10.7917 344.792C10.2708 337.135 10.2812 329.469 10.8437 321.823V321.75C11.2748 316.434 13.5484 311.435 17.2721 307.616C20.9957 303.797 25.9358 301.398 31.2396 300.833C36.8437 300.208 43.8854 299.458 49.2916 298.885C49.6984 298.842 50.0833 298.679 50.3982 298.418C50.7131 298.156 50.9442 297.808 51.0625 297.417L51.0729 297.385C53.2289 290.358 56.0362 283.547 59.4583 277.042L59.4896 276.969C59.678 276.616 59.7587 276.216 59.7216 275.818C59.6846 275.42 59.5315 275.041 59.2813 274.729L59.2292 274.667C55.875 270.438 51.4583 264.979 47.8958 260.573C44.5366 256.42 42.7344 251.223 42.801 245.882C42.8676 240.541 44.7987 235.391 48.2604 231.323L48.3437 231.219C53.3794 225.437 58.8202 220.02 64.625 215.01L64.6771 214.958C68.7403 211.504 73.8826 209.577 79.2155 209.51C84.5485 209.443 89.7372 211.242 93.8854 214.594C98.2917 218.115 103.802 222.563 108.031 225.979C108.351 226.233 108.738 226.389 109.145 226.428C109.551 226.467 109.961 226.387 110.323 226.198L110.344 226.177C116.837 222.732 123.637 219.901 130.656 217.719L130.74 217.698C131.122 217.579 131.462 217.351 131.717 217.042C131.973 216.733 132.132 216.357 132.177 215.958L132.187 215.875C132.792 210.521 133.531 203.531 134.135 197.896V197.906C134.698 192.594 137.098 187.645 140.92 183.913C144.743 180.182 149.749 177.903 155.073 177.469L155.208 177.458L156.542 177.375ZM166.667 281.25C137.917 281.25 114.583 304.583 114.583 333.333C114.583 362.083 137.917 385.417 166.667 385.417C195.417 385.417 218.75 362.083 218.75 333.333C218.75 304.583 195.417 281.25 166.667 281.25Z" stroke="#1B1B1B" stroke-width="3" mask="url(#path-1-inside-1_2402_27659)"/>
<mask id="path-2-inside-2_2402_27659" fill="white">
<path d="M281.25 166.667C281.25 137.917 304.584 114.583 333.334 114.583C362.084 114.583 385.417 137.917 385.417 166.667C385.417 195.417 362.084 218.75 333.334 218.75C304.584 218.75 281.25 195.417 281.25 166.667Z"/>
<path fill-rule="evenodd" clip-rule="evenodd" d="M300.802 31.2396C301.365 25.9273 303.764 20.9782 307.587 17.2468C311.41 13.5154 316.415 11.2359 321.74 10.8021L321.875 10.7916C329.523 10.2673 337.198 10.2847 344.844 10.8437H344.917C350.233 11.2748 355.232 13.5484 359.051 17.2721C362.869 20.9957 365.268 25.9358 365.833 31.2396C366.458 36.8437 367.208 43.8854 367.781 49.2916C367.825 49.6984 367.988 50.0833 368.249 50.3982C368.51 50.7131 368.858 50.9441 369.25 51.0625L369.281 51.0729C376.302 53.2187 383.115 56.0416 389.625 59.4583L389.698 59.4896C390.051 59.6779 390.451 59.7586 390.849 59.7216C391.247 59.6846 391.626 59.5314 391.938 59.2812L392 59.2291C396.024 56.0379 401.16 51.8849 405.444 48.4208L406.094 47.8958C410.247 44.5366 415.443 42.7344 420.785 42.801C426.126 42.8676 431.276 44.7987 435.344 48.2604L435.448 48.3437C441.23 53.3794 446.647 58.8202 451.656 64.625L451.708 64.6771C455.163 68.7403 457.09 73.8825 457.157 79.2155C457.223 84.5484 455.425 89.7372 452.073 93.8854C448.552 98.2916 444.104 103.802 440.687 108.031C440.167 108.677 440.083 109.583 440.469 110.323L440.49 110.344C443.934 116.837 446.766 123.637 448.948 130.656L448.969 130.74C449.088 131.122 449.316 131.462 449.624 131.717C449.933 131.973 450.31 132.132 450.708 132.177L450.792 132.187C455.12 132.676 460.518 133.253 465.404 133.775C466.562 133.899 467.691 134.02 468.771 134.135C474.081 134.7 479.028 137.101 482.757 140.923C486.486 144.746 488.764 149.75 489.198 155.073L489.208 155.208C489.729 162.865 489.719 170.531 489.156 178.177V178.25C488.725 183.566 486.452 188.565 482.728 192.384C479.004 196.203 474.064 198.602 468.76 199.167C463.156 199.792 456.115 200.542 450.708 201.115C450.302 201.158 449.917 201.321 449.602 201.582C449.287 201.844 449.056 202.192 448.937 202.583L448.927 202.615C446.781 209.635 443.958 216.448 440.542 222.958L440.51 223.031C440.322 223.384 440.241 223.784 440.278 224.182C440.315 224.58 440.469 224.959 440.719 225.271L440.771 225.333C443.962 229.357 448.116 234.494 451.58 238.779L452.104 239.427C455.463 243.58 457.266 248.777 457.199 254.118C457.132 259.459 455.201 264.609 451.74 268.677L451.656 268.781C446.621 274.563 441.18 279.98 435.375 284.99L435.323 285.042C431.26 288.496 426.117 290.423 420.784 290.49C415.452 290.557 410.263 288.758 406.115 285.406C401.708 281.885 396.198 277.437 391.969 274.021C391.649 273.767 391.262 273.611 390.855 273.572C390.449 273.533 390.039 273.613 389.677 273.802L389.656 273.823C383.167 277.271 376.365 280.094 369.344 282.281L369.26 282.302C368.864 282.425 368.513 282.664 368.255 282.99C367.996 283.315 367.842 283.711 367.813 284.125C367.324 288.454 366.747 293.851 366.225 298.738C366.101 299.896 365.98 301.025 365.865 302.104C365.297 307.438 362.878 312.404 359.028 316.138C355.178 319.872 350.14 322.138 344.792 322.542C337.135 323.062 329.469 323.052 321.823 322.49H321.75C316.434 322.059 311.435 319.785 307.616 316.061C303.797 312.338 301.398 307.397 300.833 302.094C300.208 296.49 299.458 289.448 298.885 284.042C298.842 283.635 298.679 283.25 298.418 282.935C298.156 282.62 297.808 282.389 297.417 282.271L297.385 282.26C290.358 280.104 283.547 277.297 277.042 273.875L276.969 273.844C276.616 273.655 276.216 273.575 275.818 273.612C275.42 273.649 275.041 273.802 274.729 274.052L274.667 274.104C270.642 277.296 265.504 281.45 261.22 284.915L260.573 285.437C256.42 288.797 251.223 290.599 245.882 290.532C240.541 290.466 235.391 288.535 231.323 285.073L231.219 284.99C225.437 279.954 220.02 274.513 215.01 268.708L214.958 268.656C211.504 264.593 209.577 259.451 209.51 254.118C209.443 248.785 211.242 243.596 214.594 239.448C218.377 234.723 222.172 230.008 225.979 225.302C226.233 224.982 226.389 224.595 226.428 224.189C226.467 223.782 226.387 223.373 226.198 223.01L226.177 222.99C222.729 216.5 219.906 209.698 217.719 202.677L217.698 202.594C217.579 202.211 217.351 201.871 217.042 201.616C216.733 201.361 216.357 201.201 215.958 201.156L215.875 201.146C211.546 200.657 206.148 200.08 201.261 199.558C200.104 199.434 198.975 199.314 197.896 199.198C192.585 198.633 187.639 196.232 183.909 192.41C180.18 188.587 177.902 183.583 177.469 178.26L177.458 178.125C176.938 170.469 176.948 162.802 177.51 155.156V155.083C177.941 149.767 180.215 144.768 183.939 140.949C187.662 137.13 192.603 134.732 197.906 134.167C203.51 133.542 210.552 132.792 215.958 132.219C216.365 132.175 216.75 132.012 217.065 131.751C217.38 131.49 217.611 131.142 217.729 130.75L217.74 130.719C219.896 123.691 222.703 116.881 226.125 110.375L226.156 110.302C226.345 109.949 226.425 109.549 226.388 109.151C226.351 108.753 226.198 108.374 225.948 108.062L225.896 108C222.705 103.976 218.552 98.8402 215.088 94.5559L214.563 93.9062C211.203 89.7531 209.401 84.5566 209.468 79.2154C209.534 73.8743 211.465 68.7243 214.927 64.6562L215.01 64.5521C220.046 58.7698 225.487 53.3534 231.292 48.3437L231.344 48.2916C235.407 44.8369 240.549 42.9099 245.882 42.8433C251.215 42.7767 256.404 44.5748 260.552 47.9271C264.958 51.4479 270.469 55.8958 274.698 59.3125C275.018 59.5664 275.405 59.7222 275.811 59.761C276.218 59.7999 276.627 59.72 276.99 59.5312L277.01 59.5104C283.504 56.0657 290.304 53.234 297.323 51.0521L297.406 51.0312C297.789 50.9123 298.129 50.6844 298.384 50.3755C298.639 50.0665 298.799 49.6899 298.844 49.2916L298.854 49.2083C299.343 44.8793 299.92 39.4811 300.442 34.594C300.566 33.4367 300.686 32.3081 300.802 31.2291V31.2396ZM406.25 166.667C406.25 126.427 373.573 93.75 333.333 93.75C293.094 93.75 260.417 126.427 260.417 166.667C260.417 206.906 293.094 239.583 333.333 239.583C373.573 239.583 406.25 206.906 406.25 166.667Z"/>
</mask>
<path d="M281.25 166.667C281.25 137.917 304.584 114.583 333.334 114.583C362.084 114.583 385.417 137.917 385.417 166.667C385.417 195.417 362.084 218.75 333.334 218.75C304.584 218.75 281.25 195.417 281.25 166.667Z" stroke="#1B1B1B" stroke-width="3" mask="url(#path-2-inside-2_2402_27659)"/>
<path fill-rule="evenodd" clip-rule="evenodd" d="M300.802 31.2396C301.365 25.9273 303.764 20.9782 307.587 17.2468C311.41 13.5154 316.415 11.2359 321.74 10.8021L321.875 10.7916C329.523 10.2673 337.198 10.2847 344.844 10.8437H344.917C350.233 11.2748 355.232 13.5484 359.051 17.2721C362.869 20.9957 365.268 25.9358 365.833 31.2396C366.458 36.8437 367.208 43.8854 367.781 49.2916C367.825 49.6984 367.988 50.0833 368.249 50.3982C368.51 50.7131 368.858 50.9441 369.25 51.0625L369.281 51.0729C376.302 53.2187 383.115 56.0416 389.625 59.4583L389.698 59.4896C390.051 59.6779 390.451 59.7586 390.849 59.7216C391.247 59.6846 391.626 59.5314 391.938 59.2812L392 59.2291C396.024 56.0379 401.16 51.8849 405.444 48.4208L406.094 47.8958C410.247 44.5366 415.443 42.7344 420.785 42.801C426.126 42.8676 431.276 44.7987 435.344 48.2604L435.448 48.3437C441.23 53.3794 446.647 58.8202 451.656 64.625L451.708 64.6771C455.163 68.7403 457.09 73.8825 457.157 79.2155C457.223 84.5484 455.425 89.7372 452.073 93.8854C448.552 98.2916 444.104 103.802 440.687 108.031C440.167 108.677 440.083 109.583 440.469 110.323L440.49 110.344C443.934 116.837 446.766 123.637 448.948 130.656L448.969 130.74C449.088 131.122 449.316 131.462 449.624 131.717C449.933 131.973 450.31 132.132 450.708 132.177L450.792 132.187C455.12 132.676 460.518 133.253 465.404 133.775C466.562 133.899 467.691 134.02 468.771 134.135C474.081 134.7 479.028 137.101 482.757 140.923C486.486 144.746 488.764 149.75 489.198 155.073L489.208 155.208C489.729 162.865 489.719 170.531 489.156 178.177V178.25C488.725 183.566 486.452 188.565 482.728 192.384C479.004 196.203 474.064 198.602 468.76 199.167C463.156 199.792 456.115 200.542 450.708 201.115C450.302 201.158 449.917 201.321 449.602 201.582C449.287 201.844 449.056 202.192 448.937 202.583L448.927 202.615C446.781 209.635 443.958 216.448 440.542 222.958L440.51 223.031C440.322 223.384 440.241 223.784 440.278 224.182C440.315 224.58 440.469 224.959 440.719 225.271L440.771 225.333C443.962 229.357 448.116 234.494 451.58 238.779L452.104 239.427C455.463 243.58 457.266 248.777 457.199 254.118C457.132 259.459 455.201 264.609 451.74 268.677L451.656 268.781C446.621 274.563 441.18 279.98 435.375 284.99L435.323 285.042C431.26 288.496 426.117 290.423 420.784 290.49C415.452 290.557 410.263 288.758 406.115 285.406C401.708 281.885 396.198 277.437 391.969 274.021C391.649 273.767 391.262 273.611 390.855 273.572C390.449 273.533 390.039 273.613 389.677 273.802L389.656 273.823C383.167 277.271 376.365 280.094 369.344 282.281L369.26 282.302C368.864 282.425 368.513 282.664 368.255 282.99C367.996 283.315 367.842 283.711 367.813 284.125C367.324 288.454 366.747 293.851 366.225 298.738C366.101 299.896 365.98 301.025 365.865 302.104C365.297 307.438 362.878 312.404 359.028 316.138C355.178 319.872 350.14 322.138 344.792 322.542C337.135 323.062 329.469 323.052 321.823 322.49H321.75C316.434 322.059 311.435 319.785 307.616 316.061C303.797 312.338 301.398 307.397 300.833 302.094C300.208 296.49 299.458 289.448 298.885 284.042C298.842 283.635 298.679 283.25 298.418 282.935C298.156 282.62 297.808 282.389 297.417 282.271L297.385 282.26C290.358 280.104 283.547 277.297 277.042 273.875L276.969 273.844C276.616 273.655 276.216 273.575 275.818 273.612C275.42 273.649 275.041 273.802 274.729 274.052L274.667 274.104C270.642 277.296 265.504 281.45 261.22 284.915L260.573 285.437C256.42 288.797 251.223 290.599 245.882 290.532C240.541 290.466 235.391 288.535 231.323 285.073L231.219 284.99C225.437 279.954 220.02 274.513 215.01 268.708L214.958 268.656C211.504 264.593 209.577 259.451 209.51 254.118C209.443 248.785 211.242 243.596 214.594 239.448C218.377 234.723 222.172 230.008 225.979 225.302C226.233 224.982 226.389 224.595 226.428 224.189C226.467 223.782 226.387 223.373 226.198 223.01L226.177 222.99C222.729 216.5 219.906 209.698 217.719 202.677L217.698 202.594C217.579 202.211 217.351 201.871 217.042 201.616C216.733 201.361 216.357 201.201 215.958 201.156L215.875 201.146C211.546 200.657 206.148 200.08 201.261 199.558C200.104 199.434 198.975 199.314 197.896 199.198C192.585 198.633 187.639 196.232 183.909 192.41C180.18 188.587 177.902 183.583 177.469 178.26L177.458 178.125C176.938 170.469 176.948 162.802 177.51 155.156V155.083C177.941 149.767 180.215 144.768 183.939 140.949C187.662 137.13 192.603 134.732 197.906 134.167C203.51 133.542 210.552 132.792 215.958 132.219C216.365 132.175 216.75 132.012 217.065 131.751C217.38 131.49 217.611 131.142 217.729 130.75L217.74 130.719C219.896 123.691 222.703 116.881 226.125 110.375L226.156 110.302C226.345 109.949 226.425 109.549 226.388 109.151C226.351 108.753 226.198 108.374 225.948 108.062L225.896 108C222.705 103.976 218.552 98.8402 215.088 94.5559L214.563 93.9062C211.203 89.7531 209.401 84.5566 209.468 79.2154C209.534 73.8743 211.465 68.7243 214.927 64.6562L215.01 64.5521C220.046 58.7698 225.487 53.3534 231.292 48.3437L231.344 48.2916C235.407 44.8369 240.549 42.9099 245.882 42.8433C251.215 42.7767 256.404 44.5748 260.552 47.9271C264.958 51.4479 270.469 55.8958 274.698 59.3125C275.018 59.5664 275.405 59.7222 275.811 59.761C276.218 59.7999 276.627 59.72 276.99 59.5312L277.01 59.5104C283.504 56.0657 290.304 53.234 297.323 51.0521L297.406 51.0312C297.789 50.9123 298.129 50.6844 298.384 50.3755C298.639 50.0665 298.799 49.6899 298.844 49.2916L298.854 49.2083C299.343 44.8793 299.92 39.4811 300.442 34.594C300.566 33.4367 300.686 32.3081 300.802 31.2291V31.2396ZM406.25 166.667C406.25 126.427 373.573 93.75 333.333 93.75C293.094 93.75 260.417 126.427 260.417 166.667C260.417 206.906 293.094 239.583 333.333 239.583C373.573 239.583 406.25 206.906 406.25 166.667Z" stroke="#1B1B1B" stroke-width="3" mask="url(#path-2-inside-2_2402_27659)"/>
</svg>
