<svg width="12" height="12" viewBox="0 0 12 12" fill="none" xmlns="http://www.w3.org/2000/svg">
<g clip-path="url(#clip0_821_19237)">
<path d="M11.7627 11.3155C11.6147 11.2293 10.714 10.6715 10.2321 9.66303C11.3576 8.61059 11.9978 7.14652 11.9978 5.64816C11.9978 2.54714 9.29384 0.000751495 5.9989 0.000751495C2.70396 0.000751495 0 2.54714 0 5.64816C0 8.74917 2.70396 11.2956 5.9989 11.2956C6.44121 11.2956 6.91631 11.2541 7.57181 11.1164C9.29466 12.0319 10.841 12.0061 11.4294 11.9968C11.6913 11.9936 11.8814 12.0409 11.9793 11.7703C12.0455 11.5888 11.9475 11.3791 11.7627 11.3155ZM6.70191 8.48358C6.70191 8.8718 6.38716 9.18659 5.9989 9.18659C5.61063 9.18659 5.29589 8.8718 5.29589 8.48358V5.64816C5.29589 5.25989 5.61063 4.94515 5.9989 4.94515C6.38716 4.94515 6.70191 5.25989 6.70191 5.64816V8.48358ZM5.9989 3.86724C5.61063 3.86724 5.29589 3.55245 5.29589 3.16423C5.29589 2.77596 5.61063 2.46122 5.9989 2.46122C6.38716 2.46122 6.70191 2.77596 6.70191 3.16423C6.70191 3.55247 6.38716 3.86724 5.9989 3.86724Z" fill="#4F4F4F"/>
</g>
<defs>
<clipPath id="clip0_821_19237">
<rect width="12" height="12" fill="white"/>
</clipPath>
</defs>
</svg>
