<svg width="792" height="294" viewBox="0 0 792 294" fill="none" xmlns="http://www.w3.org/2000/svg">
<g clip-path="url(#clip0_2263_23330)">
<path d="M246.315 -36.4824C258.982 -9.05528 229.452 -3.94316 216.939 4.89377C216.752 5.02622 216.488 4.93826 216.397 4.72741C204.482 -22.6931 233.283 -27.802 245.775 -36.6408C245.96 -36.7715 246.22 -36.6881 246.315 -36.4824Z" fill="#121212"/>
<path d="M189.513 21.9733C198.547 41.6341 177.34 45.3657 168.34 51.7353C168.205 51.8308 168.016 51.7682 167.95 51.617C159.456 31.9594 180.14 28.2316 189.126 21.8607C189.259 21.7665 189.445 21.8258 189.513 21.9733Z" fill="#121212"/>
<path d="M141.849 69.6359C150.883 89.2967 129.676 93.0283 120.675 99.3979C120.541 99.4934 120.352 99.4308 120.286 99.2796C111.792 79.622 132.476 75.8942 141.462 69.5233C141.595 69.4291 141.781 69.4884 141.849 69.6359Z" fill="#121212"/>
<path d="M93.8371 117.648C102.872 137.309 81.6643 141.04 72.6638 147.41C72.5289 147.505 72.34 147.443 72.2747 147.292C63.7799 127.634 84.4641 123.906 93.45 117.535C93.5828 117.441 93.7694 117.5 93.8371 117.648Z" fill="#121212"/>
<path d="M46.1332 165.643C52.1444 178.859 37.8349 181.459 31.7427 185.788C31.6514 185.853 31.5244 185.812 31.4809 185.71C25.8335 172.494 39.7904 169.899 45.8727 165.569C45.9626 165.505 46.0881 165.544 46.1332 165.643Z" fill="#121212"/>
<path d="M865.763 243C891.69 299.371 830.906 310.035 805.116 328.279C804.73 328.553 804.188 328.373 804.001 327.94C779.621 271.579 838.905 260.925 864.653 242.677C865.034 242.407 865.569 242.578 865.763 243Z" fill="#121212"/>
<path d="M337.089 54.2974C349.756 81.7245 320.226 86.8366 307.714 95.6736C307.526 95.806 307.263 95.718 307.171 95.5072C295.256 68.0867 324.057 62.9778 336.55 54.1389C336.734 54.0082 336.994 54.0917 337.089 54.2974Z" fill="#121212"/>
<path d="M410.249 -21.6142C428.906 18.8144 385.366 26.3708 366.912 39.4077C366.635 39.6031 366.247 39.4736 366.112 39.1628C348.564 -1.25655 391.029 -8.80775 409.453 -21.8475C409.726 -22.0403 410.109 -21.9175 410.249 -21.6142Z" fill="#121212"/>
<path d="M280.287 112.753C289.322 132.414 268.114 136.146 259.114 142.515C258.979 142.611 258.79 142.548 258.725 142.397C250.23 122.739 270.914 119.012 279.9 112.641C280.033 112.547 280.22 112.606 280.287 112.753Z" fill="#121212"/>
<path d="M232.626 160.416C241.661 180.077 220.453 183.808 211.453 190.178C211.318 190.273 211.129 190.211 211.064 190.06C202.569 170.402 223.253 166.674 232.239 160.303C232.372 160.209 232.558 160.268 232.626 160.416Z" fill="#121212"/>
<path d="M184.613 208.427C193.647 228.087 172.44 231.819 163.439 238.189C163.304 238.284 163.115 238.222 163.05 238.07C154.555 218.413 175.239 214.685 184.225 208.314C184.358 208.22 184.545 208.279 184.613 208.427Z" fill="#121212"/>
<path d="M137.648 257.163C143.659 270.379 129.35 272.979 123.257 277.308C123.166 277.373 123.039 277.332 122.996 277.23C117.348 264.014 131.305 261.419 137.387 257.089C137.477 257.025 137.603 257.064 137.648 257.163Z" fill="#121212"/>
<path d="M427.425 144.63C440.092 172.057 410.562 177.169 398.049 186.006C397.862 186.139 397.599 186.051 397.507 185.84C385.592 158.419 414.393 153.311 426.885 144.472C427.07 144.341 427.33 144.424 427.425 144.63Z" fill="#121212"/>
<path d="M500.585 68.7185C519.242 109.147 475.702 116.704 457.248 129.74C456.971 129.936 456.583 129.806 456.448 129.496C438.9 89.0762 481.365 81.525 499.789 68.4853C500.062 68.2925 500.445 68.4153 500.585 68.7185Z" fill="#121212"/>
<path d="M710.216 -147.944C744.192 -74.2999 664.871 -60.5209 631.249 -36.7656C630.745 -36.4096 630.037 -36.6454 629.792 -37.2115C597.836 -110.839 675.198 -124.609 708.766 -148.369C709.263 -148.72 709.961 -148.497 710.216 -147.944Z" fill="#121212"/>
<path d="M594.354 -28.4117C620.281 27.9589 559.497 38.6231 533.707 56.8674C533.32 57.1409 532.779 56.9612 532.592 56.5278C508.212 0.167106 567.496 -10.4869 593.244 -28.7351C593.625 -29.0049 594.16 -28.8345 594.354 -28.4117Z" fill="#121212"/>
<path d="M370.623 203.086C379.658 222.747 358.45 226.478 349.45 232.848C349.315 232.943 349.126 232.881 349.061 232.73C340.566 213.072 361.25 209.344 370.236 202.973C370.369 202.879 370.556 202.938 370.623 203.086Z" fill="#121212"/>
<path d="M322.785 250.923C331.82 270.584 310.613 274.315 301.612 280.685C301.477 280.78 301.288 280.718 301.223 280.566C292.728 260.909 313.412 257.181 322.398 250.81C322.531 250.716 322.718 250.775 322.785 250.923Z" fill="#121212"/>
<path d="M274.947 298.76C283.982 318.42 262.775 322.152 253.774 328.522C253.639 328.617 253.45 328.555 253.385 328.403C244.89 308.746 265.574 305.018 274.56 298.647C274.693 298.553 274.88 298.612 274.947 298.76Z" fill="#121212"/>
<path d="M517.768 234.964C530.435 262.391 500.905 267.503 488.392 276.34C488.205 276.473 487.941 276.385 487.85 276.174C475.935 248.753 504.736 243.645 517.228 234.806C517.413 234.675 517.673 234.758 517.768 234.964Z" fill="#121212"/>
<path d="M590.928 159.052C609.585 199.481 566.045 207.037 547.591 220.074C547.314 220.27 546.926 220.14 546.791 219.829C529.243 179.41 571.708 171.859 590.132 158.819C590.405 158.626 590.788 158.749 590.928 159.052Z" fill="#121212"/>
<path d="M800.559 -57.6106C834.534 16.0339 755.214 29.8128 721.591 53.5681C721.087 53.9242 720.38 53.6884 720.134 53.1222C688.178 -20.5057 765.541 -34.2748 799.109 -58.0352C799.605 -58.3866 800.304 -58.1629 800.559 -57.6106Z" fill="#121212"/>
<path d="M684.695 61.9223C710.622 118.293 649.838 128.957 624.048 147.201C623.661 147.475 623.12 147.295 622.932 146.862C598.552 90.5011 657.837 79.8471 683.585 61.5989C683.966 61.3291 684.5 61.4995 684.695 61.9223Z" fill="#121212"/>
<path d="M460.964 293.42C469.999 313.081 448.791 316.812 439.791 323.182C439.656 323.277 439.467 323.215 439.402 323.064C430.907 303.406 451.591 299.678 460.577 293.307C460.71 293.213 460.896 293.272 460.964 293.42Z" fill="#121212"/>
<path d="M681.264 249.385C699.921 289.814 656.381 297.37 637.927 310.407C637.65 310.603 637.262 310.473 637.127 310.162C619.579 269.743 662.044 262.192 680.468 249.152C680.741 248.959 681.124 249.082 681.264 249.385Z" fill="#121212"/>
<path d="M890.892 32.7227C924.867 106.367 845.547 120.146 811.924 143.901C811.42 144.257 810.713 144.022 810.467 143.455C778.511 69.8276 855.874 56.0585 889.442 32.298C889.939 31.9467 890.637 32.1703 890.892 32.7227Z" fill="#121212"/>
<path d="M775.031 152.255C800.958 208.626 740.174 219.29 714.384 237.534C713.997 237.808 713.456 237.628 713.268 237.195C688.888 180.834 748.173 170.18 773.921 151.932C774.302 151.662 774.836 151.832 775.031 152.255Z" fill="#121212"/>
<path d="M588.471 252.278C607.128 292.707 563.588 300.263 545.134 313.3C544.857 313.496 544.469 313.366 544.334 313.055C526.786 272.636 569.251 265.085 587.675 252.045C587.948 251.852 588.331 251.975 588.471 252.278Z" fill="#121212"/>
<path d="M798.105 35.6153C832.08 109.26 752.76 123.039 719.137 146.794C718.633 147.15 717.926 146.914 717.68 146.348C685.724 72.7202 763.087 58.9511 796.655 35.1906C797.151 34.8392 797.85 35.0629 798.105 35.6153Z" fill="#121212"/>
<path d="M682.241 155.148C708.168 211.518 647.384 222.183 621.594 240.427C621.207 240.7 620.666 240.521 620.478 240.087C596.098 183.727 655.383 173.073 681.131 154.824C681.511 154.555 682.046 154.725 682.241 155.148Z" fill="#121212"/>
<path d="M888.433 125.948C922.408 199.592 843.088 213.371 809.465 237.126C808.961 237.483 808.254 237.247 808.008 236.681C776.052 163.053 853.415 149.284 886.983 125.523C887.48 125.172 888.178 125.395 888.433 125.948Z" fill="#121212"/>
<path d="M772.568 245.481C798.495 301.851 737.711 312.516 711.921 330.76C711.534 331.033 710.993 330.854 710.805 330.42C686.425 274.06 745.71 263.406 771.458 245.158C771.839 244.888 772.373 245.058 772.568 245.481Z" fill="#121212"/>
<path d="M243.876 56.7442C256.542 84.1713 227.013 89.2834 214.5 98.1203C214.312 98.2528 214.049 98.1648 213.957 97.954C202.042 70.5335 230.843 65.4246 243.336 56.5857C243.52 56.455 243.781 56.5385 243.876 56.7442Z" fill="#121212"/>
<path d="M317.035 -19.1675C335.692 21.2612 292.152 28.8176 273.698 41.8545C273.422 42.0499 273.033 41.9204 272.898 41.6096C255.35 1.19023 297.815 -6.36097 316.24 -19.4007C316.512 -19.5935 316.895 -19.4707 317.035 -19.1675Z" fill="#121212"/>
<path d="M187.073 115.2C196.108 134.861 174.901 138.593 165.9 144.962C165.765 145.058 165.576 144.995 165.511 144.844C157.016 125.186 177.7 121.458 186.686 115.087C186.819 114.993 187.006 115.053 187.073 115.2Z" fill="#121212"/>
<path d="M139.236 163.037C148.27 182.698 127.063 186.429 118.062 192.799C117.927 192.895 117.738 192.832 117.673 192.681C109.178 173.023 129.862 169.295 138.848 162.924C138.981 162.83 139.168 162.89 139.236 163.037Z" fill="#121212"/>
<path d="M92.4799 211.982C98.4911 225.198 84.1815 227.798 78.0894 232.127C77.9981 232.192 77.871 232.151 77.8276 232.049C72.1802 218.833 86.1371 216.238 92.2194 211.907C92.3093 211.843 92.4348 211.883 92.4799 211.982Z" fill="#121212"/>
<path d="M334.209 147.078C346.875 174.506 317.346 179.618 304.833 188.455C304.645 188.587 304.382 188.499 304.29 188.288C292.375 160.868 321.176 155.759 333.669 146.92C333.853 146.789 334.114 146.873 334.209 147.078Z" fill="#121212"/>
<path d="M407.368 71.166C426.025 111.595 382.485 119.151 364.031 132.188C363.755 132.383 363.366 132.254 363.231 131.943C345.683 91.5237 388.148 83.9725 406.573 70.9328C406.845 70.74 407.229 70.8628 407.368 71.166Z" fill="#121212"/>
<path d="M616.999 -145.497C650.975 -71.8521 571.654 -58.0731 538.032 -34.3179C537.528 -33.9618 536.821 -34.1976 536.575 -34.7638C504.619 -108.392 581.982 -122.161 615.55 -145.921C616.046 -146.273 616.744 -146.049 616.999 -145.497Z" fill="#121212"/>
<path d="M501.135 -25.964C527.062 30.4066 466.278 41.0709 440.488 59.3151C440.102 59.5886 439.56 59.4089 439.373 58.9755C414.993 2.61486 474.277 -8.03912 500.025 -26.2873C500.406 -26.5572 500.941 -26.3868 501.135 -25.964Z" fill="#121212"/>
<path d="M277.405 205.534C286.439 225.194 265.232 228.926 256.231 235.296C256.096 235.391 255.907 235.328 255.842 235.177C247.347 215.52 268.031 211.792 277.017 205.421C277.15 205.327 277.337 205.386 277.405 205.534Z" fill="#121212"/>
<path d="M229.567 253.37C238.601 273.031 217.394 276.762 208.393 283.132C208.258 283.228 208.069 283.165 208.004 283.014C199.509 263.356 220.194 259.628 229.179 253.257C229.312 253.163 229.499 253.223 229.567 253.37Z" fill="#121212"/>
<path d="M424.541 237.411C437.207 264.838 407.678 269.95 395.165 278.787C394.977 278.92 394.714 278.832 394.622 278.621C382.707 251.2 411.508 246.091 424.001 237.252C424.185 237.122 424.446 237.205 424.541 237.411Z" fill="#121212"/>
<path d="M497.699 161.5C516.356 201.928 472.816 209.485 454.362 222.521C454.086 222.717 453.697 222.587 453.562 222.277C436.014 181.857 478.479 174.306 496.904 161.266C497.176 161.073 497.56 161.196 497.699 161.5Z" fill="#121212"/>
<path d="M707.333 -55.1636C741.309 18.4809 661.988 32.2599 628.366 56.0151C627.862 56.3712 627.155 56.1354 626.909 55.5692C594.953 -18.0587 672.316 -31.8277 705.884 -55.5882C706.38 -55.9396 707.078 -55.7159 707.333 -55.1636Z" fill="#121212"/>
<path d="M591.471 64.369C617.398 120.74 556.614 131.404 530.824 149.648C530.438 149.922 529.896 149.742 529.709 149.309C505.329 92.9479 564.613 82.2939 590.361 64.0457C590.742 63.7758 591.277 63.9462 591.471 64.369Z" fill="#121212"/>
<path d="M367.736 295.867C376.77 315.528 355.563 319.26 346.562 325.629C346.427 325.725 346.238 325.662 346.173 325.511C337.678 305.853 358.362 302.125 367.348 295.754C367.481 295.66 367.668 295.72 367.736 295.867Z" fill="#121212"/>
<rect y="-60" width="792" height="414" fill="url(#paint0_linear_2263_23330)"/>
</g>
<defs>
<linearGradient id="paint0_linear_2263_23330" x1="161.5" y1="153.9" x2="1860.46" y2="-650.114" gradientUnits="userSpaceOnUse">
<stop stop-color="#080808"/>
<stop offset="1" stop-color="#080808" stop-opacity="0"/>
</linearGradient>
<clipPath id="clip0_2263_23330">
<rect width="792" height="414" fill="white" transform="translate(0 -60)"/>
</clipPath>
</defs>
</svg>
