<svg width="60" height="60" viewBox="0 0 60 60" fill="none" xmlns="http://www.w3.org/2000/svg">
<g clip-path="url(#clip0_2347_28269)">
<path d="M1.7552 45.821H47.6948C48.1068 45.821 48.505 45.6768 48.8209 45.4141C49.2621 45.0446 59.3274 36.3858 59.9412 17.6947H10.603C9.99162 34.6612 0.721912 42.6359 0.62558 42.7155C0.060828 43.1927 -0.146955 43.9722 0.107119 44.6657C0.359435 45.3575 1.017 45.821 1.7552 45.821ZM58.242 7.14737H49.4525V5.38948C49.4525 4.40506 48.6791 3.63159 47.6946 3.63159C46.7102 3.63159 45.9368 4.40506 45.9368 5.38948V7.14737H37.0301V5.38948C37.0301 4.40506 36.2566 3.63159 35.2722 3.63159C34.2878 3.63159 33.5143 4.40506 33.5143 5.38948V7.14737H24.7249V5.38948C24.7249 4.40506 23.9514 3.63159 22.967 3.63159C21.9826 3.63159 21.2091 4.40506 21.2091 5.38948V7.14737H12.4196C11.4352 7.14737 10.6617 7.92085 10.6617 8.90527V14.1789H59.9999V8.90527C59.9999 7.92085 59.2264 7.14737 58.242 7.14737Z" fill="#1B1B1B"/>
<path d="M51.0781 48.1094C50.1236 48.9042 48.9254 49.3369 47.6945 49.3369H10.6616V54.6105C10.6616 55.5822 11.4479 56.3684 12.4195 56.3684H58.2419C59.2135 56.3684 59.9998 55.5822 59.9998 54.6105V34.905C56.6106 43.22 51.8811 47.4373 51.0781 48.1094Z" fill="#1B1B1B"/>
</g>
<defs>
<clipPath id="clip0_2347_28269">
<rect width="60" height="60" fill="white"/>
</clipPath>
</defs>
</svg>
