<svg width="60" height="60" viewBox="0 0 60 60" fill="none" xmlns="http://www.w3.org/2000/svg">
<g clip-path="url(#clip0_2347_28277)">
<path d="M19.999 19.9997C31.4452 19.9997 39.998 15.4748 39.998 11.4288C39.998 7.38323 31.445 2.85815 19.999 2.85815C8.55295 2.85815 0.000190497 7.38323 0.000190497 11.4288C0.000190497 15.4748 8.55276 19.9997 19.999 19.9997ZM19.999 54.2842C21.6696 54.2842 23.2776 54.1871 24.8071 54.0101C23.508 52.3412 22.4464 50.5003 21.6529 48.5398C21.1041 48.5583 20.5533 48.571 19.9988 48.571C13.4584 48.571 7.26462 47.2751 2.55876 44.9221C1.63218 44.4588 0.779515 43.961 0.000190497 43.4341V45.7136C0.000190497 49.7592 8.55276 54.2842 19.999 54.2842ZM19.999 42.8561C20.0577 42.8561 20.1154 42.8552 20.1739 42.855C20.0552 41.9069 19.9956 40.9524 19.9956 39.9969C19.9956 39.0296 20.0565 38.0764 20.1739 37.1406C20.1154 37.1406 20.0575 37.1427 19.999 37.1427C13.4586 37.1427 7.265 35.8468 2.55895 33.4937C1.63218 33.0305 0.779325 32.5327 0 32.006V34.2853C0.000190497 38.331 8.55276 42.8561 19.999 42.8561ZM19.999 31.4276C20.5659 31.4276 21.1252 31.4162 21.6775 31.3945C22.5587 29.2343 23.7649 27.2216 25.2544 25.426C23.5092 25.6182 21.7548 25.7145 19.999 25.7146C13.4586 25.7146 7.265 24.4186 2.55895 22.0656C1.63218 21.6021 0.779325 21.1046 0 20.5776V22.8571C0.000190497 26.9029 8.55276 31.4276 19.999 31.4276ZM28.5714 30.526C27.313 32.4156 26.4446 34.5374 26.0172 36.7671C25.8131 37.8316 25.7105 38.9131 25.7107 39.9969C25.7107 40.8269 25.7712 41.643 25.8857 42.4418C26.1616 44.3663 26.7653 46.2293 27.6707 47.9498C28.6005 49.7168 29.8301 51.309 31.3046 52.6553C34.3541 55.4406 38.4098 57.1417 42.8554 57.1417C52.3091 57.1417 60.0002 49.4506 60.0002 39.9969C60.0002 30.5431 52.3091 22.8522 42.8554 22.8522C41.8784 22.8522 40.9204 22.9356 39.9873 23.0934C35.2348 23.8971 31.1414 26.6629 28.5714 30.526Z" fill="#1B1B1B"/>
</g>
<defs>
<clipPath id="clip0_2347_28277">
<rect width="60" height="60" fill="white"/>
</clipPath>
</defs>
</svg>
