<svg width="80" height="80" viewBox="0 0 80 80" fill="none" xmlns="http://www.w3.org/2000/svg">
<g clip-path="url(#clip0_2419_22325)">
<path d="M28.2355 0H51.7649V7.05882H28.2355V0ZM55.0924 28.2353L43.3277 40L47.059 42.3529H51.7649V48.4372L62.0997 58.7719L63.4273 28.2353H55.0924ZM28.2355 42.3529H32.9414L36.6727 40L24.908 28.2353H16.5731L17.9007 58.7719L28.2355 48.4372V42.3529ZM51.7649 68.2353H47.059V50.3864L42.3531 45.6805V68.2353H37.6473V45.6805L32.9414 50.3864V68.2353H28.2355V55.0922L18.1781 65.1497L18.8237 80H61.1767L61.8223 65.1497L51.7649 55.0922V68.2353ZM48.4374 28.2353H31.563L40.0002 36.6725L48.4374 28.2353Z" fill="#1B1B1B"/>
<path d="M0.689453 75.9834L4.01683 79.3107L18.1781 65.1497L17.9007 58.7719L0.689453 75.9834ZM61.8223 65.1497L75.9836 79.3107L79.3109 75.9834L62.0997 58.7719L61.8223 65.1497ZM53.1433 23.5294L64.908 11.7647H15.0924L26.8571 23.5294H53.1433ZM68.2355 23.5294V15.0922L59.7983 23.5294H68.2355ZM20.2021 23.5294L11.7649 15.0922V23.5294H20.2021ZM11.7649 11.7647H15.0924L4.01683 0.689255L0.689453 4.01663L11.7649 15.0922V11.7647ZM68.2355 15.0922L79.3109 4.01663L75.9836 0.689255L64.908 11.7647H68.2355V15.0922Z" fill="#1B1B1B"/>
</g>
<defs>
<clipPath id="clip0_2419_22325">
<rect width="80" height="80" fill="white"/>
</clipPath>
</defs>
</svg>
