<svg width="80" height="80" viewBox="0 0 80 80" fill="none" xmlns="http://www.w3.org/2000/svg">
<path d="M47.0615 11.1988L36.6266 0.763976C36.2616 0.399394 35.7968 0.151104 35.2908 0.0504385C34.7848 -0.050227 34.2603 0.00124256 33.7835 0.198352C33.3068 0.395615 32.8993 0.729901 32.6127 1.15889C32.326 1.58787 32.1732 2.09226 32.1734 2.60819V6.09834C19.7323 8.94833 10.1498 18.246 6.66356 30.0949L7.50966 29.2488C8.98715 27.7703 10.9523 26.956 13.0429 26.956C15.1335 26.956 17.0985 27.7703 18.5762 29.2488L22.2328 32.9053C24.054 28.332 27.5909 24.5808 32.1734 22.5317V23.4777C32.1732 23.9936 32.326 24.498 32.6127 24.927C32.8993 25.356 33.3068 25.6903 33.7835 25.8875C34.2602 26.0854 34.7848 26.1373 35.291 26.0366C35.7972 25.9359 36.262 25.6871 36.6266 25.3219L47.0615 14.8871C48.0804 13.8693 48.0804 12.2168 47.0615 11.1988ZM79.8006 33.7836C79.6031 33.307 79.2688 32.8997 78.8398 32.6131C78.4109 32.3265 77.9066 32.1735 77.3908 32.1734H73.9006C71.0519 19.7314 61.7538 10.1493 49.9039 6.66334L50.7502 7.50959C52.2277 8.98552 53.0429 10.9515 53.0429 13.043C53.0429 15.1344 52.2275 17.1003 50.7485 18.578L47.0938 22.2325C51.6674 24.0538 55.4186 27.5903 57.4672 32.1734H56.5211C56.0052 32.1735 55.5009 32.3265 55.0719 32.6132C54.6429 32.8998 54.3086 33.3073 54.1112 33.784C53.9138 34.2606 53.8622 34.7851 53.9629 35.2911C54.0636 35.7971 54.3121 36.2619 54.6769 36.6267L65.1117 47.0615C65.6213 47.5711 66.2888 47.8259 66.9561 47.8259C67.6235 47.8259 68.2911 47.5711 68.8005 47.0615L79.2353 36.6267C79.6001 36.2618 79.8486 35.797 79.9492 35.2909C80.0498 34.7848 79.9981 34.2603 79.8006 33.7836ZM72.4892 50.7503C71.0117 52.2287 69.0466 53.0431 66.9559 53.0431C64.8653 53.0431 62.9003 52.2287 61.4227 50.7503L57.7663 47.0937C55.945 51.667 52.4082 55.4182 47.8257 57.4673V56.5214C47.8259 56.0054 47.673 55.501 47.3864 55.0721C47.0997 54.6431 46.6922 54.3088 46.2155 54.1115C45.2441 53.7073 44.1197 53.9298 43.3724 54.6772L32.9376 65.112C31.9187 66.1301 31.9187 67.7826 32.9376 68.8009L43.3724 79.2357C43.7372 79.6007 44.202 79.8492 44.7081 79.9499C45.2141 80.0506 45.7387 79.9989 46.2154 79.8013C46.6921 79.604 47.0995 79.2697 47.3861 78.8408C47.6728 78.4118 47.8257 77.9074 47.8255 77.3915V73.901C60.2667 71.0512 69.8489 61.7534 73.3352 49.9045L72.4892 50.7503ZM26.956 66.9562C26.956 64.8648 27.7713 62.8989 29.2504 61.4212L32.9051 57.7665C28.3315 55.9453 24.5802 52.4087 22.5317 47.8256H23.4778C23.9937 47.8256 24.498 47.6725 24.927 47.3859C25.3559 47.0992 25.6902 46.6918 25.8876 46.2151C26.085 45.7384 26.1367 45.2139 26.036 44.7079C25.9353 44.2019 25.6868 43.7371 25.322 43.3723L14.8871 32.9375C13.8682 31.9186 12.2173 31.9186 11.1982 32.9375L0.763731 43.3726C0.39904 43.7375 0.150698 44.2023 0.0500944 44.7082C-0.0505095 45.2142 0.00114094 45.7386 0.198517 46.2152C0.395893 46.6918 0.730135 47.0992 1.159 47.3859C1.58786 47.6726 2.09208 47.8257 2.60795 47.8259H6.0981C8.94684 60.2681 18.2449 69.8501 30.0949 73.336L29.2488 72.4896C27.7713 71.0135 26.956 69.0476 26.956 66.9562Z" fill="#1B1B1B"/>
</svg>
