<svg width="16" height="16" viewBox="0 0 16 16" fill="none" xmlns="http://www.w3.org/2000/svg">
<g clip-path="url(#clip0_901_1035)">
<path fill-rule="evenodd" clip-rule="evenodd" d="M8 0C6.41775 0 4.87103 0.469192 3.55544 1.34824C2.23985 2.22729 1.21447 3.47672 0.608967 4.93853C0.00346625 6.40034 -0.15496 8.00887 0.153721 9.56072C0.462403 11.1126 1.22433 12.538 2.34315 13.6569C3.46197 14.7757 4.88743 15.5376 6.43928 15.8463C7.99113 16.155 9.59966 15.9965 11.0615 15.391C12.5233 14.7855 13.7727 13.7602 14.6518 12.4446C15.5308 11.129 16 9.58225 16 8C16 5.87827 15.1571 3.84344 13.6569 2.34315C12.1566 0.842855 10.1217 0 8 0ZM7.30945 3.87574C7.30945 3.6926 7.3822 3.51697 7.5117 3.38747C7.6412 3.25797 7.81683 3.18522 7.99997 3.18522C8.18311 3.18522 8.35874 3.25797 8.48824 3.38747C8.61774 3.51697 8.69049 3.6926 8.69049 3.87574V8.01886C8.69049 8.20199 8.61774 8.37763 8.48824 8.50713C8.35874 8.63663 8.18311 8.70938 7.99997 8.70938C7.81683 8.70938 7.6412 8.63663 7.5117 8.50713C7.3822 8.37763 7.30945 8.20199 7.30945 8.01886V3.87574ZM7.99997 12.5072C7.79511 12.5072 7.59486 12.4465 7.42452 12.3327C7.25419 12.2189 7.12143 12.0571 7.04304 11.8678C6.96464 11.6786 6.94413 11.4703 6.98409 11.2694C7.02406 11.0685 7.12271 10.8839 7.26756 10.739C7.41242 10.5942 7.59698 10.4955 7.7979 10.4556C7.99882 10.4156 8.20708 10.4361 8.39635 10.5145C8.58561 10.5929 8.74738 10.7257 8.86119 10.896C8.975 11.0663 9.03575 11.2666 9.03575 11.4715C9.03575 11.7462 8.92662 12.0096 8.73238 12.2039C8.53813 12.3981 8.27468 12.5072 7.99997 12.5072Z" fill="#EB1E3D"/>
</g>
<defs>
<clipPath id="clip0_901_1035">
<rect width="16" height="16" fill="white"/>
</clipPath>
</defs>
</svg>
