<svg width="24" height="24" viewBox="0 0 24 24" fill="none" xmlns="http://www.w3.org/2000/svg">
<path d="M18.4988 12.8753C18.4988 12.7292 18.3471 12.6325 18.2149 12.6947C17.1475 13.1977 16.2052 13.6852 15.3882 14.1572C14.4995 14.7072 13.7588 15.239 13.1663 15.7524L13.1663 2.45146C13.1663 2.34101 13.0768 2.25146 12.9663 2.25146L11.0334 2.25146C10.923 2.25146 10.8334 2.34101 10.8334 2.45146L10.8334 15.7524C10.2039 15.239 9.44475 14.7072 8.55602 14.1572C7.74182 13.6868 6.81886 13.2011 5.78711 12.7C5.65469 12.6357 5.50098 12.7324 5.50098 12.8796L5.50098 14.3951C5.50098 14.4535 5.52681 14.5092 5.57117 14.5474C8.20038 16.8065 10.158 19.1706 11.4439 21.6397C11.4786 21.7063 11.5472 21.7482 11.6222 21.7482L12.3759 21.7482C12.4518 21.7482 12.521 21.7053 12.5553 21.6376C13.8062 19.1693 15.7636 16.8059 18.4276 14.5474C18.4725 14.5093 18.4988 14.4532 18.4988 14.3942L18.4988 12.8753Z" fill="#DEDEDE" fill-opacity="0.3"/>
</svg>
