<svg width="16" height="16" viewBox="0 0 16 16" fill="none" xmlns="http://www.w3.org/2000/svg">
<path d="M7.31202 12.3326C7.45817 12.3326 7.55488 12.181 7.49219 12.049C7.17266 11.3761 6.86255 10.7794 6.56188 10.2589C6.19517 9.66641 5.84068 9.17266 5.49841 8.77767H14.299C14.4095 8.77767 14.499 8.68812 14.499 8.57767V7.42238C14.499 7.31192 14.4095 7.22237 14.299 7.22237H5.49841C5.84068 6.80269 6.19517 6.2966 6.56188 5.70411C6.86092 5.18646 7.16928 4.60286 7.48697 3.95331C7.55165 3.82106 7.45496 3.66742 7.30774 3.66742H6.43402C6.37553 3.66742 6.31987 3.69322 6.2817 3.73753C4.79273 5.4658 3.23539 6.75679 1.60967 7.61049C1.54322 7.64539 1.50122 7.71396 1.50122 7.78901V8.20942C1.50122 8.28532 1.54416 8.35449 1.61173 8.38905C3.23668 9.21996 4.79331 10.5108 6.28163 12.2615C6.31981 12.3064 6.37588 12.3326 6.43483 12.3326H7.31202Z" fill="#DEDEDE" fill-opacity="0.2"/>
</svg>
