<svg width="16" height="16" viewBox="0 0 16 16" fill="none" xmlns="http://www.w3.org/2000/svg">
<path d="M14.8449 3.35588L13.2571 1.76782C12.5613 1.07186 11.4226 1.07186 10.7267 1.76782L3.71825 8.77746C3.31525 9.18054 3.08883 9.72722 3.08883 10.2972V11.0694C3.08883 11.7477 3.63864 12.2976 4.31685 12.2976H5.08886C5.65879 12.2976 6.20541 12.0711 6.60841 11.668L12.6059 5.66957C12.7258 5.54966 12.7258 5.35524 12.6059 5.23534L12.1718 4.8012C12.0519 4.68129 11.8576 4.68129 11.7377 4.8012L5.74033 10.7995C5.56755 10.9723 5.33324 11.0694 5.08891 11.0694H4.31685V10.2973C4.31685 10.0529 4.41393 9.81845 4.58673 9.64562L11.595 2.63622C11.8133 2.41786 12.1706 2.41786 12.3889 2.63622L13.9767 4.22427C14.0795 4.32711 14.1409 4.47556 14.1409 4.62128C14.1409 4.76701 14.0795 4.91543 13.9767 5.0183L5.92015 13.0761C5.63225 13.364 5.24177 13.5258 4.83463 13.5258H2.47483C2.13573 13.5258 1.86083 13.2508 1.86083 12.9117V10.5515C1.86083 10.1443 2.02259 9.75373 2.31049 9.46579L9.35601 2.41915C9.47591 2.29925 9.47591 2.10483 9.35601 1.98492L8.92193 1.55078C8.80202 1.43088 8.60766 1.43088 8.48776 1.55078L1.44201 8.59763C0.92388 9.11584 0.632812 9.81866 0.632812 10.5515V12.9117C0.632812 13.9292 1.45752 14.754 2.47483 14.754H4.83463C5.56735 14.754 6.27005 14.4629 6.78818 13.9447L14.8449 5.88667C15.178 5.55352 15.369 5.09232 15.369 4.62126C15.369 4.15019 15.178 3.68899 14.8449 3.35588Z" fill="#4F4F4F"/>
</svg>
