<svg width="16" height="16" viewBox="0 0 16 16" fill="none" xmlns="http://www.w3.org/2000/svg">
<path fill-rule="evenodd" clip-rule="evenodd" d="M7.96691 8.24119C6.97308 8.23707 6.02113 7.83884 5.31838 7.13326C4.61563 6.42767 4.219 5.47188 4.21489 4.47404C4.21748 3.47087 4.61199 2.50876 5.3136 1.79454C6.01521 1.08031 6.96792 0.670987 7.96691 0.654545C8.46425 0.653792 8.95677 0.752458 9.41573 0.944792C9.8747 1.13712 10.2909 1.41928 10.6402 1.77479C10.9894 2.13031 11.2647 2.55208 11.4499 3.0155C11.6351 3.47894 11.7266 3.97474 11.7189 4.47404C11.7252 4.9705 11.6325 5.4632 11.4462 5.92311C11.2598 6.38303 10.9837 6.80083 10.634 7.15191C10.2844 7.50299 9.86823 7.78025 9.41017 7.96732C8.95212 8.1544 8.46139 8.24753 7.96691 8.24119ZM7.96691 2.90438C7.75716 2.90427 7.54952 2.94653 7.35636 3.02867C7.1632 3.1108 6.98849 3.23111 6.84263 3.38247C6.69675 3.5338 6.58271 3.71307 6.50727 3.90959C6.43185 4.10612 6.39658 4.31587 6.40357 4.52635C6.40047 4.73094 6.4392 4.93398 6.51735 5.12294C6.59551 5.31191 6.71141 5.48277 6.85794 5.62498C7.00446 5.76718 7.17846 5.87771 7.36921 5.94973C7.55994 6.02174 7.76338 6.05373 7.96691 6.04368C8.16918 6.04855 8.37037 6.013 8.55882 5.93912C8.74726 5.86524 8.91922 5.7545 9.06467 5.61332C9.21014 5.47214 9.32621 5.30335 9.40613 5.11676C9.48606 4.93015 9.52826 4.72947 9.53027 4.52635C9.53726 4.31587 9.50198 4.10612 9.42655 3.90959C9.35113 3.71307 9.23708 3.5338 9.09121 3.38247C8.94533 3.23111 8.77062 3.1108 8.57746 3.02867C8.38432 2.94653 8.17668 2.90427 7.96691 2.90438ZM9.47816 11.3805L11.6147 13.4734C11.714 13.573 11.7927 13.6913 11.8465 13.8214C11.9002 13.9516 11.9278 14.0911 11.9278 14.232C11.9278 14.3729 11.9002 14.5125 11.8465 14.6426C11.7927 14.7728 11.714 14.8911 11.6147 14.9907C11.5223 15.1017 11.4067 15.191 11.2761 15.2523C11.1456 15.3135 11.0032 15.3453 10.8591 15.3453C10.715 15.3453 10.5726 15.3135 10.4421 15.2523C10.3115 15.191 10.1959 15.1017 10.1035 14.9907L7.96691 12.8978L5.88246 14.9907C5.78108 15.0947 5.65918 15.1764 5.52459 15.2304C5.39 15.2845 5.24566 15.3098 5.10079 15.3046C4.81192 15.2938 4.53571 15.1829 4.31911 14.9907C4.21985 14.8911 4.1411 14.7728 4.08737 14.6426C4.03365 14.5125 4.00599 14.3729 4.00599 14.232C4.00599 14.0911 4.03365 13.9516 4.08737 13.8214C4.1411 13.6913 4.21985 13.573 4.31911 13.4734L6.5078 11.3805C5.72585 11.1352 4.97412 10.8017 4.267 10.3864C4.02551 10.2274 3.85338 9.98203 3.78562 9.70018C3.71787 9.41833 3.75955 9.12115 3.90222 8.86905C3.98174 8.74239 4.0861 8.63328 4.20894 8.54837C4.33178 8.46347 4.47054 8.40454 4.61678 8.37518C4.76302 8.3458 4.91368 8.34661 5.0596 8.37755C5.20551 8.40848 5.34364 8.46891 5.46557 8.55512C6.22831 9.01707 7.1022 9.2612 7.99298 9.2612C8.88374 9.2612 9.75762 9.01707 10.5204 8.55512C10.6423 8.46891 10.7804 8.40848 10.9263 8.37755C11.0723 8.34661 11.2229 8.3458 11.3692 8.37518C11.5154 8.40454 11.6542 8.46347 11.777 8.54837C11.8998 8.63328 12.0042 8.74239 12.0837 8.86905C12.2315 9.11503 12.2814 9.40792 12.2234 9.68921C12.1654 9.9705 12.0039 10.2195 11.7711 10.3864C11.0458 10.8019 10.2767 11.1354 9.47816 11.3805Z" fill="#DEDEDE"/>
</svg>
