<svg width="16" height="16" viewBox="0 0 16 16" fill="none" xmlns="http://www.w3.org/2000/svg">
<path d="M9.67101 2.12879C9.57777 2.03558 9.459 1.97211 9.3297 1.9464C9.20039 1.92068 9.06637 1.93389 8.94457 1.98433C8.82277 2.03478 8.71866 2.12021 8.64541 2.22981C8.57215 2.33942 8.53304 2.46828 8.53301 2.60012V4.93345C6.61805 4.95328 4.78814 5.72734 3.44025 7.08772C2.09235 8.44809 1.33519 10.2851 1.33301 12.2001V13.4001C1.33301 13.5432 1.37903 13.6824 1.46427 13.7973C1.5495 13.9122 1.66943 13.9966 1.80634 14.0381C1.869 14.0573 1.93416 14.0669 1.99967 14.0668C2.10946 14.0667 2.21754 14.0396 2.3143 13.9877C2.41106 13.9358 2.49352 13.8609 2.55434 13.7695C5.10101 9.94945 7.54301 9.67745 8.53301 9.75612V12.2001C8.53304 12.332 8.57215 12.4608 8.64541 12.5704C8.71866 12.68 8.82277 12.7655 8.94457 12.8159C9.06637 12.8664 9.20039 12.8796 9.3297 12.8538C9.459 12.8281 9.57777 12.7647 9.67101 12.6715L14.471 7.87145C14.596 7.74643 14.6662 7.57689 14.6662 7.40012C14.6662 7.22334 14.596 7.0538 14.471 6.92878L9.67101 2.12879Z" fill="#DEDEDE"/>
</svg>
