<svg width="16" height="16" viewBox="0 0 16 16" fill="none" xmlns="http://www.w3.org/2000/svg">
<path fill-rule="evenodd" clip-rule="evenodd" d="M2.23701 11.2793L1.28882 14.7413L4.83163 13.8123C5.8078 14.3445 6.90678 14.6251 8.0252 14.6256H8.0281C11.7114 14.6256 14.7097 11.6281 14.7113 7.9446C14.712 6.15939 14.0177 4.48081 12.7557 3.21797C11.4938 1.95514 9.81586 1.25945 8.02819 1.25854C4.34432 1.25854 1.3465 4.25546 1.34495 7.93924C1.34354 9.11166 1.65123 10.2637 2.23701 11.2793ZM2.47328 7.93974C2.47437 4.87806 4.96616 2.38718 8.0302 2.38718C8.75995 2.38545 9.48279 2.52849 10.1569 2.80801C10.831 3.08753 11.4429 3.49799 11.9573 4.01561C12.4746 4.53042 12.8846 5.14273 13.1636 5.81707C13.4426 6.49142 13.5851 7.21441 13.5828 7.94419C13.5816 11.006 11.0898 13.4972 8.02811 13.4972H8.02602C7.02905 13.4967 6.05142 13.2291 5.19878 12.723L4.99577 12.6028L2.89338 13.154L3.45463 11.1051L3.32247 10.895C2.76618 10.0098 2.47177 8.98521 2.47328 7.93974Z" fill="#DEDEDE"/>
<path fill-rule="evenodd" clip-rule="evenodd" d="M6.35771 5.14688C6.23254 4.86884 6.10083 4.86321 5.98194 4.8584L5.66184 4.85449C5.55048 4.85449 5.36955 4.89627 5.21658 5.06341C5.06362 5.23054 4.63208 5.63447 4.63208 6.45604C4.63208 7.27762 5.23048 8.07149 5.31387 8.18303C5.39725 8.29457 6.46907 10.0343 8.16645 10.7036C9.57698 11.2599 9.86401 11.1492 10.1703 11.1214C10.4766 11.0937 11.1583 10.7175 11.2973 10.3276C11.4364 9.93764 11.4365 9.60356 11.3948 9.53371C11.3531 9.46386 11.2417 9.42235 11.0746 9.33878C10.9075 9.25521 10.0866 8.85128 9.93358 8.79551C9.78053 8.73974 9.66926 8.71204 9.55781 8.87917C9.44636 9.0463 9.12672 9.42226 9.02926 9.53371C8.9318 9.64516 8.83452 9.65914 8.66738 9.57567C8.50025 9.4922 7.96253 9.3158 7.32452 8.74692C6.82813 8.30429 6.49305 7.75767 6.39549 7.59063C6.29794 7.42359 6.38514 7.33312 6.46889 7.24992C6.54382 7.17507 6.63584 7.0549 6.71949 6.95744C6.80315 6.85997 6.83067 6.79031 6.88626 6.67904C6.94185 6.56777 6.91414 6.47003 6.87236 6.38656C6.83058 6.30308 6.50613 5.47724 6.35771 5.14697" fill="#DEDEDE"/>
</svg>
