<svg width="80" height="20" viewBox="0 0 80 20" fill="none" xmlns="http://www.w3.org/2000/svg">
<path fill-rule="evenodd" clip-rule="evenodd" d="M43.0242 4.89221C43.2165 5.09307 44.9478 9.87815 45.1289 10.4689C45.3092 11.1018 45.5638 11.709 45.887 12.2766C46.4867 12.4184 46.5433 11.7922 46.7244 11.296C47.7088 8.61395 49.2025 4.70317 49.9493 2.06842C50.4698 0.792396 50.5151 0.44976 49.5759 0.44976C48.6367 0.44976 48.7385 1.08777 48.3651 1.91482C48.037 3.48622 46.7696 6.80625 46.3057 8.33038C46.3057 8.53124 46.3057 8.53124 46.0681 8.53124C45.2873 6.26275 44.382 3.48622 43.4994 1.24137C43.2618 0.804211 42.8431 0.709691 42.5602 1.69034C42.085 3.24992 41.4287 5.10488 40.9195 6.61721C40.9195 6.61721 40.3084 8.53124 40.2632 8.62576C39.9396 8.08248 39.7026 7.48793 39.5616 6.86532C38.8601 5.05762 38.249 3.10814 37.6493 1.30044C37.5022 0.957806 37.5022 0.756951 37.174 0.556095C36.8451 0.428826 36.4895 0.396182 36.1443 0.461575C35.2164 0.61517 35.8162 1.39496 36.0085 1.9739C37.1401 5.15214 38.3961 8.9684 39.6521 11.993C39.6815 12.068 39.7293 12.1335 39.7907 12.183C39.8521 12.2325 39.9249 12.2643 40.0018 12.2751C40.0786 12.2859 40.1569 12.2753 40.2286 12.2445C40.3003 12.2136 40.363 12.1636 40.4103 12.0994C40.5913 11.7331 42.8884 4.89221 43.0242 4.89221Z" fill="#4F4F4F"/>
<path fill-rule="evenodd" clip-rule="evenodd" d="M0.205762 0.649804C0.158987 0.846626 0.174876 1.054 0.251025 1.24055C0.443389 2.06761 -0.122389 11.496 0.0247133 11.8741C0.482739 12.0891 0.996263 12.139 1.48442 12.0159C1.71073 11.7677 1.62021 11.5314 1.62021 11.1415C1.62021 9.47563 1.75599 7.86878 1.75599 6.15561C1.81257 5.51759 1.85783 5.08044 1.85783 4.69054C1.85783 4.30065 1.85783 4.34791 1.94836 4.25339C2.03888 4.15887 3.52122 6.85269 3.66832 7.14807C3.95121 7.72701 4.50568 8.61313 4.87909 9.2984C5.44487 10.3736 5.72776 9.64104 5.86354 9.39292C6.19169 8.95577 8.72638 4.31246 8.90743 4.21794C9.07716 4.40698 9.07716 9.05029 9.07716 9.39292C9.07716 11.9332 8.79427 12.1813 10.3332 12.0749C10.8084 12.0749 10.8537 11.685 10.8084 11.2479C10.8084 10.4208 10.8084 9.48744 10.8084 8.66039C10.684 6.55732 10.5934 4.15887 10.5934 2.06761C10.5934 1.81949 10.684 0.886104 10.684 0.744324C10.5454 0.581329 10.3578 0.47258 10.152 0.436057C9.94628 0.399535 9.73475 0.437427 9.55242 0.543468C9.22427 0.744324 9.13374 1.18148 8.89612 1.47686C7.94561 3.23729 6.66695 5.23403 5.77302 6.89995C5.44487 7.4907 5.44487 7.28985 5.16198 6.89995C4.55094 5.96657 3.75885 4.35972 3.20439 3.42633L2.07283 1.47686C1.91554 1.13807 1.71368 0.823906 1.47311 0.543468C1.15627 0.307168 0.533914 0.496208 0.205762 0.649804Z" fill="#4F4F4F"/>
<path fill-rule="evenodd" clip-rule="evenodd" d="M59.916 6.11967C60.3165 5.77846 60.7916 5.54597 61.299 5.4429C61.8064 5.33983 62.3303 5.36938 62.8241 5.52892C64.3178 6.21419 64.5102 8.51812 63.8539 9.64054C63.5743 10.078 63.1717 10.4141 62.7015 10.6024C62.2313 10.7908 61.7166 10.8221 61.2286 10.6921C60.7559 10.5947 60.3085 10.3933 59.916 10.1013V6.11967ZM59.916 4.45375C59.8455 3.16696 59.8455 1.87702 59.916 0.590235C59.916 0.0585584 59.735 -0.0359618 59.2597 0.153079C58.1282 0.64931 58.1282 0.448454 58.2866 1.52362C58.3771 2.06711 58.2866 8.36452 58.2866 9.25065C58.2866 10.9993 58.049 11.401 60.4818 12.1335C61.1745 12.2852 61.8895 12.2891 62.5837 12.145C63.2779 12.0008 63.937 11.7116 64.5215 11.2946C66.9091 9.25065 66.2528 3.48492 61.8963 3.92207C61.5165 3.94353 61.1385 3.99089 60.7647 4.06385C60.6176 4.11111 60.0631 4.45375 59.9952 4.45375H59.916Z" fill="#4F4F4F"/>
<path fill-rule="evenodd" clip-rule="evenodd" d="M26.9196 11.9806C27.0965 11.3644 27.1467 10.7161 27.0667 10.0783C27.0203 9.40969 27.0203 8.73843 27.0667 8.06978C27.2024 8.06978 27.3496 8.3179 27.6324 8.61327C27.9153 8.90865 30.2463 11.4489 30.6197 11.7324C30.75 11.859 30.9071 11.9518 31.0781 12.0031C31.2492 12.0544 31.4294 12.0629 31.6042 12.0278C31.9324 12.0278 32.4529 12.0278 32.6339 11.7915C32.6339 11.4489 31.9776 10.9054 31.6947 10.61C31.4118 10.3146 31.0497 9.93656 30.7216 9.53485C30.0019 8.87347 29.3287 8.15878 28.7074 7.39633C28.7074 7.28999 31.2761 5.03332 31.7513 4.60798C31.9324 4.40712 32.1247 4.35986 32.0795 4.06449C31.497 3.87689 30.874 3.87689 30.2916 4.06449C30.0653 4.17082 28.5151 5.63589 28.0964 6.02578C27.9606 6.16756 27.1572 7.05369 27.0667 7.00643C26.9309 6.55746 27.0667 0.449089 26.9761 0.106454C26.8856 -0.236182 25.2901 0.307309 25.3354 0.89806C25.4241 1.31313 25.4696 1.73699 25.4712 2.16227V10.61C25.4712 10.9054 25.3806 11.7915 25.573 11.9333C26.0133 12.0508 26.4727 12.0669 26.9196 11.9806Z" fill="#4F4F4F"/>
<path fill-rule="evenodd" clip-rule="evenodd" d="M14.73 7.97422C15.2505 7.83244 16.9931 8.26959 17.0723 8.75401C17.1175 9.27675 17.1175 9.80267 17.0723 10.3254C16.7441 10.7626 14.4923 11.6369 13.7455 10.0773C13.6449 9.85574 13.5927 9.6136 13.5927 9.36839C13.5927 9.12318 13.6449 8.88104 13.7455 8.65949C13.8542 8.47935 13.998 8.3252 14.1677 8.20711C14.3373 8.08902 14.5289 8.00966 14.73 7.97422ZM17.1175 7.38347C16.6779 7.07932 16.1861 6.86669 15.6692 6.75727C15.025 6.68279 14.3733 6.73083 13.7455 6.89905C13.217 7.05712 12.7509 7.3881 12.4159 7.84332C12.0809 8.29854 11.8947 8.85398 11.8846 9.42797C11.8744 10.0019 12.0409 10.5642 12.3596 11.032C12.6783 11.4998 13.1324 11.8485 13.655 12.0268C14.55 12.3454 15.521 12.3454 16.416 12.0268C16.6083 11.9323 16.9818 11.6841 17.1175 11.6369C17.2533 11.5896 17.3099 11.9795 17.491 12.074C17.672 12.1686 18.5207 12.074 18.7583 11.8377C18.9959 11.6014 19.0412 11.6369 18.8941 11.2942C18.6752 10.8421 18.5961 10.3302 18.6678 9.82918V6.3083C18.727 5.80977 18.6103 5.30578 18.3396 4.8905C17.4457 3.03554 12.0595 3.76807 12.4895 5.33947C12.9195 6.91087 13.621 4.79598 15.9973 5.09135C17.276 5.23313 17.1402 6.50916 17.1402 7.38347H17.1175Z" fill="#4F4F4F"/>
<path fill-rule="evenodd" clip-rule="evenodd" d="M72.5115 7.14861H68.6303C68.6823 6.66348 68.8943 6.21236 69.23 5.87259C69.5964 5.53707 70.0568 5.33402 70.5426 5.29365C70.7956 5.27182 71.0503 5.30347 71.2914 5.3867C71.5325 5.46993 71.755 5.60303 71.9457 5.77807C72.1377 5.94299 72.2892 6.15339 72.3876 6.39178C72.486 6.63016 72.5285 6.88963 72.5115 7.14861ZM68.5284 8.41282C68.8113 8.27104 73.0546 8.41282 73.8241 8.41282C74.5936 8.41282 74.2428 5.77807 72.8396 4.7029C72.2664 4.25667 71.584 3.98883 70.8712 3.93028C70.1584 3.87173 69.4443 4.02488 68.8113 4.37203C68.1783 4.71918 67.6522 5.24618 67.2938 5.89219C66.9354 6.5382 66.7593 7.27687 66.7858 8.02292C66.759 8.74753 66.9204 9.46621 67.2531 10.1027C67.5858 10.7393 68.0773 11.2699 68.6755 11.6383C69.9315 12.5244 73.3036 12.4772 73.7222 11.1066C74.2428 9.3462 73.0207 10.3268 72.5907 10.5159C72.2291 10.6707 71.848 10.7702 71.4591 10.8113C68.9584 11.1066 68.3474 8.80271 68.5284 8.41282Z" fill="#4F4F4F"/>
<path fill-rule="evenodd" clip-rule="evenodd" d="M51.5414 7.14679C51.5811 6.64215 51.8009 6.17148 52.1571 5.82795C52.5134 5.48442 52.9802 5.29309 53.4651 5.29183C54.4382 5.18549 55.5698 6.07162 55.3774 7.14679H51.5414ZM51.3491 8.32829C51.5867 8.32829 55.9885 8.32829 56.5995 8.32829C57.2105 8.32829 57.1087 7.93839 57.0634 7.45398C57.0304 6.79795 56.8347 6.16214 56.4955 5.60883C56.1564 5.05551 55.6854 4.60367 55.1287 4.29756C54.572 3.99145 53.9487 3.84157 53.3199 3.86259C52.6911 3.88362 52.0782 4.07484 51.5414 4.41752C50.9379 4.78984 50.4443 5.32869 50.1149 5.97484C49.7855 6.621 49.6331 7.34946 49.6744 8.08017C49.6264 8.8015 49.7819 9.52169 50.1218 10.1517C50.4617 10.7816 50.971 11.2938 51.5867 11.6247C53.1822 12.6526 56.3166 12.2154 56.5995 11.0457C56.5995 10.7031 56.8258 9.86424 56.3166 10.0651C55.7015 10.4282 55.032 10.6798 54.3364 10.8094C53.9656 10.8612 53.5886 10.8356 53.2274 10.7342C52.8661 10.6328 52.5277 10.4576 52.2317 10.2187C51.8243 9.87606 51.168 8.84815 51.3491 8.32829Z" fill="#4F4F4F"/>
<path fill-rule="evenodd" clip-rule="evenodd" d="M76.7637 12.0273C77.0466 11.7319 77.0014 11.5901 77.0014 11.153V9.97149C77.0014 8.4119 76.7185 5.82441 78.4498 5.43451C78.8232 5.33999 78.9137 5.67081 79.389 5.57629C79.6692 5.31375 79.8797 4.98001 80 4.60746C80 3.86312 78.8684 3.72133 77.8387 4.20575C77.5106 4.35935 77.239 4.89102 77.0014 4.93828C77.0014 4.50113 77.0919 4.31209 76.809 3.92219C76.4463 3.9585 76.0952 4.07533 75.7793 4.26483C75.3153 4.50113 75.2248 4.50113 75.3153 5.09188C75.4059 5.68263 75.3153 9.73519 75.3153 10.704C75.3606 12.1809 75.3606 12.1336 76.7637 12.0273Z" fill="#4F4F4F"/>
<path fill-rule="evenodd" clip-rule="evenodd" d="M21.5914 11.98V11.8855C21.7228 10.6855 21.7568 9.47607 21.6933 8.2701C21.6933 7.33671 21.9196 5.82439 22.904 5.52901C23.6961 5.23363 23.7414 6.01343 24.2619 5.52901C25.4727 4.20573 23.8432 3.67405 22.8588 4.11121C21.8743 4.54836 22.0101 4.891 21.7272 4.98552C21.7045 4.79327 21.7045 4.59883 21.7272 4.40658C21.7272 4.15847 21.6254 4.15847 21.5348 4.01669C21.172 4.0136 20.8155 4.11587 20.5051 4.31206C20.0412 4.5011 19.8941 4.54836 20.0412 5.13911C20.1407 6.04492 20.171 6.95756 20.1317 7.86839V10.5622C20.2336 12.0273 20.0412 12.1336 21.5914 11.98Z" fill="#4F4F4F"/>
<path fill-rule="evenodd" clip-rule="evenodd" d="M42.6953 13.5529C40.8273 13.7935 38.9906 14.2492 37.2186 14.9116C36.6641 15.1598 36.087 15.3015 35.5326 15.5497C34.401 15.9868 33.3374 16.3767 32.2171 16.8257C31.8437 16.9675 29.1732 17.7945 28.7093 17.9009C26.4462 18.4798 23.0515 19.1651 20.8902 18.1372C19.8605 17.6055 19.7587 19.2596 22.101 19.8503C23.4708 20.1008 24.8764 20.0363 26.2199 19.6613C27.3514 19.4132 28.7093 18.976 29.7843 18.6334C30.8592 18.2908 32.1266 17.9009 33.2921 17.5582C33.575 17.4519 33.8013 17.3574 34.1294 17.2628L35.8607 16.7193C36.1889 16.6248 36.4265 16.483 36.7094 16.3767L38.4972 15.9396C38.8254 15.845 39.063 15.7505 39.3459 15.6442C41.7151 15.1165 44.1315 14.855 46.5539 14.8644C47.1536 14.8644 48.0476 15.018 48.6586 15.1125C49.7902 15.2543 49.5412 14.6281 48.7944 14.2264C46.8526 13.4495 44.7498 13.2173 42.6953 13.5529Z" fill="#4F4F4F"/>
</svg>
