<svg width="16" height="16" viewBox="0 0 16 16" fill="none" xmlns="http://www.w3.org/2000/svg">
<g clip-path="url(#clip0_2309_24851)">
<path d="M14.6667 14.9333V13.268C15.0182 13.0608 15.2242 12.6741 15.2 12.2667C15.2 11.6776 14.8419 11.2 14.4 11.2C13.9581 11.2 13.6 11.6776 13.6 12.2667C13.5758 12.6741 13.7818 13.0608 14.1333 13.268V14.9333H12.2667V6.83151L10.6667 6.03151V7.46667H11.4667V8H10.6667V9.06667H11.4667V9.6H10.6667V10.6667H11.4667V11.2H10.6667V12.2667H11.4667V12.8H10.6667V13.8667H11.4667V14.4H10.6667V14.9333H10.1333V4.20104L6.93333 3.28698V4.26667H8.8V4.8H6.93333V5.86667H8.8V6.4H6.93333V7.46667H8.8V8H6.93333V9.06667H8.8V9.6H6.93333V10.6667H8.8V11.2H6.93333V12.2667H8.8V12.8H6.93333V13.8667H8.8V14.4H6.93333V14.9333H6.4V0H1.6V1.06667H4V1.6H1.6V2.66667H4V3.2H1.6V4.26667H4V4.8H1.6V5.86667H4V6.4H1.6V7.46667H4V8H1.6V9.06667H4V9.6H1.6V10.6667H4V11.2H1.6V12.2667H4V12.8H1.6V13.8667H4V14.4H1.6V14.9333H0V15.4667H16V14.9333H14.6667Z" fill="#DEDEDE"/>
</g>
<defs>
<clipPath id="clip0_2309_24851">
<rect width="16" height="16" fill="white"/>
</clipPath>
</defs>
</svg>
