<svg width="24" height="24" viewBox="0 0 24 24" fill="none" xmlns="http://www.w3.org/2000/svg">
<path d="M15.1722 16.1292C15.7565 17.1407 16.3603 18.3096 16.9836 19.636C17.0458 19.7682 16.949 19.9199 16.8029 19.9199H14.863C14.804 19.9199 14.7479 19.8937 14.7098 19.8487C11.9461 16.5855 9.0535 14.1908 6.03187 12.6646C5.96413 12.6304 5.92131 12.5612 5.92131 12.4853V11.513C5.92131 11.4379 5.9632 11.3693 6.02981 11.3348C9.05221 9.7653 11.9456 7.37044 14.7098 4.15017C14.7479 4.10579 14.8037 4.07996 14.8621 4.07996H16.7986C16.9458 4.07996 17.0425 4.23367 16.9783 4.36615C16.3569 5.64876 15.7549 6.79438 15.1722 7.80302C14.5018 8.8861 13.8538 9.81123 13.2282 10.5784L12.1268 12.0306L13.2282 13.4215C13.8538 14.1435 14.5018 15.0461 15.1722 16.1292Z" fill="#DEDEDE"/>
</svg>
