<svg width="16" height="16" viewBox="0 0 16 16" fill="none" xmlns="http://www.w3.org/2000/svg">
<path d="M12.3761 12.4452H3.62517C3.35791 12.4452 3.14062 12.6642 3.14062 12.9297V13.5764C3.14062 13.8436 3.35963 14.0609 3.62517 14.0609H12.3727C12.64 14.0609 12.8572 13.8419 12.8572 13.5764V12.9297C12.8624 12.6607 12.6434 12.4452 12.3761 12.4452Z" fill="#DEDEDE"/>
<path d="M4.3001 6.37998C4.3001 6.23383 4.45177 6.13713 4.58369 6.20003C5.14174 6.4661 5.63776 6.72449 6.07177 6.9752C6.57795 7.2885 6.99978 7.59136 7.33724 7.88377L7.33724 1.53331C7.33724 1.42286 7.42678 1.33331 7.53724 1.33331L8.46599 1.33331C8.57644 1.33331 8.66599 1.42286 8.66599 1.53331L8.66599 7.88377C9.02454 7.59136 9.45691 7.2885 9.9631 6.9752C10.3943 6.72613 10.879 6.46947 11.4173 6.20524C11.5495 6.14037 11.7031 6.23704 11.7031 6.38425L11.7031 7.07102C11.7031 7.12951 11.6773 7.18514 11.6331 7.22335C10.1672 8.48796 9.07043 9.81027 8.34271 11.1903C8.3077 11.2567 8.23913 11.2987 8.16408 11.2987L7.84076 11.2987C7.76486 11.2987 7.69569 11.2557 7.66101 11.1882C6.95249 9.80898 5.85588 8.48737 4.3712 7.22342C4.32631 7.1852 4.3001 7.12916 4.3001 7.07021L4.3001 6.37998Z" fill="#DEDEDE"/>
</svg>
