<svg width="12" height="13" viewBox="0 0 12 13" fill="none" xmlns="http://www.w3.org/2000/svg">
<g clip-path="url(#clip0_798_222116)">
<path d="M11.3333 8.83334C10.5033 8.83334 9.7 8.7 8.95334 8.45334C8.72334 8.38 8.46 8.43334 8.27669 8.61669L6.81003 10.0867C4.92003 9.12669 3.37669 7.58334 2.41669 5.69669L3.88334 4.22334C4.06669 4.04 4.12 3.77669 4.04669 3.54669C3.80003 2.80003 3.66669 1.99669 3.66669 1.16669C3.66666 0.796656 3.37 0.5 3 0.5H0.666656C0.3 0.5 0 0.796656 0 1.16666C0 7.42666 5.07334 12.5 11.3333 12.5C11.7033 12.5 12 12.2033 12 11.8333V9.5C12 9.13 11.7033 8.83334 11.3333 8.83334Z" fill="#DEDEDE"/>
</g>
<defs>
<clipPath id="clip0_798_222116">
<rect width="12" height="12" fill="white" transform="translate(0 0.5)"/>
</clipPath>
</defs>
</svg>
