<svg width="16" height="16" viewBox="0 0 16 16" fill="none" xmlns="http://www.w3.org/2000/svg">
<path d="M7.31202 12.3327C7.45817 12.3327 7.55488 12.181 7.49219 12.049C7.17266 11.3761 6.86255 10.7794 6.56188 10.259C6.19517 9.66647 5.84068 9.17272 5.49841 8.77773H14.299C14.4095 8.77773 14.499 8.68818 14.499 8.57773V7.42244C14.499 7.31198 14.4095 7.22244 14.299 7.22244H5.49841C5.84068 6.80275 6.19517 6.29667 6.56188 5.70417C6.86092 5.18653 7.16928 4.60292 7.48697 3.95337C7.55165 3.82112 7.45496 3.66748 7.30774 3.66748H6.43402C6.37553 3.66748 6.31987 3.69328 6.2817 3.73759C4.79273 5.46586 3.23539 6.75685 1.60967 7.61055C1.54322 7.64545 1.50122 7.71402 1.50122 7.78907V8.20948C1.50122 8.28538 1.54416 8.35456 1.61173 8.38911C3.23668 9.22002 4.79331 10.5108 6.28163 12.2615C6.31981 12.3065 6.37588 12.3327 6.43483 12.3327H7.31202Z" fill="#DEDEDE" fill-opacity="0.2"/>
</svg>
