<svg width="16" height="16" viewBox="0 0 16 16" fill="none" xmlns="http://www.w3.org/2000/svg">
<path fill-rule="evenodd" clip-rule="evenodd" d="M0.968434 7.18845C4.74998 5.54089 7.2716 4.45472 8.5333 3.92993C12.1357 2.43157 12.8843 2.17128 13.3721 2.16269C13.4795 2.1608 13.7194 2.18739 13.8748 2.3135C14.006 2.41999 14.0421 2.56384 14.0594 2.6648C14.0767 2.76576 14.0982 2.99575 14.0811 3.17545C13.8859 5.2266 13.0412 10.2042 12.6115 12.5015C12.4296 13.4736 12.0716 13.7995 11.725 13.8314C10.9717 13.9008 10.3997 13.3336 9.67005 12.8553C8.52836 12.1069 7.88338 11.6411 6.77518 10.9108C5.49445 10.0668 6.32469 9.60294 7.05457 8.84486C7.24558 8.64646 10.5646 5.62753 10.6289 5.35367C10.6369 5.31942 10.6444 5.19175 10.5685 5.12433C10.4927 5.05692 10.3807 5.07997 10.2999 5.0983C10.1854 5.12429 8.36157 6.3298 4.82835 8.71482C4.31066 9.07031 3.84174 9.24351 3.42161 9.23444C2.95845 9.22443 2.06752 8.97256 1.4052 8.75727C0.592839 8.4932 -0.0528086 8.35359 0.0034128 7.90512C0.0326964 7.67153 0.35437 7.43264 0.968434 7.18845Z" fill="#DEDEDE"/>
</svg>
